CSLSans-ExtraLight.ufo
<glyph name="quotedbl" format="2">
  <advance width="384"/>
  <unicode hex="0022"/>
  <outline>
    <contour>
      <point x="96" y="483" type="line"/>
      <point x="96" y="740" type="line"/>
      <point x="129" y="740" type="line"/>
      <point x="129" y="483" type="line"/>
    </contour>
    <contour>
      <point x="254" y="483" type="line"/>
      <point x="254" y="740" type="line"/>
      <point x="287" y="740" type="line"/>
      <point x="287" y="483" type="line"/>
    </contour>
  </outline>
</glyph>
<glyph name="comma" format="2">
  <advance width="300"/>
  <unicode hex="002C"/>
  <outline>
    <contour>
      <point x="74" y="-144" type="line"/>
      <point x="136" y="-81"/>
      <point x="148" y="-6" type="qcurve"/>
      <point x="114" y="-4"/>
      <point x="114" y="24" type="qcurve" smooth="yes"/>
      <point x="114" y="36" type="line" smooth="yes"/>
      <point x="114" y="68"/>
      <point x="150" y="68" type="qcurve" smooth="yes"/>
      <point x="185" y="68"/>
      <point x="185" y="34" type="qcurve" smooth="yes"/>
      <point x="185" y="22" type="line" smooth="yes"/>
      <point x="185" y="-20"/>
      <point x="140" y="-111"/>
      <point x="104" y="-144" type="qcurve"/>
    </contour>
  </outline>
</glyph>
<glyph name="four" format="2">
  <advance width="600"/>
  <unicode hex="0034"/>
  <outline>
    <contour>
      <point x="403" y="0" type="line"/>
      <point x="403" y="155" type="line"/>
      <point x="45" y="155" type="line"/>
      <point x="45" y="188" type="line"/>
      <point x="389" y="698" type="line"/>
      <point x="437" y="698" type="line"/>
      <point x="437" y="186" type="line"/>
      <point x="551" y="186" type="line"/>
      <point x="551" y="155" type="line"/>
      <point x="437" y="155" type="line"/>
      <point x="437" y="0" type="line"/>
    </contour>
    <contour>
      <point x="403" y="661" type="line"/>
      <point x="401" y="661" type="line"/>
      <point x="80" y="186" type="line"/>
      <point x="403" y="186" type="line"/>
    </contour>
  </outline>
</glyph>
<glyph name="six" format="2">
  <advance width="600"/>
  <unicode hex="0036"/>
  <outline>
    <contour>
      <point x="300" y="-12" type="qcurve" smooth="yes"/>
      <point x="192" y="-12"/>
      <point x="82" y="127"/>
      <point x="82" y="233" type="qcurve" smooth="yes"/>
      <point x="82" y="391"/>
      <point x="162" y="515" type="qcurve" smooth="yes"/>
      <point x="239" y="631"/>
      <point x="350" y="698" type="qcurve"/>
      <point x="400" y="698" type="line"/>
      <point x="280" y="622"/>
      <point x="146" y="440"/>
      <point x="123" y="317" type="qcurve"/>
      <point x="126" y="316" type="line"/>
      <point x="180" y="421"/>
      <point x="306" y="421" type="qcurve" smooth="yes"/>
      <point x="402" y="421"/>
      <point x="516" y="306"/>
      <point x="516" y="208" type="qcurve" smooth="yes"/>
      <point x="516" y="108"/>
      <point x="398" y="-12"/>
    </contour>
    <contour>
      <point x="299" y="21" type="qcurve" smooth="yes"/>
      <point x="383" y="21"/>
      <point x="477" y="116"/>
      <point x="477" y="192" type="qcurve" smooth="yes"/>
      <point x="477" y="218" type="line" smooth="yes"/>
      <point x="477" y="292"/>
      <point x="383" y="389"/>
      <point x="299" y="389" type="qcurve" smooth="yes"/>
      <point x="215" y="389"/>
      <point x="121" y="292"/>
      <point x="121" y="218" type="qcurve" smooth="yes"/>
      <point x="121" y="194" type="line" smooth="yes"/>
      <point x="121" y="118"/>
      <point x="217" y="21"/>
    </contour>
  </outline>
</glyph>
<glyph name="colon" format="2">
  <advance width="268"/>
  <unicode hex="003A"/>
  <outline>
    <contour>
      <point x="134" y="-7" type="qcurve"/>
      <point x="99" y="-4"/>
      <point x="99" y="26" type="qcurve" smooth="yes"/>
      <point x="99" y="35" type="line"/>
      <point x="100" y="68"/>
      <point x="134" y="68" type="qcurve"/>
      <point x="169" y="65"/>
      <point x="169" y="35" type="qcurve" smooth="yes"/>
      <point x="169" y="26" type="line" smooth="yes"/>
      <point x="169" y="-7"/>
    </contour>
    <contour>
      <point x="134" y="425" type="qcurve"/>
      <point x="99" y="428"/>
      <point x="99" y="458" type="qcurve" smooth="yes"/>
      <point x="99" y="467" type="line"/>
      <point x="100" y="500"/>
      <point x="134" y="500" type="qcurve"/>
      <point x="169" y="497"/>
      <point x="169" y="467" type="qcurve" smooth="yes"/>
      <point x="169" y="458" type="line" smooth="yes"/>
      <point x="169" y="425"/>
    </contour>
  </outline>
</glyph>
<glyph name="semicolon" format="2">
  <advance width="268"/>
  <unicode hex="003B"/>
  <outline>
    <contour>
      <point x="58" y="-144" type="line"/>
      <point x="120" y="-81"/>
      <point x="132" y="-6" type="qcurve"/>
      <point x="98" y="-4"/>
      <point x="98" y="24" type="qcurve" smooth="yes"/>
      <point x="98" y="36" type="line" smooth="yes"/>
      <point x="98" y="68"/>
      <point x="134" y="68" type="qcurve" smooth="yes"/>
      <point x="169" y="68"/>
      <point x="169" y="34" type="qcurve" smooth="yes"/>
      <point x="169" y="22" type="line" smooth="yes"/>
      <point x="169" y="-20"/>
      <point x="124" y="-111"/>
      <point x="88" y="-144" type="qcurve"/>
    </contour>
    <contour>
      <point x="134" y="425" type="qcurve"/>
      <point x="99" y="428"/>
      <point x="99" y="458" type="qcurve" smooth="yes"/>
      <point x="99" y="467" type="line"/>
      <point x="100" y="500"/>
      <point x="134" y="500" type="qcurve"/>
      <point x="169" y="497"/>
      <point x="169" y="467" type="qcurve" smooth="yes"/>
      <point x="169" y="458" type="line" smooth="yes"/>
      <point x="169" y="425"/>
    </contour>
  </outline>
</glyph>
<glyph name="question" format="2">
  <advance width="462"/>
  <unicode hex="003F"/>
  <outline>
    <contour>
      <point x="212" y="-7" type="qcurve"/>
      <point x="177" y="-4"/>
      <point x="177" y="26" type="qcurve" smooth="yes"/>
      <point x="177" y="35" type="line"/>
      <point x="178" y="68"/>
      <point x="212" y="68" type="qcurve" smooth="yes"/>
      <point x="247" y="68"/>
      <point x="247" y="35" type="qcurve" smooth="yes"/>
      <point x="247" y="26" type="line" smooth="yes"/>
      <point x="247" y="-7"/>
    </contour>
    <contour>
      <point x="194" y="184" type="line"/>
      <point x="194" y="354" type="line"/>
      <point x="288" y="357"/>
      <point x="389" y="444"/>
      <point x="389" y="515" type="qcurve" smooth="yes"/>
      <point x="389" y="538" type="line" smooth="yes"/>
      <point x="389" y="601"/>
      <point x="309" y="678"/>
      <point x="237" y="678" type="qcurve" smooth="yes"/>
      <point x="102" y="678"/>
      <point x="67" y="546" type="qcurve"/>
      <point x="35" y="556" type="line"/>
      <point x="78" y="710"/>
      <point x="238" y="710" type="qcurve" smooth="yes"/>
      <point x="326" y="710"/>
      <point x="427" y="611"/>
      <point x="427" y="529" type="qcurve" smooth="yes"/>
      <point x="427" y="439"/>
      <point x="321" y="337"/>
      <point x="230" y="327" type="qcurve"/>
      <point x="230" y="184" type="line"/>
    </contour>
  </outline>
</glyph>
<glyph name="at" format="2">
  <advance width="883"/>
  <unicode hex="0040"/>
  <outline>
    <contour>
      <point x="436" y="98" type="qcurve" smooth="yes"/>
      <point x="490" y="98"/>
      <point x="566" y="163"/>
      <point x="566" y="217" type="qcurve" smooth="yes"/>
      <point x="566" y="360" type="line" smooth="yes"/>
      <point x="566" y="414"/>
      <point x="490" y="479"/>
      <point x="436" y="479" type="qcurve" smooth="yes"/>
      <point x="367" y="479"/>
      <point x="297" y="389"/>
      <point x="297" y="311" type="qcurve" smooth="yes"/>
      <point x="297" y="263" type="line" smooth="yes"/>
      <point x="297" y="187"/>
      <point x="367" y="98"/>
    </contour>
    <contour>
      <point x="442" y="-121" type="line" smooth="yes"/>
      <point x="282" y="-121"/>
      <point x="176" y="-11" type="qcurve" smooth="yes"/>
      <point x="69" y="103"/>
      <point x="69" y="297" type="qcurve" smooth="yes"/>
      <point x="69" y="488"/>
      <point x="283" y="710"/>
      <point x="445" y="710" type="qcurve" smooth="yes"/>
      <point x="519" y="710"/>
      <point x="652" y="662"/>
      <point x="755" y="566"/>
      <point x="814" y="423"/>
      <point x="814" y="328" type="qcurve" smooth="yes"/>
      <point x="814" y="220"/>
      <point x="779" y="145" type="qcurve"/>
      <point x="741" y="69"/>
      <point x="664" y="69" type="qcurve" smooth="yes"/>
      <point x="623" y="69"/>
      <point x="574" y="113"/>
      <point x="569" y="150" type="qcurve"/>
      <point x="566" y="150" type="line"/>
      <point x="528" y="69"/>
      <point x="433" y="69" type="qcurve" smooth="yes"/>
      <point x="354" y="69"/>
      <point x="260" y="178"/>
      <point x="260" y="287" type="qcurve" smooth="yes"/>
      <point x="260" y="399"/>
      <point x="354" y="508"/>
      <point x="433" y="508" type="qcurve" smooth="yes"/>
      <point x="486" y="508"/>
      <point x="549" y="463"/>
      <point x="563" y="433" type="qcurve"/>
      <point x="566" y="433" type="line"/>
      <point x="566" y="497" type="line"/>
      <point x="598" y="497" type="line"/>
      <point x="598" y="171" type="line"/>
      <point x="601" y="97"/>
      <point x="667" y="97" type="qcurve" smooth="yes"/>
      <point x="721" y="97"/>
      <point x="782" y="207"/>
      <point x="782" y="306" type="qcurve" smooth="yes"/>
      <point x="782" y="353" type="line" smooth="yes"/>
      <point x="782" y="427"/>
      <point x="730" y="549"/>
      <point x="685" y="592" type="qcurve" smooth="yes"/>
      <point x="589" y="682"/>
      <point x="445" y="682" type="qcurve" smooth="yes"/>
      <point x="297" y="682"/>
      <point x="199" y="581" type="qcurve" smooth="yes"/>
      <point x="153" y="533"/>
      <point x="101" y="402"/>
      <point x="101" y="325" type="qcurve" smooth="yes"/>
      <point x="101" y="271" type="line" smooth="yes"/>
      <point x="101" y="109"/>
      <point x="294" y="-93"/>
      <point x="442" y="-93" type="qcurve" smooth="yes"/>
      <point x="677" y="-93" type="line"/>
      <point x="677" y="-121" type="line"/>
    </contour>
  </outline>
</glyph>
<glyph name="D" format="2">
  <advance width="661"/>
  <unicode hex="0044"/>
  <outline>
    <contour>
      <point x="104" y="0" type="line"/>
      <point x="104" y="698" type="line"/>
      <point x="316" y="698" type="line"/>
      <point x="594" y="697"/>
      <point x="594" y="349" type="qcurve"/>
      <point x="592" y="0"/>
      <point x="316" y="0" type="qcurve" smooth="yes"/>
    </contour>
    <contour>
      <point x="316" y="33" type="line" smooth="yes"/>
      <point x="436" y="33"/>
      <point x="554" y="186"/>
      <point x="554" y="313" type="qcurve" smooth="yes"/>
      <point x="554" y="385" type="line" smooth="yes"/>
      <point x="554" y="513"/>
      <point x="436" y="665"/>
      <point x="316" y="665" type="qcurve" smooth="yes"/>
      <point x="141" y="665" type="line"/>
      <point x="141" y="33" type="line"/>
    </contour>
  </outline>
</glyph>
<glyph name="bracketleft" format="2">
  <advance width="305"/>
  <unicode hex="005B"/>
  <outline>
    <contour>
      <point x="104" y="-138" type="line"/>
      <point x="104" y="760" type="line"/>
      <point x="238" y="760" type="line"/>
      <point x="238" y="731" type="line"/>
      <point x="136" y="731" type="line"/>
      <point x="136" y="-109" type="line"/>
      <point x="238" y="-109" type="line"/>
      <point x="238" y="-138" type="line"/>
    </contour>
  </outline>
</glyph>
<glyph name="i" format="2">
  <advance width="235"/>
  <unicode hex="0069"/>
  <outline>
    <contour>
      <point x="118" y="665" type="qcurve" smooth="yes"/>
      <point x="88" y="665"/>
      <point x="88" y="691" type="qcurve" smooth="yes"/>
      <point x="88" y="700" type="line" smooth="yes"/>
      <point x="88" y="726"/>
      <point x="117" y="726" type="qcurve" smooth="yes"/>
      <point x="147" y="726"/>
      <point x="147" y="700" type="qcurve" smooth="yes"/>
      <point x="147" y="691" type="line" smooth="yes"/>
      <point x="147" y="665"/>
    </contour>
    <contour>
      <point x="100" y="0" type="line"/>
      <point x="100" y="508" type="line"/>
      <point x="135" y="508" type="line"/>
      <point x="135" y="0" type="line"/>
    </contour>
  </outline>
</glyph>
<glyph name="y" format="2">
  <advance width="462"/>
  <unicode hex="0079"/>
  <outline>
    <contour>
      <point x="64" y="-200" type="line"/>
      <point x="64" y="-169" type="line"/>
      <point x="154" y="-169" type="line"/>
      <point x="214" y="-10" type="line"/>
      <point x="23" y="508" type="line"/>
      <point x="60" y="508" type="line"/>
      <point x="230" y="38" type="line"/>
      <point x="233" y="38" type="line"/>
      <point x="403" y="508" type="line"/>
      <point x="438" y="508" type="line"/>
      <point x="190" y="-167" type="line"/>
      <point x="182" y="-185"/>
      <point x="160" y="-200"/>
      <point x="138" y="-200" type="qcurve" smooth="yes"/>
    </contour>
  </outline>
</glyph>
<glyph name="braceright" format="2">
  <advance width="322"/>
  <unicode hex="007D"/>
  <outline>
    <contour>
      <point x="66" y="-138" type="line"/>
      <point x="66" y="-109" type="line"/>
      <point x="169" y="-109" type="line"/>
      <point x="169" y="195" type="line" smooth="yes"/>
      <point x="169" y="242"/>
      <point x="222" y="300"/>
      <point x="267" y="303" type="qcurve"/>
      <point x="267" y="319" type="line"/>
      <point x="222" y="322"/>
      <point x="169" y="380"/>
      <point x="169" y="427" type="qcurve" smooth="yes"/>
      <point x="169" y="731" type="line"/>
      <point x="66" y="731" type="line"/>
      <point x="66" y="760" type="line"/>
      <point x="163" y="760" type="line" smooth="yes"/>
      <point x="201" y="760"/>
      <point x="201" y="721" type="qcurve" smooth="yes"/>
      <point x="201" y="425" type="line" smooth="yes"/>
      <point x="201" y="339"/>
      <point x="298" y="339" type="qcurve"/>
      <point x="298" y="283" type="line"/>
      <point x="201" y="283"/>
      <point x="201" y="197" type="qcurve" smooth="yes"/>
      <point x="201" y="-99" type="line" smooth="yes"/>
      <point x="201" y="-138"/>
      <point x="163" y="-138" type="qcurve" smooth="yes"/>
    </contour>
  </outline>
</glyph>
<glyph name="section" format="2">
  <advance width="570"/>
  <unicode hex="00A7"/>
  <outline>
    <contour>
      <point x="354" y="125" type="qcurve"/>
      <point x="451" y="169"/>
      <point x="451" y="260" type="qcurve" smooth="yes"/>
      <point x="451" y="315"/>
      <point x="387" y="376"/>
      <point x="323" y="395" type="qcurve" smooth="yes"/>
      <point x="247" y="418" type="line"/>
      <point x="232" y="424"/>
      <point x="215" y="431" type="qcurve"/>
      <point x="118" y="387"/>
      <point x="118" y="296" type="qcurve" smooth="yes"/>
      <point x="118" y="240"/>
      <point x="182" y="180"/>
      <point x="246" y="161" type="qcurve" smooth="yes"/>
      <point x="311" y="141" type="line"/>
      <point x="320" y="137"/>
      <point x="329" y="135" type="qcurve"/>
      <point x="333" y="134"/>
    </contour>
    <contour>
      <point x="271" y="-154" type="qcurve" smooth="yes"/>
      <point x="170" y="-154"/>
      <point x="114" y="-98" type="qcurve"/>
      <point x="135" y="-74" type="line"/>
      <point x="187" y="-123"/>
      <point x="272" y="-123" type="qcurve" smooth="yes"/>
      <point x="339" y="-123"/>
      <point x="415" y="-65"/>
      <point x="415" y="-9" type="qcurve" smooth="yes"/>
      <point x="415" y="38"/>
      <point x="380" y="69" type="qcurve"/>
      <point x="346" y="96"/>
      <point x="296" y="111" type="qcurve" smooth="yes"/>
      <point x="230" y="132" type="line" smooth="yes"/>
      <point x="159" y="154"/>
      <point x="84" y="226"/>
      <point x="84" y="290" type="qcurve" smooth="yes"/>
      <point x="84" y="395"/>
      <point x="193" y="438" type="qcurve"/>
      <point x="193" y="442" type="line"/>
      <point x="119" y="487"/>
      <point x="119" y="565" type="qcurve" smooth="yes"/>
      <point x="119" y="637"/>
      <point x="222" y="710"/>
      <point x="298" y="710" type="qcurve" smooth="yes"/>
      <point x="399" y="710"/>
      <point x="455" y="654" type="qcurve"/>
      <point x="434" y="629" type="line"/>
      <point x="382" y="679"/>
      <point x="297" y="679" type="qcurve" smooth="yes"/>
      <point x="230" y="679"/>
      <point x="154" y="621"/>
      <point x="154" y="565" type="qcurve" smooth="yes"/>
      <point x="154" y="517"/>
      <point x="223" y="458"/>
      <point x="273" y="445" type="qcurve"/>
      <point x="339" y="423" type="line"/>
      <point x="411" y="402"/>
      <point x="486" y="330"/>
      <point x="486" y="266" type="qcurve" smooth="yes"/>
      <point x="486" y="160"/>
      <point x="376" y="117" type="qcurve"/>
      <point x="376" y="114" type="line"/>
      <point x="450" y="71"/>
      <point x="450" y="-9" type="qcurve" smooth="yes"/>
      <point x="450" y="-81"/>
      <point x="348" y="-154"/>
    </contour>
  </outline>
</glyph>
<glyph name="copyright" format="2">
  <advance width="724"/>
  <unicode hex="00A9"/>
  <outline>
    <contour>
      <point x="362" y="-12" type="qcurve" smooth="yes"/>
      <point x="220" y="-12"/>
      <point x="38" y="185"/>
      <point x="38" y="349" type="qcurve" smooth="yes"/>
      <point x="38" y="513"/>
      <point x="220" y="710"/>
      <point x="362" y="710" type="qcurve" smooth="yes"/>
      <point x="505" y="710"/>
      <point x="686" y="513"/>
      <point x="686" y="349" type="qcurve" smooth="yes"/>
      <point x="686" y="186"/>
      <point x="505" y="-12"/>
    </contour>
    <contour>
      <point x="362" y="16" type="qcurve" smooth="yes"/>
      <point x="493" y="16"/>
      <point x="653" y="193"/>
      <point x="653" y="325" type="qcurve" smooth="yes"/>
      <point x="653" y="373" type="line" smooth="yes"/>
      <point x="653" y="505"/>
      <point x="573" y="594" type="qcurve"/>
      <point x="490" y="682"/>
      <point x="362" y="682" type="qcurve" smooth="yes"/>
      <point x="232" y="682"/>
      <point x="71" y="505"/>
      <point x="71" y="373" type="qcurve" smooth="yes"/>
      <point x="71" y="325" type="line" smooth="yes"/>
      <point x="71" y="193"/>
      <point x="232" y="16"/>
    </contour>
    <contour>
      <point x="362" y="150" type="qcurve" smooth="yes"/>
      <point x="291" y="150"/>
      <point x="209" y="251"/>
      <point x="209" y="347" type="qcurve" smooth="yes"/>
      <point x="209" y="442"/>
      <point x="292" y="543"/>
      <point x="363" y="543" type="qcurve" smooth="yes"/>
      <point x="413" y="543"/>
      <point x="475" y="497"/>
      <point x="489" y="461" type="qcurve"/>
      <point x="463" y="449" type="line"/>
      <point x="436" y="515"/>
      <point x="363" y="515" type="qcurve" smooth="yes"/>
      <point x="307" y="515"/>
      <point x="242" y="437"/>
      <point x="242" y="362" type="qcurve" smooth="yes"/>
      <point x="242" y="331" type="line" smooth="yes"/>
      <point x="242" y="254"/>
      <point x="307" y="178"/>
      <point x="362" y="178" type="qcurve" smooth="yes"/>
      <point x="440" y="178"/>
      <point x="469" y="246" type="qcurve"/>
      <point x="493" y="232" type="line"/>
      <point x="478" y="196"/>
      <point x="411" y="150"/>
    </contour>
  </outline>
</glyph>
<glyph name="sfthyphen" format="2">
  <advance width="396"/>
  <unicode hex="00AD"/>
  <outline>
    <contour>
      <point x="80" y="287" type="line"/>
      <point x="80" y="323" type="line"/>
      <point x="316" y="323" type="line"/>
      <point x="316" y="287" type="line"/>
    </contour>
  </outline>
</glyph>
<glyph name="plusminus" format="2">
  <advance width="600"/>
  <unicode hex="00B1"/>
  <outline>
    <contour>
      <point x="283" y="124" type="line"/>
      <point x="283" y="349" type="line"/>
      <point x="63" y="349" type="line"/>
      <point x="63" y="380" type="line"/>
      <point x="283" y="380" type="line"/>
      <point x="283" y="606" type="line"/>
      <point x="317" y="606" type="line"/>
      <point x="317" y="380" type="line"/>
      <point x="537" y="380" type="line"/>
      <point x="537" y="349" type="line"/>
      <point x="317" y="349" type="line"/>
      <point x="317" y="124" type="line"/>
    </contour>
    <contour>
      <point x="63" y="0" type="line"/>
      <point x="63" y="31" type="line"/>
      <point x="537" y="31" type="line"/>
      <point x="537" y="0" type="line"/>
    </contour>
  </outline>
</glyph>
<glyph name="u00B2" format="2">
  <advance width="345"/>
  <unicode hex="00B2"/>
  <outline>
    <contour>
      <point x="43" y="329" type="line"/>
      <point x="43" y="358" type="line"/>
      <point x="180" y="470" type="line" smooth="yes"/>
      <point x="258" y="536"/>
      <point x="258" y="591" type="qcurve" smooth="yes"/>
      <point x="258" y="600" type="line" smooth="yes"/>
      <point x="258" y="635"/>
      <point x="215" y="679"/>
      <point x="171" y="679" type="qcurve" smooth="yes"/>
      <point x="90" y="679"/>
      <point x="65" y="605" type="qcurve"/>
      <point x="39" y="614" type="line"/>
      <point x="51" y="652"/>
      <point x="115" y="704"/>
      <point x="172" y="704" type="qcurve" smooth="yes"/>
      <point x="230" y="704"/>
      <point x="290" y="643"/>
      <point x="290" y="598" type="qcurve" smooth="yes"/>
      <point x="290" y="559"/>
      <point x="242" y="490"/>
      <point x="196" y="452" type="qcurve" smooth="yes"/>
      <point x="74" y="354" type="line"/>
      <point x="303" y="354" type="line"/>
      <point x="303" y="329" type="line"/>
    </contour>
  </outline>
</glyph>
<glyph name="u00B3" format="2">
  <advance width="347"/>
  <unicode hex="00B3"/>
  <outline>
    <contour>
      <point x="162" y="323" type="qcurve" smooth="yes"/>
      <point x="79" y="323"/>
      <point x="38" y="381" type="qcurve"/>
      <point x="60" y="398" type="line"/>
      <point x="77" y="375"/>
      <point x="122" y="348"/>
      <point x="162" y="348" type="qcurve" smooth="yes"/>
      <point x="210" y="348"/>
      <point x="259" y="391"/>
      <point x="259" y="429" type="qcurve" smooth="yes"/>
      <point x="259" y="435" type="line" smooth="yes"/>
      <point x="259" y="470"/>
      <point x="216" y="508"/>
      <point x="165" y="508" type="qcurve" smooth="yes"/>
      <point x="113" y="508" type="line"/>
      <point x="113" y="533" type="line"/>
      <point x="158" y="533" type="line" smooth="yes"/>
      <point x="252" y="533"/>
      <point x="252" y="606" type="qcurve" smooth="yes"/>
      <point x="252" y="611" type="line"/>
      <point x="251" y="679"/>
      <point x="167" y="679" type="qcurve" smooth="yes"/>
      <point x="130" y="679"/>
      <point x="86" y="655"/>
      <point x="71" y="633" type="qcurve"/>
      <point x="50" y="649" type="line"/>
      <point x="85" y="704"/>
      <point x="168" y="704" type="qcurve" smooth="yes"/>
      <point x="222" y="704"/>
      <point x="284" y="653"/>
      <point x="284" y="609" type="qcurve" smooth="yes"/>
      <point x="284" y="541"/>
      <point x="212" y="523" type="qcurve"/>
      <point x="212" y="520" type="line"/>
      <point x="291" y="508"/>
      <point x="291" y="431" type="qcurve" smooth="yes"/>
      <point x="291" y="381"/>
      <point x="223" y="323"/>
    </contour>
  </outline>
</glyph>
<glyph name="paragraph" format="2">
  <advance width="605"/>
  <unicode hex="00B6"/>
  <outline>
    <contour>
      <point x="410" y="-149" type="line"/>
      <point x="410" y="668" type="line"/>
      <point x="282" y="668" type="line"/>
      <point x="282" y="-149" type="line"/>
      <point x="249" y="-149" type="line"/>
      <point x="249" y="323" type="line"/>
      <point x="167" y="323"/>
      <point x="51" y="425"/>
      <point x="51" y="510" type="qcurve" smooth="yes"/>
      <point x="51" y="596"/>
      <point x="167" y="698"/>
      <point x="249" y="698" type="qcurve" smooth="yes"/>
      <point x="511" y="698" type="line"/>
      <point x="511" y="668" type="line"/>
      <point x="443" y="668" type="line"/>
      <point x="443" y="-149" type="line"/>
    </contour>
  </outline>
</glyph>
<glyph name="cedilla" format="2">
  <advance width="600"/>
  <unicode hex="00B8"/>
  <outline>
    <contour>
      <point x="310" y="-203" type="qcurve" smooth="yes"/>
      <point x="278" y="-203"/>
      <point x="234" y="-184"/>
      <point x="224" y="-169" type="qcurve"/>
      <point x="243" y="-149" type="line"/>
      <point x="264" y="-177"/>
      <point x="310" y="-177" type="qcurve" smooth="yes"/>
      <point x="335" y="-177"/>
      <point x="367" y="-153"/>
      <point x="367" y="-130" type="qcurve" smooth="yes"/>
      <point x="367" y="-89"/>
      <point x="304" y="-85" type="qcurve" smooth="yes"/>
      <point x="269" y="-83" type="line"/>
      <point x="290" y="7" type="line"/>
      <point x="315" y="7" type="line"/>
      <point x="297" y="-70" type="line"/>
      <point x="299" y="-72" type="line"/>
      <point x="318" y="-69"/>
      <point x="331" y="-69" type="qcurve"/>
      <point x="399" y="-73"/>
      <point x="399" y="-129" type="qcurve" smooth="yes"/>
      <point x="399" y="-161"/>
      <point x="350" y="-203"/>
    </contour>
  </outline>
</glyph>
<glyph name="onesuperior" format="2">
  <advance width="340"/>
  <unicode hex="00B9"/>
  <outline>
    <contour>
      <point x="213" y="329" type="line"/>
      <point x="183" y="329" type="line"/>
      <point x="183" y="672" type="line"/>
      <point x="103" y="631" type="line"/>
      <point x="103" y="659" type="line"/>
      <point x="179" y="698" type="line"/>
      <point x="213" y="698" type="line"/>
    </contour>
  </outline>
</glyph>
<glyph name="onequarter" format="2">
  <advance width="801"/>
  <unicode hex="00BC"/>
  <outline>
    <contour>
      <point x="682" y="109" type="line"/>
      <point x="682" y="341" type="line"/>
      <point x="679" y="341" type="line"/>
      <point x="503" y="109" type="line"/>
    </contour>
    <contour>
      <point x="711" y="0" type="line"/>
      <point x="682" y="0" type="line"/>
      <point x="682" y="85" type="line"/>
      <point x="475" y="85" type="line"/>
      <point x="475" y="112" type="line"/>
      <point x="670" y="369" type="line"/>
      <point x="711" y="369" type="line"/>
      <point x="711" y="109" type="line"/>
      <point x="775" y="109" type="line"/>
      <point x="775" y="85" type="line"/>
      <point x="711" y="85" type="line"/>
    </contour>
    <contour>
      <point x="193" y="0" type="line"/>
      <point x="161" y="0" type="line"/>
      <point x="617" y="698" type="line"/>
      <point x="650" y="698" type="line"/>
    </contour>
    <contour>
      <point x="213" y="329" type="line"/>
      <point x="183" y="329" type="line"/>
      <point x="183" y="672" type="line"/>
      <point x="103" y="631" type="line"/>
      <point x="103" y="659" type="line"/>
      <point x="179" y="698" type="line"/>
      <point x="213" y="698" type="line"/>
    </contour>
  </outline>
</glyph>
<glyph name="onehalf" format="2">
  <advance width="827"/>
  <unicode hex="00BD"/>
  <outline>
    <contour>
      <point x="193" y="0" type="line"/>
      <point x="161" y="0" type="line"/>
      <point x="617" y="698" type="line"/>
      <point x="650" y="698" type="line"/>
    </contour>
    <contour>
      <point x="213" y="329" type="line"/>
      <point x="183" y="329" type="line"/>
      <point x="183" y="672" type="line"/>
      <point x="103" y="631" type="line"/>
      <point x="103" y="659" type="line"/>
      <point x="179" y="698" type="line"/>
      <point x="213" y="698" type="line"/>
    </contour>
    <contour>
      <point x="785" y="0" type="line"/>
      <point x="525" y="0" type="line"/>
      <point x="525" y="29" type="line"/>
      <point x="662" y="141" type="line" smooth="yes"/>
      <point x="740" y="205"/>
      <point x="740" y="262" type="qcurve" smooth="yes"/>
      <point x="740" y="271" type="line" smooth="yes"/>
      <point x="740" y="306"/>
      <point x="697" y="350"/>
      <point x="653" y="350" type="qcurve" smooth="yes"/>
      <point x="573" y="350"/>
      <point x="547" y="276" type="qcurve"/>
      <point x="521" y="285" type="line"/>
      <point x="533" y="323"/>
      <point x="598" y="375"/>
      <point x="654" y="375" type="qcurve" smooth="yes"/>
      <point x="712" y="375"/>
      <point x="772" y="313"/>
      <point x="772" y="269" type="qcurve" smooth="yes"/>
      <point x="772" y="230"/>
      <point x="724" y="160"/>
      <point x="678" y="123" type="qcurve" smooth="yes"/>
      <point x="556" y="25" type="line"/>
      <point x="785" y="25" type="line"/>
    </contour>
  </outline>
</glyph>
<glyph name="Agrave" format="2">
  <advance width="610"/>
  <unicode hex="00C0"/>
  <outline>
    <contour>
      <point x="202" y="918" type="line"/>
      <point x="234" y="935" type="line"/>
      <point x="339" y="777" type="line"/>
      <point x="315" y="764" type="line"/>
    </contour>
    <contour>
      <point x="541" y="0" type="line"/>
      <point x="460" y="227" type="line"/>
      <point x="149" y="227" type="line"/>
      <point x="68" y="0" type="line"/>
      <point x="30" y="0" type="line"/>
      <point x="281" y="698" type="line"/>
      <point x="329" y="698" type="line"/>
      <point x="580" y="0" type="line"/>
    </contour>
    <contour>
      <point x="306" y="662" type="line"/>
      <point x="302" y="662" type="line"/>
      <point x="159" y="259" type="line"/>
      <point x="450" y="259" type="line"/>
    </contour>
  </outline>
</glyph>
<glyph name="Acircumflex" format="2">
  <advance width="610"/>
  <unicode hex="00C2"/>
  <outline>
    <contour>
      <point x="306" y="662" type="line"/>
      <point x="302" y="662" type="line"/>
      <point x="159" y="259" type="line"/>
      <point x="450" y="259" type="line"/>
    </contour>
    <contour>
      <point x="541" y="0" type="line"/>
      <point x="460" y="227" type="line"/>
      <point x="149" y="227" type="line"/>
      <point x="68" y="0" type="line"/>
      <point x="30" y="0" type="line"/>
      <point x="281" y="698" type="line"/>
      <point x="329" y="698" type="line"/>
      <point x="580" y="0" type="line"/>
    </contour>
    <contour>
      <point x="304" y="899" type="line"/>
      <point x="180" y="775" type="line"/>
      <point x="159" y="790" type="line"/>
      <point x="283" y="926" type="line"/>
      <point x="325" y="926" type="line"/>
      <point x="449" y="790" type="line"/>
      <point x="428" y="775" type="line"/>
    </contour>
  </outline>
</glyph>
<glyph name="AE" format="2">
  <advance width="872"/>
  <unicode hex="00C6"/>
  <outline>
    <contour>
      <point x="410" y="665" type="line"/>
      <point x="399" y="665" type="line"/>
      <point x="180" y="259" type="line"/>
      <point x="410" y="259" type="line"/>
    </contour>
    <contour>
      <point x="410" y="0" type="line"/>
      <point x="410" y="227" type="line"/>
      <point x="164" y="227" type="line"/>
      <point x="41" y="0" type="line"/>
      <point x="2" y="0" type="line"/>
      <point x="379" y="698" type="line"/>
      <point x="802" y="698" type="line"/>
      <point x="802" y="665" type="line"/>
      <point x="447" y="665" type="line"/>
      <point x="447" y="371" type="line"/>
      <point x="788" y="371" type="line"/>
      <point x="788" y="338" type="line"/>
      <point x="447" y="338" type="line"/>
      <point x="447" y="33" type="line"/>
      <point x="802" y="33" type="line"/>
      <point x="802" y="0" type="line"/>
    </contour>
  </outline>
</glyph>
<glyph name="Eacute" format="2">
  <advance width="566"/>
  <unicode hex="00C9"/>
  <outline>
    <contour>
      <point x="264" y="777" type="line"/>
      <point x="369" y="935" type="line"/>
      <point x="401" y="918" type="line"/>
      <point x="288" y="764" type="line"/>
    </contour>
    <contour>
      <point x="104" y="0" type="line"/>
      <point x="104" y="698" type="line"/>
      <point x="496" y="698" type="line"/>
      <point x="496" y="665" type="line"/>
      <point x="141" y="665" type="line"/>
      <point x="141" y="371" type="line"/>
      <point x="482" y="371" type="line"/>
      <point x="482" y="338" type="line"/>
      <point x="141" y="338" type="line"/>
      <point x="141" y="33" type="line"/>
      <point x="496" y="33" type="line"/>
      <point x="496" y="0" type="line"/>
    </contour>
  </outline>
</glyph>
<glyph name="Edieresis" format="2">
  <advance width="566"/>
  <unicode hex="00CB"/>
  <outline>
    <contour>
      <point x="209" y="812" type="qcurve" smooth="yes"/>
      <point x="179" y="812"/>
      <point x="179" y="839" type="qcurve" smooth="yes"/>
      <point x="179" y="847" type="line" smooth="yes"/>
      <point x="179" y="874"/>
      <point x="209" y="874" type="qcurve" smooth="yes"/>
      <point x="238" y="874"/>
      <point x="238" y="847" type="qcurve" smooth="yes"/>
      <point x="238" y="839" type="line" smooth="yes"/>
      <point x="238" y="812"/>
    </contour>
    <contour>
      <point x="391" y="812" type="qcurve" smooth="yes"/>
      <point x="362" y="812"/>
      <point x="362" y="839" type="qcurve" smooth="yes"/>
      <point x="362" y="847" type="line" smooth="yes"/>
      <point x="362" y="874"/>
      <point x="391" y="874" type="qcurve" smooth="yes"/>
      <point x="421" y="874"/>
      <point x="421" y="847" type="qcurve" smooth="yes"/>
      <point x="421" y="839" type="line" smooth="yes"/>
      <point x="421" y="812"/>
    </contour>
    <contour>
      <point x="104" y="0" type="line"/>
      <point x="104" y="698" type="line"/>
      <point x="496" y="698" type="line"/>
      <point x="496" y="665" type="line"/>
      <point x="141" y="665" type="line"/>
      <point x="141" y="371" type="line"/>
      <point x="482" y="371" type="line"/>
      <point x="482" y="338" type="line"/>
      <point x="141" y="338" type="line"/>
      <point x="141" y="33" type="line"/>
      <point x="496" y="33" type="line"/>
      <point x="496" y="0" type="line"/>
    </contour>
  </outline>
</glyph>
<glyph name="Igrave" format="2">
  <advance width="245"/>
  <unicode hex="00CC"/>
  <outline>
    <contour>
      <point x="104" y="0" type="line"/>
      <point x="104" y="698" type="line"/>
      <point x="141" y="698" type="line"/>
      <point x="141" y="0" type="line"/>
    </contour>
    <contour>
      <point x="21" y="918" type="line"/>
      <point x="53" y="935" type="line"/>
      <point x="158" y="777" type="line"/>
      <point x="134" y="764" type="line"/>
    </contour>
  </outline>
</glyph>
<glyph name="Iacute" format="2">
  <advance width="245"/>
  <unicode hex="00CD"/>
  <outline>
    <contour>
      <point x="87" y="777" type="line"/>
      <point x="192" y="935" type="line"/>
      <point x="224" y="918" type="line"/>
      <point x="111" y="764" type="line"/>
    </contour>
    <contour>
      <point x="104" y="0" type="line"/>
      <point x="104" y="698" type="line"/>
      <point x="141" y="698" type="line"/>
      <point x="141" y="0" type="line"/>
    </contour>
  </outline>
</glyph>
<glyph name="Idieresis" format="2">
  <advance width="245"/>
  <unicode hex="00CF"/>
  <outline>
    <contour>
      <point x="104" y="0" type="line"/>
      <point x="104" y="698" type="line"/>
      <point x="141" y="698" type="line"/>
      <point x="141" y="0" type="line"/>
    </contour>
    <contour>
      <point x="32" y="812" type="qcurve" smooth="yes"/>
      <point x="2" y="812"/>
      <point x="2" y="839" type="qcurve" smooth="yes"/>
      <point x="2" y="847" type="line" smooth="yes"/>
      <point x="2" y="874"/>
      <point x="32" y="874" type="qcurve" smooth="yes"/>
      <point x="61" y="874"/>
      <point x="61" y="847" type="qcurve" smooth="yes"/>
      <point x="61" y="839" type="line" smooth="yes"/>
      <point x="61" y="812"/>
    </contour>
    <contour>
      <point x="214" y="812" type="qcurve" smooth="yes"/>
      <point x="185" y="812"/>
      <point x="185" y="839" type="qcurve" smooth="yes"/>
      <point x="185" y="847" type="line" smooth="yes"/>
      <point x="185" y="874"/>
      <point x="214" y="874" type="qcurve" smooth="yes"/>
      <point x="244" y="874"/>
      <point x="244" y="847" type="qcurve" smooth="yes"/>
      <point x="244" y="839" type="line" smooth="yes"/>
      <point x="244" y="812"/>
    </contour>
  </outline>
</glyph>
<glyph name="Udieresis" format="2">
  <advance width="658"/>
  <unicode hex="00DC"/>
  <outline>
    <contour>
      <point x="328" y="-12" type="qcurve" smooth="yes"/>
      <point x="198" y="-12"/>
      <point x="97" y="120"/>
      <point x="97" y="274" type="qcurve" smooth="yes"/>
      <point x="97" y="698" type="line"/>
      <point x="134" y="698" type="line"/>
      <point x="134" y="268" type="line" smooth="yes"/>
      <point x="134" y="202"/>
      <point x="153" y="108"/>
      <point x="176" y="78" type="qcurve"/>
      <point x="217" y="21"/>
      <point x="329" y="21" type="qcurve" smooth="yes"/>
      <point x="439" y="21"/>
      <point x="482" y="78" type="qcurve" smooth="yes"/>
      <point x="505" y="108"/>
      <point x="524" y="202"/>
      <point x="524" y="268" type="qcurve" smooth="yes"/>
      <point x="524" y="698" type="line"/>
      <point x="561" y="698" type="line"/>
      <point x="561" y="274" type="line" smooth="yes"/>
      <point x="561" y="120"/>
      <point x="459" y="-12"/>
    </contour>
    <contour>
      <point x="237" y="812" type="qcurve" smooth="yes"/>
      <point x="207" y="812"/>
      <point x="207" y="839" type="qcurve" smooth="yes"/>
      <point x="207" y="847" type="line" smooth="yes"/>
      <point x="207" y="874"/>
      <point x="237" y="874" type="qcurve" smooth="yes"/>
      <point x="266" y="874"/>
      <point x="266" y="847" type="qcurve" smooth="yes"/>
      <point x="266" y="839" type="line" smooth="yes"/>
      <point x="266" y="812"/>
    </contour>
    <contour>
      <point x="419" y="812" type="qcurve" smooth="yes"/>
      <point x="390" y="812"/>
      <point x="390" y="839" type="qcurve" smooth="yes"/>
      <point x="390" y="847" type="line" smooth="yes"/>
      <point x="390" y="874"/>
      <point x="419" y="874" type="qcurve" smooth="yes"/>
      <point x="449" y="874"/>
      <point x="449" y="847" type="qcurve" smooth="yes"/>
      <point x="449" y="839" type="line" smooth="yes"/>
      <point x="449" y="812"/>
    </contour>
  </outline>
</glyph>
<glyph name="agrave" format="2">
  <advance width="522"/>
  <unicode hex="00E0"/>
  <outline>
    <contour>
      <point x="225" y="19" type="qcurve" smooth="yes"/>
      <point x="291" y="19"/>
      <point x="387" y="86"/>
      <point x="387" y="148" type="qcurve" smooth="yes"/>
      <point x="387" y="252" type="line"/>
      <point x="254" y="252" type="line" smooth="yes"/>
      <point x="170" y="252"/>
      <point x="94" y="195"/>
      <point x="94" y="148" type="qcurve" smooth="yes"/>
      <point x="94" y="120" type="line" smooth="yes"/>
      <point x="94" y="70"/>
      <point x="167" y="19"/>
    </contour>
    <contour>
      <point x="222" y="-12" type="qcurve" smooth="yes"/>
      <point x="143" y="-12"/>
      <point x="57" y="64"/>
      <point x="57" y="133" type="qcurve" smooth="yes"/>
      <point x="57" y="203"/>
      <point x="101" y="240" type="qcurve"/>
      <point x="145" y="280"/>
      <point x="254" y="280" type="qcurve" smooth="yes"/>
      <point x="387" y="280" type="line"/>
      <point x="387" y="348" type="line" smooth="yes"/>
      <point x="387" y="489"/>
      <point x="254" y="489" type="qcurve" smooth="yes"/>
      <point x="248" y="489" type="line" smooth="yes"/>
      <point x="142" y="489"/>
      <point x="100" y="399" type="qcurve"/>
      <point x="75" y="416" type="line"/>
      <point x="118" y="520"/>
      <point x="249" y="520" type="qcurve" smooth="yes"/>
      <point x="419" y="520"/>
      <point x="422" y="352" type="qcurve"/>
      <point x="422" y="0" type="line"/>
      <point x="388" y="0" type="line"/>
      <point x="388" y="79" type="line"/>
      <point x="384" y="79" type="line"/>
      <point x="343" y="-12"/>
    </contour>
    <contour>
      <point x="262" y="587" type="line"/>
      <point x="149" y="740" type="line"/>
      <point x="181" y="758" type="line"/>
      <point x="286" y="600" type="line"/>
    </contour>
  </outline>
</glyph>
<glyph name="atilde" format="2">
  <advance width="522"/>
  <unicode hex="00E3"/>
  <outline>
    <contour>
      <point x="225" y="19" type="qcurve" smooth="yes"/>
      <point x="291" y="19"/>
      <point x="387" y="86"/>
      <point x="387" y="148" type="qcurve" smooth="yes"/>
      <point x="387" y="252" type="line"/>
      <point x="254" y="252" type="line" smooth="yes"/>
      <point x="170" y="252"/>
      <point x="94" y="195"/>
      <point x="94" y="148" type="qcurve" smooth="yes"/>
      <point x="94" y="120" type="line" smooth="yes"/>
      <point x="94" y="70"/>
      <point x="167" y="19"/>
    </contour>
    <contour>
      <point x="222" y="-12" type="qcurve" smooth="yes"/>
      <point x="143" y="-12"/>
      <point x="57" y="64"/>
      <point x="57" y="133" type="qcurve" smooth="yes"/>
      <point x="57" y="203"/>
      <point x="101" y="240" type="qcurve"/>
      <point x="145" y="280"/>
      <point x="254" y="280" type="qcurve" smooth="yes"/>
      <point x="387" y="280" type="line"/>
      <point x="387" y="348" type="line" smooth="yes"/>
      <point x="387" y="489"/>
      <point x="254" y="489" type="qcurve" smooth="yes"/>
      <point x="248" y="489" type="line" smooth="yes"/>
      <point x="142" y="489"/>
      <point x="100" y="399" type="qcurve"/>
      <point x="75" y="416" type="line"/>
      <point x="118" y="520"/>
      <point x="249" y="520" type="qcurve" smooth="yes"/>
      <point x="419" y="520"/>
      <point x="422" y="352" type="qcurve"/>
      <point x="422" y="0" type="line"/>
      <point x="388" y="0" type="line"/>
      <point x="388" y="79" type="line"/>
      <point x="384" y="79" type="line"/>
      <point x="343" y="-12"/>
    </contour>
    <contour>
      <point x="322" y="624" type="qcurve" smooth="yes"/>
      <point x="285" y="624"/>
      <point x="245" y="653" type="qcurve"/>
      <point x="222" y="667"/>
      <point x="192" y="679"/>
      <point x="178" y="679" type="qcurve" smooth="yes"/>
      <point x="142" y="679"/>
      <point x="114" y="647" type="qcurve"/>
      <point x="97" y="666" type="line"/>
      <point x="134" y="708"/>
      <point x="180" y="708" type="qcurve" smooth="yes"/>
      <point x="218" y="708"/>
      <point x="257" y="679" type="qcurve"/>
      <point x="280" y="665"/>
      <point x="310" y="653"/>
      <point x="324" y="653" type="qcurve" smooth="yes"/>
      <point x="360" y="653"/>
      <point x="388" y="685" type="qcurve"/>
      <point x="405" y="666" type="line"/>
      <point x="369" y="624"/>
    </contour>
  </outline>
</glyph>
<glyph name="eth" format="2">
  <advance width="548"/>
  <unicode hex="00F0"/>
  <outline>
    <contour>
      <point x="271" y="-12" type="qcurve" smooth="yes"/>
      <point x="175" y="-12"/>
      <point x="57" y="127"/>
      <point x="57" y="248" type="qcurve" smooth="yes"/>
      <point x="57" y="367"/>
      <point x="175" y="501"/>
      <point x="271" y="501" type="qcurve" smooth="yes"/>
      <point x="373" y="501"/>
      <point x="426" y="416" type="qcurve"/>
      <point x="429" y="418" type="line"/>
      <point x="378" y="553"/>
      <point x="282" y="642" type="qcurve"/>
      <point x="181" y="569" type="line"/>
      <point x="166" y="589" type="line"/>
      <point x="263" y="659" type="line"/>
      <point x="213" y="703"/>
      <point x="145" y="740" type="qcurve"/>
      <point x="202" y="740" type="line"/>
      <point x="242" y="716"/>
      <point x="287" y="677" type="qcurve"/>
      <point x="392" y="752" type="line"/>
      <point x="407" y="732" type="line"/>
      <point x="306" y="659" type="line"/>
      <point x="379" y="592"/>
      <point x="431" y="488" type="qcurve" smooth="yes"/>
      <point x="486" y="374"/>
      <point x="486" y="253" type="qcurve" smooth="yes"/>
      <point x="486" y="126"/>
      <point x="367" y="-12"/>
    </contour>
    <contour>
      <point x="271" y="19" type="qcurve" smooth="yes"/>
      <point x="349" y="19"/>
      <point x="448" y="126"/>
      <point x="448" y="217" type="qcurve" smooth="yes"/>
      <point x="448" y="272" type="line" smooth="yes"/>
      <point x="448" y="364"/>
      <point x="349" y="470"/>
      <point x="271" y="470" type="qcurve" smooth="yes"/>
      <point x="193" y="470"/>
      <point x="95" y="364"/>
      <point x="95" y="272" type="qcurve" smooth="yes"/>
      <point x="95" y="217" type="line" smooth="yes"/>
      <point x="95" y="126"/>
      <point x="193" y="19"/>
    </contour>
  </outline>
</glyph>
<glyph name="ograve" format="2">
  <advance width="544"/>
  <unicode hex="00F2"/>
  <outline>
    <contour>
      <point x="272" y="19" type="qcurve" smooth="yes"/>
      <point x="357" y="19"/>
      <point x="449" y="130"/>
      <point x="449" y="227" type="qcurve" smooth="yes"/>
      <point x="449" y="281" type="line" smooth="yes"/>
      <point x="449" y="379"/>
      <point x="357" y="489"/>
      <point x="272" y="489" type="qcurve" smooth="yes"/>
      <point x="187" y="489"/>
      <point x="95" y="379"/>
      <point x="95" y="281" type="qcurve" smooth="yes"/>
      <point x="95" y="227" type="line" smooth="yes"/>
      <point x="95" y="130"/>
      <point x="187" y="19"/>
    </contour>
    <contour>
      <point x="272" y="-12" type="qcurve" smooth="yes"/>
      <point x="172" y="-12"/>
      <point x="57" y="124"/>
      <point x="57" y="254" type="qcurve" smooth="yes"/>
      <point x="57" y="385"/>
      <point x="172" y="520"/>
      <point x="272" y="520" type="qcurve" smooth="yes"/>
      <point x="372" y="520"/>
      <point x="487" y="385"/>
      <point x="487" y="254" type="qcurve" smooth="yes"/>
      <point x="487" y="124"/>
      <point x="372" y="-12"/>
    </contour>
    <contour>
      <point x="171" y="740" type="line"/>
      <point x="203" y="758" type="line"/>
      <point x="308" y="600" type="line"/>
      <point x="284" y="587" type="line"/>
    </contour>
  </outline>
</glyph>
<glyph name="ocircumflex" format="2">
  <advance width="544"/>
  <unicode hex="00F4"/>
  <outline>
    <contour>
      <point x="272" y="19" type="qcurve" smooth="yes"/>
      <point x="357" y="19"/>
      <point x="449" y="130"/>
      <point x="449" y="227" type="qcurve" smooth="yes"/>
      <point x="449" y="281" type="line" smooth="yes"/>
      <point x="449" y="379"/>
      <point x="357" y="489"/>
      <point x="272" y="489" type="qcurve" smooth="yes"/>
      <point x="187" y="489"/>
      <point x="95" y="379"/>
      <point x="95" y="281" type="qcurve" smooth="yes"/>
      <point x="95" y="227" type="line" smooth="yes"/>
      <point x="95" y="130"/>
      <point x="187" y="19"/>
    </contour>
    <contour>
      <point x="272" y="-12" type="qcurve" smooth="yes"/>
      <point x="172" y="-12"/>
      <point x="57" y="124"/>
      <point x="57" y="254" type="qcurve" smooth="yes"/>
      <point x="57" y="385"/>
      <point x="172" y="520"/>
      <point x="272" y="520" type="qcurve" smooth="yes"/>
      <point x="372" y="520"/>
      <point x="487" y="385"/>
      <point x="487" y="254" type="qcurve" smooth="yes"/>
      <point x="487" y="124"/>
      <point x="372" y="-12"/>
    </contour>
    <contour>
      <point x="273" y="722" type="line"/>
      <point x="149" y="597" type="line"/>
      <point x="128" y="613" type="line"/>
      <point x="252" y="748" type="line"/>
      <point x="294" y="748" type="line"/>
      <point x="418" y="613" type="line"/>
      <point x="397" y="597" type="line"/>
    </contour>
  </outline>
</glyph>
<glyph name="oslash" format="2">
  <advance width="544"/>
  <unicode hex="00F8"/>
  <outline>
    <contour>
      <point x="272" y="19" type="qcurve" smooth="yes"/>
      <point x="357" y="19"/>
      <point x="449" y="130"/>
      <point x="449" y="227" type="qcurve" smooth="yes"/>
      <point x="449" y="281" type="line" smooth="yes"/>
      <point x="449" y="362"/>
      <point x="416" y="415" type="qcurve"/>
      <point x="141" y="75" type="line"/>
      <point x="188" y="19"/>
    </contour>
    <contour>
      <point x="400" y="436" type="line"/>
      <point x="355" y="489"/>
      <point x="272" y="489" type="qcurve" smooth="yes"/>
      <point x="187" y="489"/>
      <point x="95" y="379"/>
      <point x="95" y="281" type="qcurve" smooth="yes"/>
      <point x="95" y="227" type="line" smooth="yes"/>
      <point x="95" y="149"/>
      <point x="125" y="97" type="qcurve"/>
    </contour>
    <contour>
      <point x="36" y="-13" type="line"/>
      <point x="104" y="71" type="line"/>
      <point x="57" y="139"/>
      <point x="57" y="254" type="qcurve" smooth="yes"/>
      <point x="57" y="385"/>
      <point x="172" y="520"/>
      <point x="272" y="520" type="qcurve" smooth="yes"/>
      <point x="365" y="520"/>
      <point x="421" y="462" type="qcurve"/>
      <point x="488" y="545" type="line"/>
      <point x="509" y="529" type="line"/>
      <point x="438" y="441" type="line"/>
      <point x="487" y="374"/>
      <point x="487" y="254" type="qcurve" smooth="yes"/>
      <point x="487" y="124"/>
      <point x="372" y="-12"/>
      <point x="272" y="-12" type="qcurve" smooth="yes"/>
      <point x="175" y="-12"/>
      <point x="121" y="50" type="qcurve"/>
      <point x="57" y="-29" type="line"/>
    </contour>
  </outline>
</glyph>
<glyph name="udieresis" format="2">
  <advance width="559"/>
  <unicode hex="00FC"/>
  <outline>
    <contour>
      <point x="265" y="-12" type="qcurve"/>
      <point x="91" y="-8"/>
      <point x="91" y="182" type="qcurve" smooth="yes"/>
      <point x="91" y="508" type="line"/>
      <point x="126" y="508" type="line"/>
      <point x="126" y="188" type="line" smooth="yes"/>
      <point x="126" y="19"/>
      <point x="273" y="19" type="qcurve" smooth="yes"/>
      <point x="332" y="19"/>
      <point x="424" y="82"/>
      <point x="424" y="148" type="qcurve" smooth="yes"/>
      <point x="424" y="508" type="line"/>
      <point x="459" y="508" type="line"/>
      <point x="459" y="0" type="line"/>
      <point x="424" y="0" type="line"/>
      <point x="424" y="78" type="line"/>
      <point x="420" y="78" type="line"/>
      <point x="406" y="42"/>
      <point x="333" y="-12"/>
    </contour>
    <contour>
      <point x="185" y="636" type="qcurve" smooth="yes"/>
      <point x="155" y="636"/>
      <point x="155" y="663" type="qcurve" smooth="yes"/>
      <point x="155" y="671" type="line" smooth="yes"/>
      <point x="155" y="698"/>
      <point x="185" y="698" type="qcurve" smooth="yes"/>
      <point x="214" y="698"/>
      <point x="214" y="671" type="qcurve" smooth="yes"/>
      <point x="214" y="663" type="line" smooth="yes"/>
      <point x="214" y="636"/>
    </contour>
    <contour>
      <point x="367" y="636" type="qcurve" smooth="yes"/>
      <point x="338" y="636"/>
      <point x="338" y="663" type="qcurve" smooth="yes"/>
      <point x="338" y="671" type="line" smooth="yes"/>
      <point x="338" y="698"/>
      <point x="367" y="698" type="qcurve" smooth="yes"/>
      <point x="397" y="698"/>
      <point x="397" y="671" type="qcurve" smooth="yes"/>
      <point x="397" y="663" type="line" smooth="yes"/>
      <point x="397" y="636"/>
    </contour>
  </outline>
</glyph>
<glyph name="Amacron" format="2">
  <advance width="610"/>
  <unicode hex="0100"/>
  <outline>
    <contour>
      <point x="306" y="662" type="line"/>
      <point x="302" y="662" type="line"/>
      <point x="159" y="259" type="line"/>
      <point x="450" y="259" type="line"/>
    </contour>
    <contour>
      <point x="541" y="0" type="line"/>
      <point x="460" y="227" type="line"/>
      <point x="149" y="227" type="line"/>
      <point x="68" y="0" type="line"/>
      <point x="30" y="0" type="line"/>
      <point x="281" y="698" type="line"/>
      <point x="329" y="698" type="line"/>
      <point x="580" y="0" type="line"/>
    </contour>
    <contour>
      <point x="172" y="831" type="line"/>
      <point x="172" y="861" type="line"/>
      <point x="436" y="861" type="line"/>
      <point x="436" y="831" type="line"/>
    </contour>
  </outline>
</glyph>
<glyph name="Cdot" format="2">
  <advance width="613"/>
  <unicode hex="010A"/>
  <outline>
    <contour>
      <point x="331" y="812" type="qcurve" smooth="yes"/>
      <point x="300" y="812"/>
      <point x="300" y="841" type="qcurve" smooth="yes"/>
      <point x="300" y="849" type="line" smooth="yes"/>
      <point x="300" y="878"/>
      <point x="331" y="878" type="qcurve" smooth="yes"/>
      <point x="362" y="878"/>
      <point x="362" y="849" type="qcurve" smooth="yes"/>
      <point x="362" y="841" type="line" smooth="yes"/>
      <point x="362" y="812"/>
    </contour>
    <contour>
      <point x="331" y="-12" type="qcurve" smooth="yes"/>
      <point x="205" y="-12"/>
      <point x="67" y="168"/>
      <point x="67" y="348" type="qcurve" smooth="yes"/>
      <point x="67" y="528"/>
      <point x="205" y="710"/>
      <point x="331" y="710" type="qcurve" smooth="yes"/>
      <point x="411" y="710"/>
      <point x="524" y="632"/>
      <point x="553" y="565" type="qcurve"/>
      <point x="522" y="548" type="line"/>
      <point x="496" y="609"/>
      <point x="399" y="677"/>
      <point x="331" y="677" type="qcurve" smooth="yes"/>
      <point x="226" y="677"/>
      <point x="107" y="525"/>
      <point x="107" y="376" type="qcurve" smooth="yes"/>
      <point x="107" y="320" type="line" smooth="yes"/>
      <point x="107" y="171"/>
      <point x="226" y="21"/>
      <point x="331" y="21" type="qcurve" smooth="yes"/>
      <point x="404" y="21"/>
      <point x="503" y="94"/>
      <point x="528" y="158" type="qcurve"/>
      <point x="558" y="142" type="line"/>
      <point x="529" y="71"/>
      <point x="414" y="-12"/>
    </contour>
  </outline>
</glyph>
<glyph name="Ccaron" format="2">
  <advance width="613"/>
  <unicode hex="010C"/>
  <outline>
    <contour>
      <point x="331" y="-12" type="qcurve" smooth="yes"/>
      <point x="205" y="-12"/>
      <point x="67" y="168"/>
      <point x="67" y="348" type="qcurve" smooth="yes"/>
      <point x="67" y="528"/>
      <point x="205" y="710"/>
      <point x="331" y="710" type="qcurve" smooth="yes"/>
      <point x="411" y="710"/>
      <point x="524" y="632"/>
      <point x="553" y="565" type="qcurve"/>
      <point x="522" y="548" type="line"/>
      <point x="496" y="609"/>
      <point x="399" y="677"/>
      <point x="331" y="677" type="qcurve" smooth="yes"/>
      <point x="226" y="677"/>
      <point x="107" y="525"/>
      <point x="107" y="376" type="qcurve" smooth="yes"/>
      <point x="107" y="320" type="line" smooth="yes"/>
      <point x="107" y="171"/>
      <point x="226" y="21"/>
      <point x="331" y="21" type="qcurve" smooth="yes"/>
      <point x="404" y="21"/>
      <point x="503" y="94"/>
      <point x="528" y="158" type="qcurve"/>
      <point x="558" y="142" type="line"/>
      <point x="529" y="71"/>
      <point x="414" y="-12"/>
    </contour>
    <contour>
      <point x="310" y="780" type="line"/>
      <point x="186" y="915" type="line"/>
      <point x="207" y="931" type="line"/>
      <point x="331" y="806" type="line"/>
      <point x="455" y="931" type="line"/>
      <point x="476" y="915" type="line"/>
      <point x="352" y="780" type="line"/>
    </contour>
  </outline>
</glyph>
<glyph name="Ebreve" format="2">
  <advance width="566"/>
  <unicode hex="0114"/>
  <outline>
    <contour>
      <point x="300" y="781" type="qcurve" smooth="yes"/>
      <point x="247" y="781"/>
      <point x="186" y="846"/>
      <point x="163" y="900" type="qcurve"/>
      <point x="186" y="911" type="line"/>
      <point x="203" y="882" type="line"/>
      <point x="225" y="841"/>
      <point x="266" y="811"/>
      <point x="300" y="811" type="qcurve" smooth="yes"/>
      <point x="334" y="811"/>
      <point x="375" y="841"/>
      <point x="397" y="882" type="qcurve"/>
      <point x="414" y="911" type="line"/>
      <point x="437" y="900" type="line"/>
      <point x="399" y="812"/>
      <point x="350" y="790" type="qcurve" smooth="yes"/>
      <point x="329" y="781"/>
    </contour>
    <contour>
      <point x="104" y="0" type="line"/>
      <point x="104" y="698" type="line"/>
      <point x="496" y="698" type="line"/>
      <point x="496" y="665" type="line"/>
      <point x="141" y="665" type="line"/>
      <point x="141" y="371" type="line"/>
      <point x="482" y="371" type="line"/>
      <point x="482" y="338" type="line"/>
      <point x="141" y="338" type="line"/>
      <point x="141" y="33" type="line"/>
      <point x="496" y="33" type="line"/>
      <point x="496" y="0" type="line"/>
    </contour>
  </outline>
</glyph>
<glyph name="Edot" format="2">
  <advance width="566"/>
  <unicode hex="0116"/>
  <outline>
    <contour>
      <point x="300" y="812" type="qcurve" smooth="yes"/>
      <point x="269" y="812"/>
      <point x="269" y="841" type="qcurve" smooth="yes"/>
      <point x="269" y="849" type="line" smooth="yes"/>
      <point x="269" y="878"/>
      <point x="300" y="878" type="qcurve" smooth="yes"/>
      <point x="331" y="878"/>
      <point x="331" y="849" type="qcurve" smooth="yes"/>
      <point x="331" y="841" type="line" smooth="yes"/>
      <point x="331" y="812"/>
    </contour>
    <contour>
      <point x="104" y="0" type="line"/>
      <point x="104" y="698" type="line"/>
      <point x="496" y="698" type="line"/>
      <point x="496" y="665" type="line"/>
      <point x="141" y="665" type="line"/>
      <point x="141" y="371" type="line"/>
      <point x="482" y="371" type="line"/>
      <point x="482" y="338" type="line"/>
      <point x="141" y="338" type="line"/>
      <point x="141" y="33" type="line"/>
      <point x="496" y="33" type="line"/>
      <point x="496" y="0" type="line"/>
    </contour>
  </outline>
</glyph>
<glyph name="hcircumflex" format="2">
  <advance width="559"/>
  <unicode hex="0125"/>
  <outline>
    <contour>
      <point x="119" y="880" type="line"/>
      <point x="-5" y="755" type="line"/>
      <point x="-26" y="771" type="line"/>
      <point x="98" y="906" type="line"/>
      <point x="140" y="906" type="line"/>
      <point x="264" y="771" type="line"/>
      <point x="243" y="755" type="line"/>
    </contour>
    <contour>
      <point x="432" y="0" type="line"/>
      <point x="432" y="320" type="line" smooth="yes"/>
      <point x="432" y="489"/>
      <point x="286" y="489" type="qcurve" smooth="yes"/>
      <point x="228" y="489"/>
      <point x="135" y="426"/>
      <point x="135" y="361" type="qcurve" smooth="yes"/>
      <point x="135" y="0" type="line"/>
      <point x="100" y="0" type="line"/>
      <point x="100" y="740" type="line"/>
      <point x="135" y="740" type="line"/>
      <point x="135" y="430" type="line"/>
      <point x="138" y="430" type="line"/>
      <point x="153" y="468"/>
      <point x="228" y="520"/>
      <point x="294" y="520" type="qcurve" smooth="yes"/>
      <point x="467" y="517"/>
      <point x="467" y="326" type="qcurve" smooth="yes"/>
      <point x="467" y="0" type="line"/>
    </contour>
  </outline>
</glyph>
<glyph name="Hbar" format="2">
  <advance width="701"/>
  <unicode hex="0126"/>
  <outline>
    <contour>
      <point x="557" y="0" type="line"/>
      <point x="557" y="338" type="line"/>
      <point x="144" y="338" type="line"/>
      <point x="144" y="0" type="line"/>
      <point x="107" y="0" type="line"/>
      <point x="107" y="532" type="line"/>
      <point x="28" y="532" type="line"/>
      <point x="28" y="562" type="line"/>
      <point x="107" y="562" type="line"/>
      <point x="107" y="698" type="line"/>
      <point x="144" y="698" type="line"/>
      <point x="144" y="562" type="line"/>
      <point x="557" y="562" type="line"/>
      <point x="557" y="698" type="line"/>
      <point x="594" y="698" type="line"/>
      <point x="594" y="562" type="line"/>
      <point x="673" y="562" type="line"/>
      <point x="673" y="532" type="line"/>
      <point x="594" y="532" type="line"/>
      <point x="594" y="0" type="line"/>
    </contour>
    <contour>
      <point x="557" y="532" type="line"/>
      <point x="144" y="532" type="line"/>
      <point x="144" y="371" type="line"/>
      <point x="557" y="371" type="line"/>
    </contour>
  </outline>
</glyph>
<glyph name="itilde" format="2">
  <advance width="235"/>
  <unicode hex="0129"/>
  <outline>
    <contour>
      <point x="100" y="0" type="line"/>
      <point x="100" y="508" type="line"/>
      <point x="135" y="508" type="line"/>
      <point x="135" y="0" type="line"/>
    </contour>
    <contour>
      <point x="189" y="624" type="qcurve" smooth="yes"/>
      <point x="152" y="624"/>
      <point x="112" y="653" type="qcurve"/>
      <point x="89" y="667"/>
      <point x="59" y="679"/>
      <point x="45" y="679" type="qcurve" smooth="yes"/>
      <point x="9" y="679"/>
      <point x="-19" y="647" type="qcurve"/>
      <point x="-36" y="666" type="line"/>
      <point x="1" y="708"/>
      <point x="47" y="708" type="qcurve" smooth="yes"/>
      <point x="85" y="708"/>
      <point x="124" y="679" type="qcurve"/>
      <point x="147" y="665"/>
      <point x="177" y="653"/>
      <point x="191" y="653" type="qcurve" smooth="yes"/>
      <point x="227" y="653"/>
      <point x="255" y="685" type="qcurve"/>
      <point x="272" y="666" type="line"/>
      <point x="236" y="624"/>
    </contour>
  </outline>
</glyph>
<glyph name="Imacron" format="2">
  <advance width="245"/>
  <unicode hex="012A"/>
  <outline>
    <contour>
      <point x="104" y="0" type="line"/>
      <point x="104" y="698" type="line"/>
      <point x="141" y="698" type="line"/>
      <point x="141" y="0" type="line"/>
    </contour>
    <contour>
      <point x="-9" y="831" type="line"/>
      <point x="-9" y="861" type="line"/>
      <point x="255" y="861" type="line"/>
      <point x="255" y="831" type="line"/>
    </contour>
  </outline>
</glyph>
<glyph name="ibreve" format="2">
  <advance width="235"/>
  <unicode hex="012D"/>
  <outline>
    <contour>
      <point x="118" y="604" type="qcurve" smooth="yes"/>
      <point x="65" y="604"/>
      <point x="4" y="669"/>
      <point x="-19" y="723" type="qcurve"/>
      <point x="4" y="733" type="line"/>
      <point x="21" y="705" type="line"/>
      <point x="43" y="664"/>
      <point x="84" y="633"/>
      <point x="118" y="633" type="qcurve" smooth="yes"/>
      <point x="152" y="633"/>
      <point x="193" y="664"/>
      <point x="215" y="705" type="qcurve"/>
      <point x="232" y="733" type="line"/>
      <point x="255" y="723" type="line"/>
      <point x="217" y="635"/>
      <point x="168" y="613" type="qcurve" smooth="yes"/>
      <point x="147" y="604"/>
    </contour>
    <contour>
      <point x="100" y="0" type="line"/>
      <point x="100" y="508" type="line"/>
      <point x="135" y="508" type="line"/>
      <point x="135" y="0" type="line"/>
    </contour>
  </outline>
</glyph>
<glyph name="ij" format="2">
  <advance width="471"/>
  <unicode hex="0133"/>
  <outline>
    <contour>
      <point x="251" y="-200" type="line"/>
      <point x="251" y="-169" type="line"/>
      <point x="336" y="-169" type="line"/>
      <point x="336" y="508" type="line"/>
      <point x="371" y="508" type="line"/>
      <point x="371" y="-149" type="line" smooth="yes"/>
      <point x="371" y="-200"/>
      <point x="323" y="-200" type="qcurve" smooth="yes"/>
    </contour>
    <contour>
      <point x="118" y="665" type="qcurve" smooth="yes"/>
      <point x="88" y="665"/>
      <point x="88" y="691" type="qcurve" smooth="yes"/>
      <point x="88" y="700" type="line" smooth="yes"/>
      <point x="88" y="726"/>
      <point x="117" y="726" type="qcurve" smooth="yes"/>
      <point x="147" y="726"/>
      <point x="147" y="700" type="qcurve" smooth="yes"/>
      <point x="147" y="691" type="line" smooth="yes"/>
      <point x="147" y="665"/>
    </contour>
    <contour>
      <point x="354" y="665" type="qcurve" smooth="yes"/>
      <point x="324" y="665"/>
      <point x="324" y="691" type="qcurve" smooth="yes"/>
      <point x="324" y="700" type="line" smooth="yes"/>
      <point x="324" y="726"/>
      <point x="353" y="726" type="qcurve" smooth="yes"/>
      <point x="383" y="726"/>
      <point x="383" y="700" type="qcurve" smooth="yes"/>
      <point x="383" y="691" type="line" smooth="yes"/>
      <point x="383" y="665"/>
    </contour>
    <contour>
      <point x="100" y="0" type="line"/>
      <point x="100" y="508" type="line"/>
      <point x="135" y="508" type="line"/>
      <point x="135" y="0" type="line"/>
    </contour>
  </outline>
</glyph>
<glyph name="jcircumflex" format="2">
  <advance width="235"/>
  <unicode hex="0135"/>
  <outline>
    <contour>
      <point x="15" y="-200" type="line"/>
      <point x="15" y="-169" type="line"/>
      <point x="100" y="-169" type="line"/>
      <point x="100" y="508" type="line"/>
      <point x="135" y="508" type="line"/>
      <point x="135" y="-149" type="line" smooth="yes"/>
      <point x="135" y="-200"/>
      <point x="87" y="-200" type="qcurve" smooth="yes"/>
    </contour>
    <contour>
      <point x="118" y="722" type="line"/>
      <point x="-6" y="597" type="line"/>
      <point x="-27" y="613" type="line"/>
      <point x="97" y="748" type="line"/>
      <point x="139" y="748" type="line"/>
      <point x="263" y="613" type="line"/>
      <point x="242" y="597" type="line"/>
    </contour>
  </outline>
</glyph>
<glyph name="u0136" format="2">
  <advance width="587"/>
  <unicode hex="0136"/>
  <outline>
    <contour>
      <point x="273" y="-220" type="line"/>
      <point x="314" y="-169"/>
      <point x="319" y="-128" type="qcurve"/>
      <point x="289" y="-126"/>
      <point x="289" y="-102" type="qcurve" smooth="yes"/>
      <point x="289" y="-94" type="line" smooth="yes"/>
      <point x="289" y="-66"/>
      <point x="322" y="-66" type="qcurve" smooth="yes"/>
      <point x="349" y="-66"/>
      <point x="349" y="-94" type="qcurve" smooth="yes"/>
      <point x="349" y="-105" type="line" smooth="yes"/>
      <point x="349" y="-133"/>
      <point x="321" y="-197"/>
      <point x="300" y="-220" type="qcurve"/>
    </contour>
    <contour>
      <point x="522" y="0" type="line"/>
      <point x="268" y="377" type="line"/>
      <point x="141" y="238" type="line"/>
      <point x="141" y="0" type="line"/>
      <point x="104" y="0" type="line"/>
      <point x="104" y="698" type="line"/>
      <point x="141" y="698" type="line"/>
      <point x="141" y="284" type="line"/>
      <point x="143" y="284" type="line"/>
      <point x="514" y="698" type="line"/>
      <point x="560" y="698" type="line"/>
      <point x="293" y="402" type="line"/>
      <point x="566" y="0" type="line"/>
    </contour>
  </outline>
</glyph>
<glyph name="lacute" format="2">
  <advance width="255"/>
  <unicode hex="013A"/>
  <outline>
    <contour>
      <point x="82" y="800" type="line"/>
      <point x="187" y="958" type="line"/>
      <point x="219" y="940" type="line"/>
      <point x="106" y="787" type="line"/>
    </contour>
    <contour>
      <point x="143" y="0" type="line" smooth="yes"/>
      <point x="100" y="0"/>
      <point x="100" y="42" type="qcurve" smooth="yes"/>
      <point x="100" y="740" type="line"/>
      <point x="135" y="740" type="line"/>
      <point x="135" y="31" type="line"/>
      <point x="218" y="31" type="line"/>
      <point x="218" y="0" type="line"/>
    </contour>
  </outline>
</glyph>
<glyph name="lcedilla" format="2">
  <advance width="255"/>
  <unicode hex="013C"/>
  <outline>
    <contour>
      <point x="143" y="0" type="line" smooth="yes"/>
      <point x="100" y="0"/>
      <point x="100" y="42" type="qcurve" smooth="yes"/>
      <point x="100" y="740" type="line"/>
      <point x="135" y="740" type="line"/>
      <point x="135" y="31" type="line"/>
      <point x="218" y="31" type="line"/>
      <point x="218" y="0" type="line"/>
    </contour>
    <contour>
      <point x="116" y="-220" type="line"/>
      <point x="157" y="-169"/>
      <point x="162" y="-128" type="qcurve"/>
      <point x="132" y="-126"/>
      <point x="132" y="-102" type="qcurve" smooth="yes"/>
      <point x="132" y="-94" type="line" smooth="yes"/>
      <point x="132" y="-66"/>
      <point x="165" y="-66" type="qcurve" smooth="yes"/>
      <point x="192" y="-66"/>
      <point x="192" y="-94" type="qcurve" smooth="yes"/>
      <point x="192" y="-105" type="line" smooth="yes"/>
      <point x="192" y="-133"/>
      <point x="164" y="-197"/>
      <point x="143" y="-220" type="qcurve"/>
    </contour>
  </outline>
</glyph>
<glyph name="lcaron" format="2">
  <advance width="255"/>
  <unicode hex="013E"/>
  <outline>
    <contour>
      <point x="222" y="562" type="line"/>
      <point x="237" y="740" type="line"/>
      <point x="278" y="740" type="line"/>
      <point x="247" y="562" type="line"/>
    </contour>
    <contour>
      <point x="143" y="0" type="line" smooth="yes"/>
      <point x="100" y="0"/>
      <point x="100" y="42" type="qcurve" smooth="yes"/>
      <point x="100" y="740" type="line"/>
      <point x="135" y="740" type="line"/>
      <point x="135" y="31" type="line"/>
      <point x="218" y="31" type="line"/>
      <point x="218" y="0" type="line"/>
    </contour>
  </outline>
</glyph>
<glyph name="Ldot" format="2">
  <advance width="481"/>
  <unicode hex="013F"/>
  <outline>
    <contour>
      <point x="365" y="277" type="qcurve" smooth="yes"/>
      <point x="349" y="277"/>
      <point x="335" y="293"/>
      <point x="335" y="304" type="qcurve" smooth="yes"/>
      <point x="335" y="312" type="line" smooth="yes"/>
      <point x="335" y="323"/>
      <point x="349" y="339"/>
      <point x="365" y="339" type="qcurve" smooth="yes"/>
      <point x="381" y="339"/>
      <point x="395" y="323"/>
      <point x="395" y="312" type="qcurve" smooth="yes"/>
      <point x="395" y="304" type="line" smooth="yes"/>
      <point x="395" y="293"/>
      <point x="381" y="277"/>
    </contour>
    <contour>
      <point x="104" y="0" type="line"/>
      <point x="104" y="698" type="line"/>
      <point x="141" y="698" type="line"/>
      <point x="141" y="33" type="line"/>
      <point x="460" y="33" type="line"/>
      <point x="460" y="0" type="line"/>
    </contour>
  </outline>
</glyph>
<glyph name="ldot" format="2">
  <advance width="295"/>
  <unicode hex="0140"/>
  <outline>
    <contour>
      <point x="264" y="244" type="qcurve" smooth="yes"/>
      <point x="248" y="244"/>
      <point x="234" y="260"/>
      <point x="234" y="271" type="qcurve" smooth="yes"/>
      <point x="234" y="279" type="line" smooth="yes"/>
      <point x="234" y="290"/>
      <point x="248" y="306"/>
      <point x="264" y="306" type="qcurve" smooth="yes"/>
      <point x="280" y="306"/>
      <point x="294" y="290"/>
      <point x="294" y="279" type="qcurve" smooth="yes"/>
      <point x="294" y="271" type="line" smooth="yes"/>
      <point x="294" y="260"/>
      <point x="280" y="244"/>
    </contour>
    <contour>
      <point x="143" y="0" type="line" smooth="yes"/>
      <point x="100" y="0"/>
      <point x="100" y="42" type="qcurve" smooth="yes"/>
      <point x="100" y="740" type="line"/>
      <point x="135" y="740" type="line"/>
      <point x="135" y="31" type="line"/>
      <point x="218" y="31" type="line"/>
      <point x="218" y="0" type="line"/>
    </contour>
  </outline>
</glyph>
<glyph name="Nacute" format="2">
  <advance width="696"/>
  <unicode hex="0143"/>
  <outline>
    <contour>
      <point x="542" y="0" type="line"/>
      <point x="143" y="650" type="line"/>
      <point x="140" y="650" type="line"/>
      <point x="140" y="0" type="line"/>
      <point x="104" y="0" type="line"/>
      <point x="104" y="698" type="line"/>
      <point x="153" y="698" type="line"/>
      <point x="553" y="48" type="line"/>
      <point x="556" y="48" type="line"/>
      <point x="556" y="698" type="line"/>
      <point x="592" y="698" type="line"/>
      <point x="592" y="0" type="line"/>
    </contour>
    <contour>
      <point x="312" y="777" type="line"/>
      <point x="417" y="935" type="line"/>
      <point x="449" y="918" type="line"/>
      <point x="336" y="764" type="line"/>
    </contour>
  </outline>
</glyph>
<glyph name="eng" format="2">
  <advance width="559"/>
  <unicode hex="014B"/>
  <outline>
    <contour>
      <point x="348" y="-200" type="line"/>
      <point x="348" y="-169" type="line"/>
      <point x="432" y="-169" type="line"/>
      <point x="432" y="320" type="line" smooth="yes"/>
      <point x="432" y="489"/>
      <point x="286" y="489" type="qcurve" smooth="yes"/>
      <point x="228" y="489"/>
      <point x="135" y="426"/>
      <point x="135" y="361" type="qcurve" smooth="yes"/>
      <point x="135" y="0" type="line"/>
      <point x="100" y="0" type="line"/>
      <point x="100" y="508" type="line"/>
      <point x="135" y="508" type="line"/>
      <point x="135" y="430" type="line"/>
      <point x="138" y="430" type="line"/>
      <point x="153" y="468"/>
      <point x="228" y="520"/>
      <point x="294" y="520" type="qcurve" smooth="yes"/>
      <point x="467" y="517"/>
      <point x="467" y="326" type="qcurve" smooth="yes"/>
      <point x="467" y="-150" type="line" smooth="yes"/>
      <point x="467" y="-200"/>
      <point x="419" y="-200" type="qcurve" smooth="yes"/>
    </contour>
  </outline>
</glyph>
<glyph name="oe" format="2">
  <advance width="929"/>
  <unicode hex="0153"/>
  <outline>
    <contour>
      <point x="668" y="-12" type="qcurve" smooth="yes"/>
      <point x="514" y="-12"/>
      <point x="470" y="136" type="qcurve"/>
      <point x="466" y="136" type="line"/>
      <point x="422" y="-12"/>
      <point x="272" y="-12" type="qcurve" smooth="yes"/>
      <point x="172" y="-12"/>
      <point x="57" y="124"/>
      <point x="57" y="254" type="qcurve" smooth="yes"/>
      <point x="57" y="385"/>
      <point x="172" y="520"/>
      <point x="272" y="520" type="qcurve" smooth="yes"/>
      <point x="346" y="520"/>
      <point x="446" y="446"/>
      <point x="467" y="374" type="qcurve"/>
      <point x="471" y="374" type="line"/>
      <point x="518" y="520"/>
      <point x="663" y="520" type="qcurve" smooth="yes"/>
      <point x="758" y="520"/>
      <point x="873" y="382"/>
      <point x="873" y="268" type="qcurve" smooth="yes"/>
      <point x="873" y="252" type="line"/>
      <point x="487" y="252" type="line"/>
      <point x="487" y="225" type="line" smooth="yes"/>
      <point x="487" y="131"/>
      <point x="583" y="19"/>
      <point x="668" y="19" type="qcurve" smooth="yes"/>
      <point x="790" y="19"/>
      <point x="835" y="135" type="qcurve"/>
      <point x="862" y="120" type="line"/>
      <point x="839" y="59"/>
      <point x="740" y="-12"/>
    </contour>
    <contour>
      <point x="272" y="19" type="qcurve" smooth="yes"/>
      <point x="357" y="19"/>
      <point x="449" y="130"/>
      <point x="449" y="227" type="qcurve" smooth="yes"/>
      <point x="449" y="281" type="line" smooth="yes"/>
      <point x="449" y="379"/>
      <point x="357" y="489"/>
      <point x="272" y="489" type="qcurve" smooth="yes"/>
      <point x="187" y="489"/>
      <point x="95" y="379"/>
      <point x="95" y="281" type="qcurve" smooth="yes"/>
      <point x="95" y="227" type="line" smooth="yes"/>
      <point x="95" y="130"/>
      <point x="187" y="19"/>
    </contour>
    <contour>
      <point x="835" y="280" type="line"/>
      <point x="835" y="378"/>
      <point x="741" y="489"/>
      <point x="663" y="489" type="qcurve" smooth="yes"/>
      <point x="580" y="489"/>
      <point x="487" y="378"/>
      <point x="487" y="280" type="qcurve"/>
    </contour>
  </outline>
</glyph>
<glyph name="Racute" format="2">
  <advance width="632"/>
  <unicode hex="0154"/>
  <outline>
    <contour>
      <point x="269" y="777" type="line"/>
      <point x="374" y="935" type="line"/>
      <point x="406" y="918" type="line"/>
      <point x="293" y="764" type="line"/>
    </contour>
    <contour>
      <point x="529" y="0" type="line"/>
      <point x="347" y="317" type="line"/>
      <point x="141" y="317" type="line"/>
      <point x="141" y="0" type="line"/>
      <point x="104" y="0" type="line"/>
      <point x="104" y="698" type="line"/>
      <point x="375" y="698" type="line" smooth="yes"/>
      <point x="463" y="698"/>
      <point x="554" y="596"/>
      <point x="554" y="508" type="qcurve" smooth="yes"/>
      <point x="554" y="423"/>
      <point x="469" y="324"/>
      <point x="386" y="319" type="qcurve"/>
      <point x="571" y="0" type="line"/>
    </contour>
    <contour>
      <point x="375" y="349" type="line" smooth="yes"/>
      <point x="441" y="349"/>
      <point x="480" y="390" type="qcurve"/>
      <point x="514" y="431"/>
      <point x="514" y="485" type="qcurve" smooth="yes"/>
      <point x="514" y="529" type="line" smooth="yes"/>
      <point x="514" y="583"/>
      <point x="480" y="625" type="qcurve"/>
      <point x="441" y="665"/>
      <point x="375" y="665" type="qcurve" smooth="yes"/>
      <point x="141" y="665" type="line"/>
      <point x="141" y="349" type="line"/>
    </contour>
  </outline>
</glyph>
<glyph name="Rcaron" format="2">
  <advance width="632"/>
  <unicode hex="0158"/>
  <outline>
    <contour>
      <point x="284" y="780" type="line"/>
      <point x="160" y="915" type="line"/>
      <point x="181" y="931" type="line"/>
      <point x="305" y="806" type="line"/>
      <point x="429" y="931" type="line"/>
      <point x="450" y="915" type="line"/>
      <point x="326" y="780" type="line"/>
    </contour>
    <contour>
      <point x="529" y="0" type="line"/>
      <point x="347" y="317" type="line"/>
      <point x="141" y="317" type="line"/>
      <point x="141" y="0" type="line"/>
      <point x="104" y="0" type="line"/>
      <point x="104" y="698" type="line"/>
      <point x="375" y="698" type="line" smooth="yes"/>
      <point x="463" y="698"/>
      <point x="554" y="596"/>
      <point x="554" y="508" type="qcurve" smooth="yes"/>
      <point x="554" y="423"/>
      <point x="469" y="324"/>
      <point x="386" y="319" type="qcurve"/>
      <point x="571" y="0" type="line"/>
    </contour>
    <contour>
      <point x="375" y="349" type="line" smooth="yes"/>
      <point x="441" y="349"/>
      <point x="480" y="390" type="qcurve"/>
      <point x="514" y="431"/>
      <point x="514" y="485" type="qcurve" smooth="yes"/>
      <point x="514" y="529" type="line" smooth="yes"/>
      <point x="514" y="583"/>
      <point x="480" y="625" type="qcurve"/>
      <point x="441" y="665"/>
      <point x="375" y="665" type="qcurve" smooth="yes"/>
      <point x="141" y="665" type="line"/>
      <point x="141" y="349" type="line"/>
    </contour>
  </outline>
</glyph>
<glyph name="rcaron" format="2">
  <advance width="347"/>
  <unicode hex="0159"/>
  <outline>
    <contour>
      <point x="100" y="0" type="line"/>
      <point x="100" y="508" type="line"/>
      <point x="135" y="508" type="line"/>
      <point x="135" y="419" type="line"/>
      <point x="139" y="419" type="line"/>
      <point x="175" y="508"/>
      <point x="295" y="508" type="qcurve" smooth="yes"/>
      <point x="333" y="508" type="line"/>
      <point x="333" y="475" type="line"/>
      <point x="289" y="475" type="line" smooth="yes"/>
      <point x="228" y="475"/>
      <point x="135" y="411"/>
      <point x="135" y="349" type="qcurve" smooth="yes"/>
      <point x="135" y="0" type="line"/>
    </contour>
    <contour>
      <point x="201" y="602" type="line"/>
      <point x="77" y="737" type="line"/>
      <point x="98" y="753" type="line"/>
      <point x="222" y="629" type="line"/>
      <point x="346" y="753" type="line"/>
      <point x="367" y="737" type="line"/>
      <point x="243" y="602" type="line"/>
    </contour>
  </outline>
</glyph>
<glyph name="scaron" format="2">
  <advance width="468"/>
  <unicode hex="0161"/>
  <outline>
    <contour>
      <point x="237" y="-12" type="qcurve" smooth="yes"/>
      <point x="111" y="-12"/>
      <point x="46" y="83" type="qcurve"/>
      <point x="73" y="103" type="line"/>
      <point x="130" y="19"/>
      <point x="238" y="19" type="qcurve"/>
      <point x="376" y="22"/>
      <point x="376" y="128" type="qcurve" smooth="yes"/>
      <point x="376" y="179"/>
      <point x="317" y="230"/>
      <point x="256" y="239" type="qcurve" smooth="yes"/>
      <point x="213" y="246" type="line" smooth="yes"/>
      <point x="145" y="256"/>
      <point x="105" y="288" type="qcurve"/>
      <point x="64" y="319"/>
      <point x="64" y="386" type="qcurve" smooth="yes"/>
      <point x="64" y="452"/>
      <point x="160" y="520"/>
      <point x="230" y="520" type="qcurve" smooth="yes"/>
      <point x="294" y="520"/>
      <point x="374" y="476"/>
      <point x="400" y="445" type="qcurve"/>
      <point x="375" y="422" type="line"/>
      <point x="354" y="449"/>
      <point x="288" y="489"/>
      <point x="229" y="489" type="qcurve" smooth="yes"/>
      <point x="169" y="489"/>
      <point x="98" y="437"/>
      <point x="98" y="387" type="qcurve" smooth="yes"/>
      <point x="98" y="336"/>
      <point x="158" y="288"/>
      <point x="219" y="279" type="qcurve" smooth="yes"/>
      <point x="262" y="272" type="line"/>
      <point x="334" y="262"/>
      <point x="410" y="196"/>
      <point x="410" y="131" type="qcurve" smooth="yes"/>
      <point x="410" y="63"/>
      <point x="318" y="-12"/>
    </contour>
    <contour>
      <point x="207" y="602" type="line"/>
      <point x="83" y="737" type="line"/>
      <point x="104" y="753" type="line"/>
      <point x="228" y="629" type="line"/>
      <point x="352" y="753" type="line"/>
      <point x="373" y="737" type="line"/>
      <point x="249" y="602" type="line"/>
    </contour>
  </outline>
</glyph>
<glyph name="u0163" format="2">
  <advance width="320"/>
  <unicode hex="0163"/>
  <outline>
    <contour>
      <point x="149" y="-220" type="line"/>
      <point x="190" y="-169"/>
      <point x="195" y="-128" type="qcurve"/>
      <point x="165" y="-126"/>
      <point x="165" y="-102" type="qcurve" smooth="yes"/>
      <point x="165" y="-94" type="line" smooth="yes"/>
      <point x="165" y="-66"/>
      <point x="198" y="-66" type="qcurve" smooth="yes"/>
      <point x="225" y="-66"/>
      <point x="225" y="-94" type="qcurve" smooth="yes"/>
      <point x="225" y="-105" type="line" smooth="yes"/>
      <point x="225" y="-133"/>
      <point x="197" y="-197"/>
      <point x="176" y="-220" type="qcurve"/>
    </contour>
    <contour>
      <point x="165" y="0" type="line" smooth="yes"/>
      <point x="122" y="0"/>
      <point x="122" y="42" type="qcurve" smooth="yes"/>
      <point x="122" y="477" type="line"/>
      <point x="30" y="477" type="line"/>
      <point x="30" y="508" type="line"/>
      <point x="96" y="508" type="line" smooth="yes"/>
      <point x="113" y="508"/>
      <point x="124" y="522"/>
      <point x="124" y="539" type="qcurve" smooth="yes"/>
      <point x="124" y="652" type="line"/>
      <point x="157" y="652" type="line"/>
      <point x="157" y="508" type="line"/>
      <point x="276" y="508" type="line"/>
      <point x="276" y="477" type="line"/>
      <point x="157" y="477" type="line"/>
      <point x="157" y="31" type="line"/>
      <point x="268" y="31" type="line"/>
      <point x="268" y="0" type="line"/>
    </contour>
  </outline>
</glyph>
<glyph name="tbar" format="2">
  <advance width="326"/>
  <unicode hex="0167"/>
  <outline>
    <contour>
      <point x="168" y="0" type="line" smooth="yes"/>
      <point x="125" y="0"/>
      <point x="125" y="42" type="qcurve" smooth="yes"/>
      <point x="125" y="272" type="line"/>
      <point x="58" y="272" type="line"/>
      <point x="58" y="301" type="line"/>
      <point x="125" y="301" type="line"/>
      <point x="125" y="477" type="line"/>
      <point x="33" y="477" type="line"/>
      <point x="33" y="508" type="line"/>
      <point x="99" y="508" type="line" smooth="yes"/>
      <point x="116" y="508"/>
      <point x="127" y="522"/>
      <point x="127" y="539" type="qcurve" smooth="yes"/>
      <point x="127" y="652" type="line"/>
      <point x="160" y="652" type="line"/>
      <point x="160" y="508" type="line"/>
      <point x="279" y="508" type="line"/>
      <point x="279" y="477" type="line"/>
      <point x="160" y="477" type="line"/>
      <point x="160" y="301" type="line"/>
      <point x="259" y="301" type="line"/>
      <point x="259" y="272" type="line"/>
      <point x="160" y="272" type="line"/>
      <point x="160" y="31" type="line"/>
      <point x="271" y="31" type="line"/>
      <point x="271" y="0" type="line"/>
    </contour>
  </outline>
</glyph>
<glyph name="Utilde" format="2">
  <advance width="658"/>
  <unicode hex="0168"/>
  <outline>
    <contour>
      <point x="399" y="802" type="qcurve" smooth="yes"/>
      <point x="380" y="802"/>
      <point x="345" y="817"/>
      <point x="299" y="845"/>
      <point x="269" y="856"/>
      <point x="255" y="856" type="qcurve" smooth="yes"/>
      <point x="219" y="856"/>
      <point x="191" y="825" type="qcurve"/>
      <point x="174" y="843" type="line"/>
      <point x="208" y="886"/>
      <point x="257" y="886" type="qcurve" smooth="yes"/>
      <point x="276" y="886"/>
      <point x="311" y="871"/>
      <point x="357" y="843"/>
      <point x="387" y="832"/>
      <point x="401" y="832" type="qcurve" smooth="yes"/>
      <point x="437" y="832"/>
      <point x="465" y="863" type="qcurve"/>
      <point x="482" y="845" type="line"/>
      <point x="449" y="802"/>
    </contour>
    <contour>
      <point x="328" y="-12" type="qcurve" smooth="yes"/>
      <point x="198" y="-12"/>
      <point x="97" y="120"/>
      <point x="97" y="274" type="qcurve" smooth="yes"/>
      <point x="97" y="698" type="line"/>
      <point x="134" y="698" type="line"/>
      <point x="134" y="268" type="line" smooth="yes"/>
      <point x="134" y="202"/>
      <point x="153" y="108"/>
      <point x="176" y="78" type="qcurve"/>
      <point x="217" y="21"/>
      <point x="329" y="21" type="qcurve" smooth="yes"/>
      <point x="439" y="21"/>
      <point x="482" y="78" type="qcurve" smooth="yes"/>
      <point x="505" y="108"/>
      <point x="524" y="202"/>
      <point x="524" y="268" type="qcurve" smooth="yes"/>
      <point x="524" y="698" type="line"/>
      <point x="561" y="698" type="line"/>
      <point x="561" y="274" type="line" smooth="yes"/>
      <point x="561" y="120"/>
      <point x="459" y="-12"/>
    </contour>
  </outline>
</glyph>
<glyph name="utilde" format="2">
  <advance width="559"/>
  <unicode hex="0169"/>
  <outline>
    <contour>
      <point x="265" y="-12" type="qcurve"/>
      <point x="91" y="-8"/>
      <point x="91" y="182" type="qcurve" smooth="yes"/>
      <point x="91" y="508" type="line"/>
      <point x="126" y="508" type="line"/>
      <point x="126" y="188" type="line" smooth="yes"/>
      <point x="126" y="19"/>
      <point x="273" y="19" type="qcurve" smooth="yes"/>
      <point x="332" y="19"/>
      <point x="424" y="82"/>
      <point x="424" y="148" type="qcurve" smooth="yes"/>
      <point x="424" y="508" type="line"/>
      <point x="459" y="508" type="line"/>
      <point x="459" y="0" type="line"/>
      <point x="424" y="0" type="line"/>
      <point x="424" y="78" type="line"/>
      <point x="420" y="78" type="line"/>
      <point x="406" y="42"/>
      <point x="333" y="-12"/>
    </contour>
    <contour>
      <point x="347" y="624" type="qcurve" smooth="yes"/>
      <point x="310" y="624"/>
      <point x="270" y="653" type="qcurve"/>
      <point x="247" y="667"/>
      <point x="217" y="679"/>
      <point x="203" y="679" type="qcurve" smooth="yes"/>
      <point x="167" y="679"/>
      <point x="139" y="647" type="qcurve"/>
      <point x="122" y="666" type="line"/>
      <point x="159" y="708"/>
      <point x="205" y="708" type="qcurve" smooth="yes"/>
      <point x="243" y="708"/>
      <point x="282" y="679" type="qcurve"/>
      <point x="305" y="665"/>
      <point x="335" y="653"/>
      <point x="349" y="653" type="qcurve" smooth="yes"/>
      <point x="385" y="653"/>
      <point x="413" y="685" type="qcurve"/>
      <point x="430" y="666" type="line"/>
      <point x="394" y="624"/>
    </contour>
  </outline>
</glyph>
<glyph name="ubreve" format="2">
  <advance width="559"/>
  <unicode hex="016D"/>
  <outline>
    <contour>
      <point x="276" y="604" type="qcurve" smooth="yes"/>
      <point x="223" y="604"/>
      <point x="162" y="669"/>
      <point x="139" y="723" type="qcurve"/>
      <point x="162" y="733" type="line"/>
      <point x="179" y="705" type="line"/>
      <point x="201" y="664"/>
      <point x="242" y="633"/>
      <point x="276" y="633" type="qcurve" smooth="yes"/>
      <point x="310" y="633"/>
      <point x="351" y="664"/>
      <point x="373" y="705" type="qcurve"/>
      <point x="390" y="733" type="line"/>
      <point x="413" y="723" type="line"/>
      <point x="375" y="635"/>
      <point x="326" y="613" type="qcurve" smooth="yes"/>
      <point x="305" y="604"/>
    </contour>
    <contour>
      <point x="265" y="-12" type="qcurve"/>
      <point x="91" y="-8"/>
      <point x="91" y="182" type="qcurve" smooth="yes"/>
      <point x="91" y="508" type="line"/>
      <point x="126" y="508" type="line"/>
      <point x="126" y="188" type="line" smooth="yes"/>
      <point x="126" y="19"/>
      <point x="273" y="19" type="qcurve" smooth="yes"/>
      <point x="332" y="19"/>
      <point x="424" y="82"/>
      <point x="424" y="148" type="qcurve" smooth="yes"/>
      <point x="424" y="508" type="line"/>
      <point x="459" y="508" type="line"/>
      <point x="459" y="0" type="line"/>
      <point x="424" y="0" type="line"/>
      <point x="424" y="78" type="line"/>
      <point x="420" y="78" type="line"/>
      <point x="406" y="42"/>
      <point x="333" y="-12"/>
    </contour>
  </outline>
</glyph>
<glyph name="Uring" format="2">
  <advance width="658"/>
  <unicode hex="016E"/>
  <outline>
    <contour>
      <point x="328" y="764" type="qcurve" smooth="yes"/>
      <point x="285" y="764"/>
      <point x="232" y="817"/>
      <point x="232" y="860" type="qcurve" smooth="yes"/>
      <point x="232" y="903"/>
      <point x="285" y="957"/>
      <point x="328" y="957" type="qcurve" smooth="yes"/>
      <point x="371" y="957"/>
      <point x="424" y="903"/>
      <point x="424" y="860" type="qcurve" smooth="yes"/>
      <point x="424" y="817"/>
      <point x="371" y="764"/>
    </contour>
    <contour>
      <point x="328" y="789" type="qcurve"/>
      <point x="395" y="794"/>
      <point x="395" y="854" type="qcurve" smooth="yes"/>
      <point x="395" y="932"/>
      <point x="328" y="932" type="qcurve" smooth="yes"/>
      <point x="297" y="932"/>
      <point x="261" y="896"/>
      <point x="261" y="867" type="qcurve" smooth="yes"/>
      <point x="261" y="789"/>
    </contour>
    <contour>
      <point x="328" y="-12" type="qcurve" smooth="yes"/>
      <point x="198" y="-12"/>
      <point x="97" y="120"/>
      <point x="97" y="274" type="qcurve" smooth="yes"/>
      <point x="97" y="698" type="line"/>
      <point x="134" y="698" type="line"/>
      <point x="134" y="268" type="line" smooth="yes"/>
      <point x="134" y="202"/>
      <point x="153" y="108"/>
      <point x="176" y="78" type="qcurve"/>
      <point x="217" y="21"/>
      <point x="329" y="21" type="qcurve" smooth="yes"/>
      <point x="439" y="21"/>
      <point x="482" y="78" type="qcurve" smooth="yes"/>
      <point x="505" y="108"/>
      <point x="524" y="202"/>
      <point x="524" y="268" type="qcurve" smooth="yes"/>
      <point x="524" y="698" type="line"/>
      <point x="561" y="698" type="line"/>
      <point x="561" y="274" type="line" smooth="yes"/>
      <point x="561" y="120"/>
      <point x="459" y="-12"/>
    </contour>
  </outline>
</glyph>
<glyph name="uring" format="2">
  <advance width="559"/>
  <unicode hex="016F"/>
  <outline>
    <contour>
      <point x="276" y="611" type="qcurve" smooth="yes"/>
      <point x="307" y="611"/>
      <point x="343" y="647"/>
      <point x="343" y="676" type="qcurve" smooth="yes"/>
      <point x="343" y="754"/>
      <point x="276" y="754" type="qcurve"/>
      <point x="209" y="749"/>
      <point x="209" y="689" type="qcurve" smooth="yes"/>
      <point x="209" y="611"/>
    </contour>
    <contour>
      <point x="265" y="-12" type="qcurve"/>
      <point x="91" y="-8"/>
      <point x="91" y="182" type="qcurve" smooth="yes"/>
      <point x="91" y="508" type="line"/>
      <point x="126" y="508" type="line"/>
      <point x="126" y="188" type="line" smooth="yes"/>
      <point x="126" y="19"/>
      <point x="273" y="19" type="qcurve" smooth="yes"/>
      <point x="332" y="19"/>
      <point x="424" y="82"/>
      <point x="424" y="148" type="qcurve" smooth="yes"/>
      <point x="424" y="508" type="line"/>
      <point x="459" y="508" type="line"/>
      <point x="459" y="0" type="line"/>
      <point x="424" y="0" type="line"/>
      <point x="424" y="78" type="line"/>
      <point x="420" y="78" type="line"/>
      <point x="406" y="42"/>
      <point x="333" y="-12"/>
    </contour>
    <contour>
      <point x="276" y="586" type="qcurve" smooth="yes"/>
      <point x="233" y="586"/>
      <point x="180" y="640"/>
      <point x="180" y="683" type="qcurve" smooth="yes"/>
      <point x="180" y="725"/>
      <point x="233" y="779"/>
      <point x="276" y="779" type="qcurve" smooth="yes"/>
      <point x="319" y="779"/>
      <point x="372" y="725"/>
      <point x="372" y="683" type="qcurve" smooth="yes"/>
      <point x="372" y="640"/>
      <point x="319" y="586"/>
    </contour>
  </outline>
</glyph>
<glyph name="Udblacute" format="2">
  <advance width="658"/>
  <unicode hex="0170"/>
  <outline>
    <contour>
      <point x="227" y="777" type="line"/>
      <point x="332" y="935" type="line"/>
      <point x="363" y="918" type="line"/>
      <point x="250" y="764" type="line"/>
    </contour>
    <contour>
      <point x="387" y="777" type="line"/>
      <point x="492" y="935" type="line"/>
      <point x="523" y="918" type="line"/>
      <point x="410" y="764" type="line"/>
    </contour>
    <contour>
      <point x="328" y="-12" type="qcurve" smooth="yes"/>
      <point x="198" y="-12"/>
      <point x="97" y="120"/>
      <point x="97" y="274" type="qcurve" smooth="yes"/>
      <point x="97" y="698" type="line"/>
      <point x="134" y="698" type="line"/>
      <point x="134" y="268" type="line" smooth="yes"/>
      <point x="134" y="202"/>
      <point x="153" y="108"/>
      <point x="176" y="78" type="qcurve"/>
      <point x="217" y="21"/>
      <point x="329" y="21" type="qcurve" smooth="yes"/>
      <point x="439" y="21"/>
      <point x="482" y="78" type="qcurve" smooth="yes"/>
      <point x="505" y="108"/>
      <point x="524" y="202"/>
      <point x="524" y="268" type="qcurve" smooth="yes"/>
      <point x="524" y="698" type="line"/>
      <point x="561" y="698" type="line"/>
      <point x="561" y="274" type="line" smooth="yes"/>
      <point x="561" y="120"/>
      <point x="459" y="-12"/>
    </contour>
  </outline>
</glyph>
<glyph name="Wcircumflex" format="2">
  <advance width="877"/>
  <unicode hex="0174"/>
  <outline>
    <contour>
      <point x="619" y="0" type="line"/>
      <point x="439" y="657" type="line"/>
      <point x="436" y="657" type="line"/>
      <point x="255" y="0" type="line"/>
      <point x="210" y="0" type="line"/>
      <point x="28" y="698" type="line"/>
      <point x="67" y="698" type="line"/>
      <point x="233" y="48" type="line"/>
      <point x="236" y="48" type="line"/>
      <point x="414" y="698" type="line"/>
      <point x="462" y="698" type="line"/>
      <point x="640" y="48" type="line"/>
      <point x="643" y="48" type="line"/>
      <point x="811" y="698" type="line"/>
      <point x="849" y="698" type="line"/>
      <point x="665" y="0" type="line"/>
    </contour>
    <contour>
      <point x="436" y="899" type="line"/>
      <point x="312" y="775" type="line"/>
      <point x="291" y="790" type="line"/>
      <point x="415" y="926" type="line"/>
      <point x="457" y="926" type="line"/>
      <point x="581" y="790" type="line"/>
      <point x="560" y="775" type="line"/>
    </contour>
  </outline>
</glyph>
<glyph name="Zdot" format="2">
  <advance width="561"/>
  <unicode hex="017B"/>
  <outline>
    <contour>
      <point x="287" y="812" type="qcurve" smooth="yes"/>
      <point x="256" y="812"/>
      <point x="256" y="841" type="qcurve" smooth="yes"/>
      <point x="256" y="849" type="line" smooth="yes"/>
      <point x="256" y="878"/>
      <point x="287" y="878" type="qcurve" smooth="yes"/>
      <point x="318" y="878"/>
      <point x="318" y="849" type="qcurve" smooth="yes"/>
      <point x="318" y="841" type="line" smooth="yes"/>
      <point x="318" y="812"/>
    </contour>
    <contour>
      <point x="38" y="0" type="line"/>
      <point x="38" y="35" type="line"/>
      <point x="472" y="665" type="line"/>
      <point x="61" y="665" type="line"/>
      <point x="61" y="698" type="line"/>
      <point x="512" y="698" type="line"/>
      <point x="512" y="663" type="line"/>
      <point x="78" y="33" type="line"/>
      <point x="531" y="33" type="line"/>
      <point x="531" y="0" type="line"/>
    </contour>
  </outline>
</glyph>
<glyph name="Zcaron" format="2">
  <advance width="561"/>
  <unicode hex="017D"/>
  <outline>
    <contour>
      <point x="266" y="780" type="line"/>
      <point x="142" y="915" type="line"/>
      <point x="163" y="931" type="line"/>
      <point x="287" y="806" type="line"/>
      <point x="411" y="931" type="line"/>
      <point x="432" y="915" type="line"/>
      <point x="308" y="780" type="line"/>
    </contour>
    <contour>
      <point x="38" y="0" type="line"/>
      <point x="38" y="35" type="line"/>
      <point x="472" y="665" type="line"/>
      <point x="61" y="665" type="line"/>
      <point x="61" y="698" type="line"/>
      <point x="512" y="698" type="line"/>
      <point x="512" y="663" type="line"/>
      <point x="78" y="33" type="line"/>
      <point x="531" y="33" type="line"/>
      <point x="531" y="0" type="line"/>
    </contour>
  </outline>
</glyph>
<glyph name="u018F" format="2">
  <advance width="686"/>
  <unicode hex="018F"/>
  <outline>
    <contour>
      <point x="343" y="21" type="qcurve" smooth="yes"/>
      <point x="451" y="21"/>
      <point x="580" y="176"/>
      <point x="580" y="324" type="qcurve"/>
      <point x="106" y="324" type="line"/>
      <point x="106" y="176"/>
      <point x="235" y="21"/>
    </contour>
    <contour>
      <point x="343" y="-12" type="qcurve" smooth="yes"/>
      <point x="210" y="-12"/>
      <point x="67" y="168"/>
      <point x="67" y="349" type="qcurve" smooth="yes"/>
      <point x="67" y="356" type="line"/>
      <point x="580" y="356" type="line"/>
      <point x="580" y="377" type="line" smooth="yes"/>
      <point x="580" y="525"/>
      <point x="454" y="677"/>
      <point x="345" y="677" type="qcurve" smooth="yes"/>
      <point x="264" y="677"/>
      <point x="150" y="592"/>
      <point x="123" y="510" type="qcurve"/>
      <point x="92" y="526" type="line"/>
      <point x="155" y="710"/>
      <point x="345" y="710" type="qcurve" smooth="yes"/>
      <point x="476" y="710"/>
      <point x="619" y="527"/>
      <point x="619" y="349" type="qcurve" smooth="yes"/>
      <point x="619" y="170"/>
      <point x="476" y="-12"/>
    </contour>
  </outline>
</glyph>
<glyph name="Aringacute" format="2">
  <advance width="610"/>
  <unicode hex="01FA"/>
  <outline>
    <contour>
      <point x="304" y="761" type="qcurve" smooth="yes"/>
      <point x="261" y="761"/>
      <point x="208" y="815"/>
      <point x="208" y="858" type="qcurve" smooth="yes"/>
      <point x="208" y="901"/>
      <point x="235" y="928" type="qcurve" smooth="yes"/>
      <point x="258" y="952"/>
      <point x="296" y="955" type="qcurve"/>
      <point x="363" y="1046" type="line"/>
      <point x="394" y="1030" type="line"/>
      <point x="327" y="953" type="line"/>
      <point x="355" y="947"/>
      <point x="374" y="928" type="qcurve" smooth="yes"/>
      <point x="400" y="901"/>
      <point x="400" y="858" type="qcurve" smooth="yes"/>
      <point x="400" y="815"/>
      <point x="347" y="761"/>
    </contour>
    <contour>
      <point x="304" y="787" type="qcurve"/>
      <point x="371" y="793"/>
      <point x="371" y="851" type="qcurve" smooth="yes"/>
      <point x="371" y="929"/>
      <point x="304" y="929" type="qcurve"/>
      <point x="237" y="924"/>
      <point x="237" y="864" type="qcurve" smooth="yes"/>
      <point x="237" y="787"/>
    </contour>
    <contour>
      <point x="541" y="0" type="line"/>
      <point x="460" y="227" type="line"/>
      <point x="149" y="227" type="line"/>
      <point x="68" y="0" type="line"/>
      <point x="30" y="0" type="line"/>
      <point x="281" y="698" type="line"/>
      <point x="329" y="698" type="line"/>
      <point x="580" y="0" type="line"/>
    </contour>
    <contour>
      <point x="306" y="662" type="line"/>
      <point x="302" y="662" type="line"/>
      <point x="159" y="259" type="line"/>
      <point x="450" y="259" type="line"/>
    </contour>
  </outline>
</glyph>
<glyph name="Tcommabelow" format="2">
  <advance width="563"/>
  <unicode hex="021A"/>
  <outline>
    <contour>
      <point x="263" y="0" type="line"/>
      <point x="263" y="665" type="line"/>
      <point x="18" y="665" type="line"/>
      <point x="18" y="698" type="line"/>
      <point x="545" y="698" type="line"/>
      <point x="545" y="665" type="line"/>
      <point x="300" y="665" type="line"/>
      <point x="300" y="0" type="line"/>
    </contour>
    <contour>
      <point x="235" y="-220" type="line"/>
      <point x="276" y="-169"/>
      <point x="281" y="-128" type="qcurve"/>
      <point x="251" y="-126"/>
      <point x="251" y="-102" type="qcurve" smooth="yes"/>
      <point x="251" y="-94" type="line" smooth="yes"/>
      <point x="251" y="-66"/>
      <point x="284" y="-66" type="qcurve" smooth="yes"/>
      <point x="311" y="-66"/>
      <point x="311" y="-94" type="qcurve" smooth="yes"/>
      <point x="311" y="-105" type="line" smooth="yes"/>
      <point x="311" y="-133"/>
      <point x="283" y="-197"/>
      <point x="262" y="-220" type="qcurve"/>
    </contour>
  </outline>
</glyph>
<glyph name="u0237" format="2">
  <advance width="235"/>
  <unicode hex="0237"/>
  <outline>
    <contour>
      <point x="15" y="-200" type="line"/>
      <point x="15" y="-169" type="line"/>
      <point x="100" y="-169" type="line"/>
      <point x="100" y="508" type="line"/>
      <point x="135" y="508" type="line"/>
      <point x="135" y="-149" type="line" smooth="yes"/>
      <point x="135" y="-200"/>
      <point x="87" y="-200" type="qcurve" smooth="yes"/>
    </contour>
  </outline>
</glyph>
<glyph name="u02BB" format="2">
  <advance width="600"/>
  <unicode hex="02BB"/>
  <outline>
    <contour>
      <point x="299" y="598" type="qcurve" smooth="yes"/>
      <point x="271" y="598"/>
      <point x="271" y="626" type="qcurve" smooth="yes"/>
      <point x="271" y="637" type="line" smooth="yes"/>
      <point x="271" y="665"/>
      <point x="298" y="729"/>
      <point x="319" y="752" type="qcurve"/>
      <point x="347" y="752" type="line"/>
      <point x="306" y="701"/>
      <point x="300" y="660" type="qcurve"/>
      <point x="330" y="658"/>
      <point x="330" y="634" type="qcurve" smooth="yes"/>
      <point x="330" y="624" type="line" smooth="yes"/>
      <point x="330" y="598"/>
    </contour>
  </outline>
</glyph>
<glyph name="apostrophemod" format="2">
  <advance width="600"/>
  <unicode hex="02BC"/>
  <outline>
    <contour>
      <point x="252" y="562" type="line"/>
      <point x="267" y="740" type="line"/>
      <point x="308" y="740" type="line"/>
      <point x="277" y="562" type="line"/>
    </contour>
  </outline>
</glyph>
<glyph name="hungarumlaut" format="2">
  <advance width="600"/>
  <unicode hex="02DD"/>
  <outline>
    <contour>
      <point x="199" y="600" type="line"/>
      <point x="304" y="757" type="line"/>
      <point x="335" y="740" type="line"/>
      <point x="222" y="587" type="line"/>
    </contour>
    <contour>
      <point x="359" y="600" type="line"/>
      <point x="464" y="757" type="line"/>
      <point x="495" y="740" type="line"/>
      <point x="382" y="587" type="line"/>
    </contour>
  </outline>
</glyph>
<glyph name="gravecmb" format="2">
  <unicode hex="0300"/>
  <outline>
    <contour>
      <point x="-101" y="740" type="line"/>
      <point x="-69" y="758" type="line"/>
      <point x="36" y="600" type="line"/>
      <point x="12" y="587" type="line"/>
    </contour>
  </outline>
</glyph>
<glyph name="acutecomb" format="2">
  <advance width="0"/>
  <unicode hex="0301"/>
  <outline>
    <contour>
      <point x="-35" y="600" type="line"/>
      <point x="70" y="758" type="line"/>
      <point x="102" y="740" type="line"/>
      <point x="-11" y="587" type="line"/>
    </contour>
  </outline>
</glyph>
<glyph name="u0302" format="2">
  <unicode hex="0302"/>
  <outline>
    <contour>
      <point x="1" y="722" type="line"/>
      <point x="-123" y="597" type="line"/>
      <point x="-144" y="613" type="line"/>
      <point x="-20" y="748" type="line"/>
      <point x="22" y="748" type="line"/>
      <point x="146" y="613" type="line"/>
      <point x="125" y="597" type="line"/>
    </contour>
  </outline>
</glyph>
<glyph name="u0306" format="2">
  <advance width="0"/>
  <unicode hex="0306"/>
  <outline>
    <contour>
      <point x="1" y="604" type="qcurve" smooth="yes"/>
      <point x="-52" y="604"/>
      <point x="-113" y="669"/>
      <point x="-136" y="723" type="qcurve"/>
      <point x="-113" y="733" type="line"/>
      <point x="-96" y="705" type="line"/>
      <point x="-74" y="664"/>
      <point x="-33" y="633"/>
      <point x="1" y="633" type="qcurve" smooth="yes"/>
      <point x="35" y="633"/>
      <point x="76" y="664"/>
      <point x="98" y="705" type="qcurve"/>
      <point x="115" y="733" type="line"/>
      <point x="138" y="723" type="line"/>
      <point x="100" y="635"/>
      <point x="51" y="613" type="qcurve" smooth="yes"/>
      <point x="30" y="604"/>
    </contour>
  </outline>
</glyph>
<glyph name="u0307" format="2">
  <advance width="0"/>
  <unicode hex="0307"/>
  <outline>
    <contour>
      <point x="1" y="636" type="qcurve" smooth="yes"/>
      <point x="-15" y="636"/>
      <point x="-29" y="652"/>
      <point x="-29" y="663" type="qcurve" smooth="yes"/>
      <point x="-29" y="671" type="line" smooth="yes"/>
      <point x="-29" y="682"/>
      <point x="-15" y="698"/>
      <point x="1" y="698" type="qcurve" smooth="yes"/>
      <point x="17" y="698"/>
      <point x="31" y="682"/>
      <point x="31" y="671" type="qcurve" smooth="yes"/>
      <point x="31" y="663" type="line" smooth="yes"/>
      <point x="31" y="652"/>
      <point x="17" y="636"/>
    </contour>
  </outline>
</glyph>
<glyph name="hookabovecomb" format="2">
  <advance width="0"/>
  <unicode hex="0309"/>
  <outline>
    <contour>
      <point x="-13" y="595" type="line"/>
      <point x="59" y="715" type="line"/>
      <point x="-76" y="715" type="line"/>
      <point x="-76" y="744" type="line"/>
      <point x="54" y="744" type="line" smooth="yes"/>
      <point x="88" y="744"/>
      <point x="88" y="717" type="qcurve" smooth="yes"/>
      <point x="88" y="707"/>
      <point x="73" y="678"/>
      <point x="32" y="616"/>
      <point x="10" y="583" type="qcurve"/>
    </contour>
  </outline>
</glyph>
<glyph name="u030C" format="2">
  <advance width="0"/>
  <unicode hex="030C"/>
  <outline>
    <contour>
      <point x="-20" y="602" type="line"/>
      <point x="-144" y="737" type="line"/>
      <point x="-123" y="753" type="line"/>
      <point x="1" y="629" type="line"/>
      <point x="125" y="753" type="line"/>
      <point x="146" y="737" type="line"/>
      <point x="22" y="602" type="line"/>
    </contour>
  </outline>
</glyph>
<glyph name="u0312" format="2">
  <unicode hex="0312"/>
  <outline>
    <contour>
      <point x="0" y="598" type="qcurve" smooth="yes"/>
      <point x="-28" y="598"/>
      <point x="-28" y="626" type="qcurve" smooth="yes"/>
      <point x="-28" y="637" type="line" smooth="yes"/>
      <point x="-28" y="665"/>
      <point x="-1" y="729"/>
      <point x="20" y="752" type="qcurve"/>
      <point x="48" y="752" type="line"/>
      <point x="7" y="701"/>
      <point x="1" y="660" type="qcurve"/>
      <point x="31" y="658"/>
      <point x="31" y="634" type="qcurve" smooth="yes"/>
      <point x="31" y="624" type="line" smooth="yes"/>
      <point x="31" y="598"/>
    </contour>
  </outline>
</glyph>
<glyph name="dotbelowcmb" format="2">
  <unicode hex="0323"/>
  <outline>
    <contour>
      <point x="0" y="-142" type="qcurve" smooth="yes"/>
      <point x="-16" y="-142"/>
      <point x="-30" y="-126"/>
      <point x="-30" y="-115" type="qcurve" smooth="yes"/>
      <point x="-30" y="-107" type="line" smooth="yes"/>
      <point x="-30" y="-96"/>
      <point x="-16" y="-80"/>
      <point x="0" y="-80" type="qcurve" smooth="yes"/>
      <point x="16" y="-80"/>
      <point x="30" y="-96"/>
      <point x="30" y="-107" type="qcurve" smooth="yes"/>
      <point x="30" y="-115" type="line" smooth="yes"/>
      <point x="30" y="-126"/>
      <point x="16" y="-142"/>
    </contour>
  </outline>
</glyph>
<glyph name="u0326" format="2">
  <unicode hex="0326"/>
  <outline>
    <contour>
      <point x="-46" y="-220" type="line"/>
      <point x="-5" y="-169"/>
      <point x="0" y="-128" type="qcurve"/>
      <point x="-30" y="-126"/>
      <point x="-30" y="-102" type="qcurve" smooth="yes"/>
      <point x="-30" y="-94" type="line" smooth="yes"/>
      <point x="-30" y="-66"/>
      <point x="3" y="-66" type="qcurve" smooth="yes"/>
      <point x="30" y="-66"/>
      <point x="30" y="-94" type="qcurve" smooth="yes"/>
      <point x="30" y="-105" type="line" smooth="yes"/>
      <point x="30" y="-133"/>
      <point x="2" y="-197"/>
      <point x="-19" y="-220" type="qcurve"/>
    </contour>
  </outline>
</glyph>
<glyph name="u0328" format="2">
  <advance width="0"/>
  <unicode hex="0328"/>
  <outline>
    <contour>
      <point x="-63" y="-203" type="qcurve" smooth="yes"/>
      <point x="-98" y="-203"/>
      <point x="-145" y="-169"/>
      <point x="-145" y="-134" type="qcurve" smooth="yes"/>
      <point x="-145" y="-102"/>
      <point x="-93" y="-36"/>
      <point x="-30" y="2" type="qcurve"/>
      <point x="-35" y="14" type="line"/>
      <point x="-7" y="17" type="line"/>
      <point x="0" y="0" type="line"/>
      <point x="-60" y="-41"/>
      <point x="-114" y="-98"/>
      <point x="-114" y="-130" type="qcurve" smooth="yes"/>
      <point x="-114" y="-177"/>
      <point x="-62" y="-177" type="qcurve" smooth="yes"/>
      <point x="-25" y="-177"/>
      <point x="-5" y="-152" type="qcurve"/>
      <point x="16" y="-170" type="line"/>
      <point x="-4" y="-203"/>
    </contour>
  </outline>
</glyph>
<glyph name="u037E" format="2">
  <advance width="268"/>
  <unicode hex="037E"/>
  <outline>
    <contour>
      <point x="134" y="68" type="qcurve" smooth="yes"/>
      <point x="152" y="68"/>
      <point x="169" y="49"/>
      <point x="169" y="34" type="qcurve" smooth="yes"/>
      <point x="169" y="22" type="line" smooth="yes"/>
      <point x="169" y="-20"/>
      <point x="123" y="-112"/>
      <point x="88" y="-144" type="qcurve"/>
      <point x="58" y="-144" type="line"/>
      <point x="94" y="-108"/>
      <point x="127" y="-35"/>
      <point x="132" y="-6" type="qcurve"/>
      <point x="114" y="-5"/>
      <point x="99" y="13"/>
      <point x="99" y="24" type="qcurve" smooth="yes"/>
      <point x="99" y="34" type="line" smooth="yes"/>
      <point x="99" y="49"/>
      <point x="115" y="68"/>
    </contour>
    <contour>
      <point x="134" y="425" type="qcurve" smooth="yes"/>
      <point x="117" y="425"/>
      <point x="99" y="443"/>
      <point x="99" y="458" type="qcurve" smooth="yes"/>
      <point x="99" y="467" type="line" smooth="yes"/>
      <point x="99" y="482"/>
      <point x="117" y="500"/>
      <point x="134" y="500" type="qcurve" smooth="yes"/>
      <point x="151" y="500"/>
      <point x="169" y="482"/>
      <point x="169" y="467" type="qcurve" smooth="yes"/>
      <point x="169" y="458" type="line" smooth="yes"/>
      <point x="169" y="443"/>
      <point x="151" y="425"/>
    </contour>
  </outline>
</glyph>
<glyph name="tonos" format="2">
  <advance width="600"/>
  <unicode hex="0384"/>
  <outline>
    <contour>
      <point x="312" y="587" type="line"/>
      <point x="286" y="593" type="line"/>
      <point x="345" y="758" type="line"/>
      <point x="380" y="749" type="line"/>
    </contour>
  </outline>
</glyph>
<glyph name="dialytikatonos" format="2">
  <advance width="600"/>
  <unicode hex="0385"/>
  <outline>
    <contour>
      <point x="281" y="587" type="line"/>
      <point x="257" y="593" type="line"/>
      <point x="316" y="758" type="line"/>
      <point x="349" y="749" type="line"/>
    </contour>
    <contour>
      <point x="203" y="636" type="qcurve" smooth="yes"/>
      <point x="188" y="636"/>
      <point x="175" y="652"/>
      <point x="175" y="663" type="qcurve" smooth="yes"/>
      <point x="175" y="671" type="line" smooth="yes"/>
      <point x="175" y="682"/>
      <point x="188" y="698"/>
      <point x="203" y="698" type="qcurve" smooth="yes"/>
      <point x="218" y="698"/>
      <point x="231" y="682"/>
      <point x="231" y="671" type="qcurve" smooth="yes"/>
      <point x="231" y="663" type="line" smooth="yes"/>
      <point x="231" y="652"/>
      <point x="218" y="636"/>
    </contour>
    <contour>
      <point x="397" y="636" type="qcurve" smooth="yes"/>
      <point x="382" y="636"/>
      <point x="369" y="652"/>
      <point x="369" y="663" type="qcurve" smooth="yes"/>
      <point x="369" y="671" type="line" smooth="yes"/>
      <point x="369" y="682"/>
      <point x="382" y="698"/>
      <point x="397" y="698" type="qcurve" smooth="yes"/>
      <point x="412" y="698"/>
      <point x="425" y="682"/>
      <point x="425" y="671" type="qcurve" smooth="yes"/>
      <point x="425" y="663" type="line" smooth="yes"/>
      <point x="425" y="652"/>
      <point x="412" y="636"/>
    </contour>
  </outline>
</glyph>
<glyph name="Iotatonos" format="2">
  <advance width="445"/>
  <unicode hex="038A"/>
  <outline>
    <contour>
      <point x="173" y="749" type="line"/>
      <point x="105" y="587" type="line"/>
      <point x="79" y="593" type="line"/>
      <point x="138" y="758" type="line"/>
    </contour>
    <contour>
      <point x="256" y="0" type="line"/>
      <point x="256" y="698" type="line"/>
      <point x="293" y="698" type="line"/>
      <point x="293" y="0" type="line"/>
    </contour>
  </outline>
</glyph>
<glyph name="Upsilontonos" format="2">
  <advance width="637"/>
  <unicode hex="038E"/>
  <outline>
    <contour>
      <point x="340" y="0" type="line"/>
      <point x="340" y="290" type="line"/>
      <point x="99" y="698" type="line"/>
      <point x="141" y="698" type="line"/>
      <point x="357" y="330" type="line"/>
      <point x="360" y="330" type="line"/>
      <point x="577" y="698" type="line"/>
      <point x="618" y="698" type="line"/>
      <point x="377" y="290" type="line"/>
      <point x="377" y="0" type="line"/>
    </contour>
    <contour>
      <point x="5" y="587" type="line"/>
      <point x="-21" y="593" type="line"/>
      <point x="38" y="758" type="line"/>
      <point x="73" y="749" type="line"/>
    </contour>
  </outline>
</glyph>
<glyph name="Omicron" format="2">
  <advance width="686"/>
  <unicode hex="039F"/>
  <outline>
    <contour>
      <point x="343" y="21" type="qcurve" smooth="yes"/>
      <point x="452" y="21"/>
      <point x="579" y="173"/>
      <point x="579" y="319" type="qcurve" smooth="yes"/>
      <point x="579" y="379" type="line" smooth="yes"/>
      <point x="579" y="525"/>
      <point x="452" y="677"/>
      <point x="343" y="677" type="qcurve" smooth="yes"/>
      <point x="234" y="677"/>
      <point x="107" y="525"/>
      <point x="107" y="379" type="qcurve" smooth="yes"/>
      <point x="107" y="319" type="line" smooth="yes"/>
      <point x="107" y="173"/>
      <point x="234" y="21"/>
    </contour>
    <contour>
      <point x="343" y="-12" type="qcurve" smooth="yes"/>
      <point x="212" y="-12"/>
      <point x="67" y="169"/>
      <point x="67" y="349" type="qcurve" smooth="yes"/>
      <point x="67" y="529"/>
      <point x="212" y="710"/>
      <point x="343" y="710" type="qcurve" smooth="yes"/>
      <point x="474" y="710"/>
      <point x="619" y="529"/>
      <point x="619" y="349" type="qcurve" smooth="yes"/>
      <point x="619" y="169"/>
      <point x="474" y="-12"/>
    </contour>
  </outline>
</glyph>
<glyph name="Pi" format="2">
  <advance width="682"/>
  <unicode hex="03A0"/>
  <outline>
    <contour>
      <point x="104" y="698" type="line"/>
      <point x="577" y="698" type="line"/>
      <point x="577" y="0" type="line"/>
      <point x="540" y="0" type="line"/>
      <point x="540" y="665" type="line"/>
      <point x="141" y="665" type="line"/>
      <point x="141" y="0" type="line"/>
      <point x="104" y="0" type="line"/>
    </contour>
  </outline>
</glyph>
<glyph name="Phi" format="2">
  <advance width="833"/>
  <unicode hex="03A6"/>
  <outline>
    <contour>
      <point x="467" y="67" type="line" smooth="yes"/>
      <point x="532" y="67"/>
      <point x="630" y="109"/>
      <point x="696" y="179"/>
      <point x="730" y="273"/>
      <point x="730" y="324" type="qcurve" smooth="yes"/>
      <point x="730" y="384" type="line" smooth="yes"/>
      <point x="730" y="435"/>
      <point x="696" y="529"/>
      <point x="630" y="599"/>
      <point x="532" y="641"/>
      <point x="467" y="641" type="qcurve" smooth="yes"/>
      <point x="435" y="641" type="line"/>
      <point x="435" y="67" type="line"/>
    </contour>
    <contour>
      <point x="398" y="641" type="line"/>
      <point x="366" y="641" type="line" smooth="yes"/>
      <point x="301" y="641"/>
      <point x="203" y="599"/>
      <point x="137" y="529"/>
      <point x="103" y="435"/>
      <point x="103" y="384" type="qcurve" smooth="yes"/>
      <point x="103" y="324" type="line" smooth="yes"/>
      <point x="103" y="273"/>
      <point x="137" y="179"/>
      <point x="203" y="109"/>
      <point x="301" y="67"/>
      <point x="366" y="67" type="qcurve" smooth="yes"/>
      <point x="398" y="67" type="line"/>
    </contour>
    <contour>
      <point x="398" y="36" type="line"/>
      <point x="366" y="36" type="line" smooth="yes"/>
      <point x="292" y="36"/>
      <point x="179" y="81"/>
      <point x="103" y="165"/>
      <point x="63" y="282"/>
      <point x="63" y="354" type="qcurve" smooth="yes"/>
      <point x="63" y="426"/>
      <point x="103" y="543"/>
      <point x="179" y="627"/>
      <point x="292" y="672"/>
      <point x="366" y="672" type="qcurve" smooth="yes"/>
      <point x="398" y="672" type="line"/>
      <point x="398" y="725" type="line"/>
      <point x="435" y="725" type="line"/>
      <point x="435" y="672" type="line"/>
      <point x="467" y="672" type="line" smooth="yes"/>
      <point x="540" y="672"/>
      <point x="654" y="627"/>
      <point x="730" y="543"/>
      <point x="770" y="426"/>
      <point x="770" y="354" type="qcurve" smooth="yes"/>
      <point x="770" y="282"/>
      <point x="730" y="165"/>
      <point x="654" y="81"/>
      <point x="540" y="36"/>
      <point x="467" y="36" type="qcurve" smooth="yes"/>
      <point x="435" y="36" type="line"/>
      <point x="435" y="-29" type="line"/>
      <point x="398" y="-29" type="line"/>
    </contour>
  </outline>
</glyph>
<glyph name="Omega" format="2">
  <advance width="718"/>
  <unicode hex="03A9"/>
  <outline>
    <contour>
      <point x="84" y="33" type="line"/>
      <point x="257" y="33" type="line"/>
      <point x="257" y="48" type="line"/>
      <point x="165" y="100"/>
      <point x="80" y="257"/>
      <point x="80" y="379" type="qcurve" smooth="yes"/>
      <point x="80" y="454"/>
      <point x="116" y="577"/>
      <point x="186" y="663"/>
      <point x="290" y="710"/>
      <point x="359" y="710" type="qcurve" smooth="yes"/>
      <point x="428" y="710"/>
      <point x="532" y="663"/>
      <point x="602" y="577"/>
      <point x="638" y="454"/>
      <point x="638" y="379" type="qcurve" smooth="yes"/>
      <point x="638" y="257"/>
      <point x="553" y="100"/>
      <point x="461" y="48" type="qcurve"/>
      <point x="461" y="33" type="line"/>
      <point x="634" y="33" type="line"/>
      <point x="634" y="0" type="line"/>
      <point x="429" y="0" type="line"/>
      <point x="429" y="64" type="line"/>
      <point x="456" y="76"/>
      <point x="516" y="123"/>
      <point x="566" y="194"/>
      <point x="598" y="287"/>
      <point x="598" y="346" type="qcurve" smooth="yes"/>
      <point x="598" y="416" type="line" smooth="yes"/>
      <point x="598" y="473"/>
      <point x="565" y="569"/>
      <point x="503" y="638"/>
      <point x="414" y="677"/>
      <point x="359" y="677" type="qcurve" smooth="yes"/>
      <point x="304" y="677"/>
      <point x="215" y="638"/>
      <point x="153" y="569"/>
      <point x="120" y="473"/>
      <point x="120" y="416" type="qcurve" smooth="yes"/>
      <point x="120" y="346" type="line" smooth="yes"/>
      <point x="120" y="287"/>
      <point x="152" y="194"/>
      <point x="202" y="123"/>
      <point x="262" y="76"/>
      <point x="289" y="64" type="qcurve"/>
      <point x="289" y="0" type="line"/>
      <point x="84" y="0" type="line"/>
    </contour>
  </outline>
</glyph>
<glyph name="Iotadieresis" format="2">
  <advance width="245"/>
  <unicode hex="03AA"/>
  <outline>
    <contour>
      <point x="99" y="0" type="line"/>
      <point x="99" y="698" type="line"/>
      <point x="136" y="698" type="line"/>
      <point x="136" y="0" type="line"/>
    </contour>
    <contour>
      <point x="34" y="812" type="qcurve" smooth="yes"/>
      <point x="17" y="812"/>
      <point x="4" y="828"/>
      <point x="4" y="839" type="qcurve" smooth="yes"/>
      <point x="4" y="847" type="line" smooth="yes"/>
      <point x="4" y="858"/>
      <point x="17" y="874"/>
      <point x="34" y="874" type="qcurve" smooth="yes"/>
      <point x="50" y="874"/>
      <point x="63" y="858"/>
      <point x="63" y="847" type="qcurve" smooth="yes"/>
      <point x="63" y="839" type="line" smooth="yes"/>
      <point x="63" y="828"/>
      <point x="50" y="812"/>
    </contour>
    <contour>
      <point x="216" y="812" type="qcurve" smooth="yes"/>
      <point x="200" y="812"/>
      <point x="187" y="828"/>
      <point x="187" y="839" type="qcurve" smooth="yes"/>
      <point x="187" y="847" type="line" smooth="yes"/>
      <point x="187" y="858"/>
      <point x="200" y="874"/>
      <point x="216" y="874" type="qcurve" smooth="yes"/>
      <point x="233" y="874"/>
      <point x="246" y="858"/>
      <point x="246" y="847" type="qcurve" smooth="yes"/>
      <point x="246" y="839" type="line" smooth="yes"/>
      <point x="246" y="828"/>
      <point x="233" y="812"/>
    </contour>
  </outline>
</glyph>
<glyph name="gamma" format="2">
  <advance width="477"/>
  <unicode hex="03B3"/>
  <outline>
    <contour>
      <point x="228" y="0" type="line"/>
      <point x="60" y="477" type="line"/>
      <point x="5" y="477" type="line"/>
      <point x="5" y="508" type="line"/>
      <point x="53" y="508" type="line" smooth="yes"/>
      <point x="70" y="508"/>
      <point x="90" y="496"/>
      <point x="95" y="481" type="qcurve" smooth="yes"/>
      <point x="212" y="148" type="line"/>
      <point x="244" y="41" type="line"/>
      <point x="248" y="41" type="line"/>
      <point x="285" y="148" type="line"/>
      <point x="419" y="508" type="line"/>
      <point x="453" y="508" type="line"/>
      <point x="263" y="0" type="line"/>
      <point x="263" y="-200" type="line"/>
      <point x="228" y="-200" type="line"/>
    </contour>
  </outline>
</glyph>
<glyph name="mugreek" format="2">
  <advance width="576"/>
  <unicode hex="03BC"/>
  <outline>
    <contour>
      <point x="100" y="-200" type="line"/>
      <point x="100" y="508" type="line"/>
      <point x="135" y="508" type="line"/>
      <point x="135" y="188" type="line" smooth="yes"/>
      <point x="135" y="101"/>
      <point x="211" y="19"/>
      <point x="281" y="19" type="qcurve" smooth="yes"/>
      <point x="311" y="19"/>
      <point x="365" y="35"/>
      <point x="407" y="67"/>
      <point x="432" y="115"/>
      <point x="432" y="148" type="qcurve" smooth="yes"/>
      <point x="432" y="508" type="line"/>
      <point x="467" y="508" type="line"/>
      <point x="467" y="31" type="line"/>
      <point x="546" y="31" type="line"/>
      <point x="546" y="0" type="line"/>
      <point x="475" y="0" type="line" smooth="yes"/>
      <point x="432" y="0"/>
      <point x="432" y="42" type="qcurve" smooth="yes"/>
      <point x="432" y="78" type="line"/>
      <point x="429" y="78" type="line"/>
      <point x="415" y="40"/>
      <point x="342" y="-12"/>
      <point x="279" y="-12" type="qcurve" smooth="yes"/>
      <point x="168" y="-12"/>
      <point x="131" y="80" type="qcurve"/>
      <point x="127" y="80" type="line"/>
      <point x="135" y="-49" type="line"/>
      <point x="135" y="-200" type="line"/>
    </contour>
  </outline>
</glyph>
<glyph name="sigma1" format="2">
  <advance width="486"/>
  <unicode hex="03C2"/>
  <outline>
    <contour>
      <point x="376" y="-13" type="line"/>
      <point x="288" y="10" type="line" smooth="yes"/>
      <point x="231" y="25"/>
      <point x="144" y="68"/>
      <point x="86" y="130"/>
      <point x="57" y="214"/>
      <point x="57" y="270" type="qcurve" smooth="yes"/>
      <point x="57" y="387"/>
      <point x="169" y="520"/>
      <point x="269" y="520" type="qcurve" smooth="yes"/>
      <point x="331" y="520"/>
      <point x="415" y="463"/>
      <point x="439" y="415" type="qcurve"/>
      <point x="409" y="400" type="line"/>
      <point x="387" y="443"/>
      <point x="320" y="489"/>
      <point x="269" y="489" type="qcurve" smooth="yes"/>
      <point x="227" y="489"/>
      <point x="163" y="460"/>
      <point x="118" y="407"/>
      <point x="95" y="335"/>
      <point x="95" y="292" type="qcurve" smooth="yes"/>
      <point x="95" y="252" type="line" smooth="yes"/>
      <point x="95" y="166"/>
      <point x="196" y="67"/>
      <point x="301" y="40" type="qcurve" smooth="yes"/>
      <point x="376" y="20" type="line" smooth="yes"/>
      <point x="409" y="11"/>
      <point x="409" y="-15" type="qcurve" smooth="yes"/>
      <point x="409" y="-19"/>
      <point x="408" y="-24" type="qcurve"/>
      <point x="372" y="-160" type="line"/>
      <point x="340" y="-151" type="line"/>
    </contour>
  </outline>
</glyph>
<glyph name="sigma" format="2">
  <advance width="558"/>
  <unicode hex="03C3"/>
  <outline>
    <contour>
      <point x="280" y="477" type="line" smooth="yes"/>
      <point x="191" y="477"/>
      <point x="95" y="367"/>
      <point x="95" y="274" type="qcurve" smooth="yes"/>
      <point x="95" y="223" type="line" smooth="yes"/>
      <point x="95" y="129"/>
      <point x="187" y="19"/>
      <point x="272" y="19" type="qcurve" smooth="yes"/>
      <point x="357" y="19"/>
      <point x="449" y="129"/>
      <point x="449" y="223" type="qcurve" smooth="yes"/>
      <point x="449" y="274" type="line" smooth="yes"/>
      <point x="449" y="339"/>
      <point x="400" y="440"/>
      <point x="345" y="477" type="qcurve"/>
    </contour>
    <contour>
      <point x="380" y="477" type="line"/>
      <point x="380" y="473" type="line"/>
      <point x="434" y="442"/>
      <point x="487" y="335"/>
      <point x="487" y="248" type="qcurve" smooth="yes"/>
      <point x="487" y="123"/>
      <point x="372" y="-12"/>
      <point x="272" y="-12" type="qcurve" smooth="yes"/>
      <point x="172" y="-12"/>
      <point x="57" y="123"/>
      <point x="57" y="248" type="qcurve" smooth="yes"/>
      <point x="57" y="372"/>
      <point x="174" y="508"/>
      <point x="280" y="508" type="qcurve" smooth="yes"/>
      <point x="531" y="508" type="line"/>
      <point x="531" y="477" type="line"/>
    </contour>
  </outline>
</glyph>
<glyph name="upsilontonos" format="2">
  <advance width="551"/>
  <unicode hex="03CD"/>
  <outline>
    <contour>
      <point x="126" y="220" type="line" smooth="yes"/>
      <point x="126" y="164"/>
      <point x="144" y="87"/>
      <point x="182" y="40"/>
      <point x="238" y="19"/>
      <point x="276" y="19" type="qcurve" smooth="yes"/>
      <point x="313" y="19"/>
      <point x="369" y="40"/>
      <point x="407" y="87"/>
      <point x="425" y="164"/>
      <point x="425" y="220" type="qcurve" smooth="yes"/>
      <point x="425" y="508" type="line"/>
      <point x="460" y="508" type="line"/>
      <point x="460" y="233" type="line" smooth="yes"/>
      <point x="460" y="101"/>
      <point x="370" y="-12"/>
      <point x="276" y="-12" type="qcurve" smooth="yes"/>
      <point x="181" y="-12"/>
      <point x="91" y="101"/>
      <point x="91" y="233" type="qcurve" smooth="yes"/>
      <point x="91" y="508" type="line"/>
      <point x="126" y="508" type="line"/>
    </contour>
    <contour>
      <point x="283" y="587" type="line"/>
      <point x="257" y="593" type="line"/>
      <point x="316" y="758" type="line"/>
      <point x="351" y="749" type="line"/>
    </contour>
  </outline>
</glyph>
<glyph name="u0402" format="2">
  <advance width="775"/>
  <unicode hex="0402"/>
  <outline>
    <contour>
      <point x="514" y="-164" type="line"/>
      <point x="514" y="-131" type="line"/>
      <point x="599" y="-131" type="line"/>
      <point x="673" y="-105"/>
      <point x="673" y="47" type="qcurve" smooth="yes"/>
      <point x="673" y="194" type="line" smooth="yes"/>
      <point x="673" y="300"/>
      <point x="571" y="394"/>
      <point x="477" y="394" type="qcurve" smooth="yes"/>
      <point x="365" y="394"/>
      <point x="300" y="367" type="qcurve"/>
      <point x="300" y="0" type="line"/>
      <point x="263" y="0" type="line"/>
      <point x="263" y="665" type="line"/>
      <point x="18" y="665" type="line"/>
      <point x="18" y="698" type="line"/>
      <point x="545" y="698" type="line"/>
      <point x="545" y="665" type="line"/>
      <point x="300" y="665" type="line"/>
      <point x="300" y="400" type="line"/>
      <point x="305" y="400" type="line"/>
      <point x="371" y="427"/>
      <point x="480" y="427" type="qcurve" smooth="yes"/>
      <point x="596" y="427"/>
      <point x="710" y="313"/>
      <point x="710" y="194" type="qcurve" smooth="yes"/>
      <point x="710" y="47" type="line" smooth="yes"/>
      <point x="710" y="-68"/>
      <point x="638" y="-164"/>
      <point x="573" y="-164" type="qcurve" smooth="yes"/>
    </contour>
  </outline>
</glyph>
<glyph name="Gjecyr" format="2">
  <advance width="504"/>
  <unicode hex="0403"/>
  <outline>
    <contour>
      <point x="104" y="0" type="line"/>
      <point x="104" y="698" type="line"/>
      <point x="465" y="698" type="line"/>
      <point x="465" y="665" type="line"/>
      <point x="141" y="665" type="line"/>
      <point x="141" y="0" type="line"/>
    </contour>
    <contour>
      <point x="249" y="777" type="line"/>
      <point x="354" y="935" type="line"/>
      <point x="386" y="918" type="line"/>
      <point x="273" y="764" type="line"/>
    </contour>
  </outline>
</glyph>
<glyph name="Eukrcyr" format="2">
  <advance width="615"/>
  <unicode hex="0404"/>
  <outline>
    <contour>
      <point x="333" y="-12" type="qcurve" smooth="yes"/>
      <point x="205" y="-12"/>
      <point x="67" y="168"/>
      <point x="67" y="348" type="qcurve" smooth="yes"/>
      <point x="67" y="528"/>
      <point x="205" y="710"/>
      <point x="333" y="710" type="qcurve" smooth="yes"/>
      <point x="414" y="710"/>
      <point x="526" y="632"/>
      <point x="555" y="565" type="qcurve"/>
      <point x="525" y="548" type="line"/>
      <point x="499" y="609"/>
      <point x="402" y="677"/>
      <point x="333" y="677" type="qcurve" smooth="yes"/>
      <point x="226" y="677"/>
      <point x="107" y="525"/>
      <point x="107" y="370" type="qcurve"/>
      <point x="441" y="370" type="line"/>
      <point x="441" y="337" type="line"/>
      <point x="107" y="337" type="line"/>
      <point x="107" y="320" type="line" smooth="yes"/>
      <point x="107" y="171"/>
      <point x="226" y="21"/>
      <point x="333" y="21" type="qcurve" smooth="yes"/>
      <point x="407" y="21"/>
      <point x="505" y="94"/>
      <point x="530" y="158" type="qcurve"/>
      <point x="560" y="142" type="line"/>
      <point x="532" y="71"/>
      <point x="416" y="-12"/>
    </contour>
  </outline>
</glyph>
<glyph name="u0409" format="2">
  <advance width="987"/>
  <unicode hex="0409"/>
  <outline>
    <contour>
      <point x="752" y="33" type="line" smooth="yes"/>
      <point x="823" y="33"/>
      <point x="891" y="119"/>
      <point x="891" y="179" type="qcurve" smooth="yes"/>
      <point x="891" y="224" type="line" smooth="yes"/>
      <point x="891" y="284"/>
      <point x="823" y="370"/>
      <point x="752" y="370" type="qcurve" smooth="yes"/>
      <point x="522" y="370" type="line"/>
      <point x="522" y="33" type="line"/>
    </contour>
    <contour>
      <point x="485" y="0" type="line"/>
      <point x="485" y="665" type="line"/>
      <point x="214" y="665" type="line"/>
      <point x="214" y="510" type="line" smooth="yes"/>
      <point x="214" y="126"/>
      <point x="112" y="25" type="qcurve"/>
      <point x="89" y="0"/>
      <point x="48" y="0" type="qcurve" smooth="yes"/>
      <point x="8" y="0" type="line"/>
      <point x="8" y="33" type="line"/>
      <point x="74" y="33" type="line"/>
      <point x="179" y="131"/>
      <point x="179" y="511" type="qcurve" smooth="yes"/>
      <point x="179" y="698" type="line"/>
      <point x="522" y="698" type="line"/>
      <point x="522" y="403" type="line"/>
      <point x="752" y="403" type="line" smooth="yes"/>
      <point x="840" y="403"/>
      <point x="931" y="295"/>
      <point x="931" y="201" type="qcurve" smooth="yes"/>
      <point x="931" y="108"/>
      <point x="840" y="0"/>
      <point x="752" y="0" type="qcurve" smooth="yes"/>
    </contour>
  </outline>
</glyph>
<glyph name="u040A" format="2">
  <advance width="1034"/>
  <unicode hex="040A"/>
  <outline>
    <contour>
      <point x="800" y="33" type="line" smooth="yes"/>
      <point x="866" y="33"/>
      <point x="905" y="74" type="qcurve"/>
      <point x="939" y="114"/>
      <point x="939" y="172" type="qcurve" smooth="yes"/>
      <point x="939" y="216" type="line" smooth="yes"/>
      <point x="939" y="272"/>
      <point x="905" y="314" type="qcurve"/>
      <point x="866" y="354"/>
      <point x="800" y="354" type="qcurve" smooth="yes"/>
      <point x="567" y="354" type="line"/>
      <point x="567" y="33" type="line"/>
    </contour>
    <contour>
      <point x="531" y="0" type="line"/>
      <point x="531" y="354" type="line"/>
      <point x="141" y="354" type="line"/>
      <point x="141" y="0" type="line"/>
      <point x="104" y="0" type="line"/>
      <point x="104" y="698" type="line"/>
      <point x="141" y="698" type="line"/>
      <point x="141" y="387" type="line"/>
      <point x="531" y="387" type="line"/>
      <point x="531" y="698" type="line"/>
      <point x="567" y="698" type="line"/>
      <point x="567" y="387" type="line"/>
      <point x="800" y="387" type="line" smooth="yes"/>
      <point x="888" y="387"/>
      <point x="979" y="284"/>
      <point x="979" y="194" type="qcurve" smooth="yes"/>
      <point x="979" y="104"/>
      <point x="888" y="0"/>
      <point x="800" y="0" type="qcurve" smooth="yes"/>
    </contour>
  </outline>
</glyph>
<glyph name="afii10062" format="2">
  <advance width="579"/>
  <unicode hex="040E"/>
  <outline>
    <contour>
      <point x="301" y="781" type="qcurve" smooth="yes"/>
      <point x="251" y="781"/>
      <point x="195" y="832"/>
      <point x="178" y="869" type="qcurve"/>
      <point x="164" y="897" type="line"/>
      <point x="194" y="910" type="line"/>
      <point x="229" y="840" type="line"/>
      <point x="258" y="808"/>
      <point x="301" y="808" type="qcurve" smooth="yes"/>
      <point x="345" y="808"/>
      <point x="373" y="840" type="qcurve"/>
      <point x="408" y="910" type="line"/>
      <point x="438" y="897" type="line"/>
      <point x="424" y="869" type="line"/>
      <point x="408" y="832"/>
      <point x="351" y="781"/>
    </contour>
    <contour>
      <point x="155" y="0" type="line"/>
      <point x="155" y="32" type="line"/>
      <point x="248" y="32" type="line"/>
      <point x="295" y="149" type="line"/>
      <point x="28" y="698" type="line"/>
      <point x="68" y="698" type="line"/>
      <point x="270" y="283"/>
      <point x="311" y="196" type="qcurve"/>
      <point x="314" y="196" type="line"/>
      <point x="347" y="284" type="line"/>
      <point x="513" y="698" type="line"/>
      <point x="551" y="698" type="line"/>
      <point x="285" y="36" type="line"/>
      <point x="273" y="0"/>
      <point x="229" y="0" type="qcurve" smooth="yes"/>
    </contour>
  </outline>
</glyph>
<glyph name="afii10145" format="2">
  <advance width="681"/>
  <unicode hex="040F"/>
  <outline>
    <contour>
      <point x="323" y="-150" type="line"/>
      <point x="323" y="0" type="line"/>
      <point x="104" y="0" type="line"/>
      <point x="104" y="698" type="line"/>
      <point x="141" y="698" type="line"/>
      <point x="141" y="33" type="line"/>
      <point x="540" y="33" type="line"/>
      <point x="540" y="698" type="line"/>
      <point x="577" y="698" type="line"/>
      <point x="577" y="0" type="line"/>
      <point x="358" y="0" type="line"/>
      <point x="358" y="-150" type="line"/>
    </contour>
  </outline>
</glyph>
<glyph name="afii10024" format="2">
  <advance width="923"/>
  <unicode hex="0416"/>
  <outline>
    <contour>
      <point x="825" y="0" type="line" smooth="yes"/>
      <point x="794" y="0"/>
      <point x="779" y="30" type="qcurve"/>
      <point x="612" y="339" type="line"/>
      <point x="480" y="339" type="line"/>
      <point x="480" y="0" type="line"/>
      <point x="443" y="0" type="line"/>
      <point x="443" y="339" type="line"/>
      <point x="311" y="339" type="line"/>
      <point x="144" y="30" type="line"/>
      <point x="130" y="0"/>
      <point x="98" y="0" type="qcurve" smooth="yes"/>
      <point x="44" y="0" type="line"/>
      <point x="44" y="33" type="line"/>
      <point x="104" y="33" type="line"/>
      <point x="258" y="318" type="line" smooth="yes"/>
      <point x="275" y="351"/>
      <point x="299" y="353" type="qcurve"/>
      <point x="299" y="356" type="line"/>
      <point x="277" y="361"/>
      <point x="260" y="392" type="qcurve"/>
      <point x="118" y="665" type="line"/>
      <point x="58" y="665" type="line"/>
      <point x="58" y="698" type="line"/>
      <point x="108" y="698" type="line" smooth="yes"/>
      <point x="143" y="698"/>
      <point x="158" y="665" type="qcurve"/>
      <point x="311" y="371" type="line"/>
      <point x="443" y="371" type="line"/>
      <point x="443" y="698" type="line"/>
      <point x="480" y="698" type="line"/>
      <point x="480" y="371" type="line"/>
      <point x="612" y="371" type="line"/>
      <point x="765" y="665" type="line"/>
      <point x="781" y="698"/>
      <point x="815" y="698" type="qcurve" smooth="yes"/>
      <point x="865" y="698" type="line"/>
      <point x="865" y="665" type="line"/>
      <point x="805" y="665" type="line"/>
      <point x="663" y="392" type="line" smooth="yes"/>
      <point x="647" y="361"/>
      <point x="624" y="356" type="qcurve"/>
      <point x="624" y="353" type="line"/>
      <point x="648" y="351"/>
      <point x="665" y="318" type="qcurve" smooth="yes"/>
      <point x="819" y="33" type="line"/>
      <point x="879" y="33" type="line"/>
      <point x="879" y="0" type="line"/>
    </contour>
  </outline>
</glyph>
<glyph name="u0419" format="2">
  <advance width="695"/>
  <unicode hex="0419"/>
  <outline>
    <contour>
      <point x="555" y="0" type="line"/>
      <point x="555" y="559" type="line"/>
      <point x="561" y="650" type="line"/>
      <point x="558" y="650" type="line"/>
      <point x="510" y="564" type="line"/>
      <point x="137" y="0" type="line"/>
      <point x="104" y="0" type="line"/>
      <point x="104" y="698" type="line"/>
      <point x="140" y="698" type="line"/>
      <point x="140" y="139" type="line"/>
      <point x="135" y="48" type="line"/>
      <point x="138" y="48" type="line"/>
      <point x="186" y="134" type="line"/>
      <point x="559" y="698" type="line"/>
      <point x="591" y="698" type="line"/>
      <point x="591" y="0" type="line"/>
    </contour>
    <contour>
      <point x="346" y="781" type="qcurve" smooth="yes"/>
      <point x="296" y="781"/>
      <point x="240" y="832"/>
      <point x="223" y="869" type="qcurve"/>
      <point x="209" y="897" type="line"/>
      <point x="239" y="910" type="line"/>
      <point x="274" y="840" type="line"/>
      <point x="303" y="808"/>
      <point x="346" y="808" type="qcurve" smooth="yes"/>
      <point x="390" y="808"/>
      <point x="418" y="840" type="qcurve"/>
      <point x="453" y="910" type="line"/>
      <point x="483" y="897" type="line"/>
      <point x="469" y="869" type="line"/>
      <point x="453" y="832"/>
      <point x="396" y="781"/>
    </contour>
  </outline>
</glyph>
<glyph name="afii10029" format="2">
  <advance width="649"/>
  <unicode hex="041B"/>
  <outline>
    <contour>
      <point x="508" y="0" type="line"/>
      <point x="508" y="665" type="line"/>
      <point x="215" y="665" type="line"/>
      <point x="215" y="510" type="line" smooth="yes"/>
      <point x="215" y="302"/>
      <point x="186" y="187" type="qcurve" smooth="yes"/>
      <point x="157" y="68"/>
      <point x="112" y="25" type="qcurve"/>
      <point x="89" y="0"/>
      <point x="48" y="0" type="qcurve" smooth="yes"/>
      <point x="8" y="0" type="line"/>
      <point x="8" y="33" type="line"/>
      <point x="74" y="33" type="line"/>
      <point x="179" y="131"/>
      <point x="179" y="511" type="qcurve" smooth="yes"/>
      <point x="179" y="698" type="line"/>
      <point x="545" y="698" type="line"/>
      <point x="545" y="0" type="line"/>
    </contour>
  </outline>
</glyph>
<glyph name="Ercyr" format="2">
  <advance width="597"/>
  <unicode hex="0420"/>
  <outline>
    <contour>
      <point x="375" y="349" type="line" smooth="yes"/>
      <point x="441" y="349"/>
      <point x="480" y="390" type="qcurve"/>
      <point x="514" y="431"/>
      <point x="514" y="485" type="qcurve" smooth="yes"/>
      <point x="514" y="529" type="line" smooth="yes"/>
      <point x="514" y="583"/>
      <point x="480" y="625" type="qcurve"/>
      <point x="441" y="665"/>
      <point x="375" y="665" type="qcurve" smooth="yes"/>
      <point x="141" y="665" type="line"/>
      <point x="141" y="349" type="line"/>
    </contour>
    <contour>
      <point x="104" y="0" type="line"/>
      <point x="104" y="698" type="line"/>
      <point x="375" y="698" type="line" smooth="yes"/>
      <point x="463" y="698"/>
      <point x="554" y="595"/>
      <point x="554" y="507" type="qcurve" smooth="yes"/>
      <point x="554" y="419"/>
      <point x="463" y="316"/>
      <point x="375" y="316" type="qcurve" smooth="yes"/>
      <point x="141" y="316" type="line"/>
      <point x="141" y="0" type="line"/>
    </contour>
  </outline>
</glyph>
<glyph name="u0422" format="2">
  <advance width="563"/>
  <unicode hex="0422"/>
  <outline>
    <contour>
      <point x="263" y="0" type="line"/>
      <point x="263" y="665" type="line"/>
      <point x="18" y="665" type="line"/>
      <point x="18" y="698" type="line"/>
      <point x="545" y="698" type="line"/>
      <point x="545" y="665" type="line"/>
      <point x="300" y="665" type="line"/>
      <point x="300" y="0" type="line"/>
    </contour>
  </outline>
</glyph>
<glyph name="u0424" format="2">
  <advance width="821"/>
  <unicode hex="0424"/>
  <outline>
    <contour>
      <point x="479" y="93" type="line" smooth="yes"/>
      <point x="590" y="93"/>
      <point x="660" y="165" type="qcurve"/>
      <point x="724" y="236"/>
      <point x="724" y="318" type="qcurve" smooth="yes"/>
      <point x="724" y="378" type="line" smooth="yes"/>
      <point x="724" y="461"/>
      <point x="660" y="531" type="qcurve"/>
      <point x="590" y="603"/>
      <point x="479" y="603" type="qcurve" smooth="yes"/>
      <point x="428" y="603" type="line"/>
      <point x="428" y="93" type="line"/>
    </contour>
    <contour>
      <point x="393" y="603" type="line"/>
      <point x="342" y="603" type="line" smooth="yes"/>
      <point x="232" y="603"/>
      <point x="162" y="531" type="qcurve"/>
      <point x="97" y="461"/>
      <point x="97" y="378" type="qcurve" smooth="yes"/>
      <point x="97" y="318" type="line" smooth="yes"/>
      <point x="97" y="236"/>
      <point x="162" y="165" type="qcurve"/>
      <point x="232" y="93"/>
      <point x="342" y="93" type="qcurve" smooth="yes"/>
      <point x="393" y="93" type="line"/>
    </contour>
    <contour>
      <point x="392" y="-29" type="line"/>
      <point x="392" y="61" type="line"/>
      <point x="342" y="61" type="line" smooth="yes"/>
      <point x="210" y="61"/>
      <point x="58" y="224"/>
      <point x="58" y="348" type="qcurve" smooth="yes"/>
      <point x="58" y="470"/>
      <point x="210" y="635"/>
      <point x="342" y="635" type="qcurve" smooth="yes"/>
      <point x="392" y="635" type="line"/>
      <point x="392" y="725" type="line"/>
      <point x="429" y="725" type="line"/>
      <point x="429" y="635" type="line"/>
      <point x="479" y="635" type="line" smooth="yes"/>
      <point x="611" y="635"/>
      <point x="688" y="553" type="qcurve"/>
      <point x="763" y="470"/>
      <point x="763" y="348" type="qcurve" smooth="yes"/>
      <point x="763" y="224"/>
      <point x="611" y="61"/>
      <point x="479" y="61" type="qcurve" smooth="yes"/>
      <point x="429" y="61" type="line"/>
      <point x="429" y="-29" type="line"/>
    </contour>
  </outline>
</glyph>
<glyph name="afii10040" format="2">
  <advance width="713"/>
  <unicode hex="0426"/>
  <outline>
    <contour>
      <point x="632" y="-150" type="line"/>
      <point x="632" y="0" type="line"/>
      <point x="104" y="0" type="line"/>
      <point x="104" y="698" type="line"/>
      <point x="141" y="698" type="line"/>
      <point x="141" y="33" type="line"/>
      <point x="540" y="33" type="line"/>
      <point x="540" y="698" type="line"/>
      <point x="577" y="698" type="line"/>
      <point x="577" y="33" type="line"/>
      <point x="667" y="33" type="line"/>
      <point x="667" y="-150" type="line"/>
    </contour>
  </outline>
</glyph>
<glyph name="afii10042" format="2">
  <advance width="915"/>
  <unicode hex="0428"/>
  <outline>
    <contour>
      <point x="104" y="0" type="line"/>
      <point x="104" y="698" type="line"/>
      <point x="141" y="698" type="line"/>
      <point x="141" y="34" type="line"/>
      <point x="439" y="34" type="line"/>
      <point x="439" y="698" type="line"/>
      <point x="476" y="698" type="line"/>
      <point x="476" y="34" type="line"/>
      <point x="774" y="34" type="line"/>
      <point x="774" y="698" type="line"/>
      <point x="811" y="698" type="line"/>
      <point x="811" y="0" type="line"/>
    </contour>
  </outline>
</glyph>
<glyph name="u0429" format="2">
  <advance width="947"/>
  <unicode hex="0429"/>
  <outline>
    <contour>
      <point x="866" y="-150" type="line"/>
      <point x="866" y="0" type="line"/>
      <point x="104" y="0" type="line"/>
      <point x="104" y="698" type="line"/>
      <point x="141" y="698" type="line"/>
      <point x="141" y="33" type="line"/>
      <point x="439" y="33" type="line"/>
      <point x="439" y="698" type="line"/>
      <point x="476" y="698" type="line"/>
      <point x="476" y="33" type="line"/>
      <point x="774" y="33" type="line"/>
      <point x="774" y="698" type="line"/>
      <point x="811" y="698" type="line"/>
      <point x="811" y="33" type="line"/>
      <point x="901" y="33" type="line"/>
      <point x="901" y="-150" type="line"/>
    </contour>
  </outline>
</glyph>
<glyph name="u042B" format="2">
  <advance width="834"/>
  <unicode hex="042B"/>
  <outline>
    <contour>
      <point x="371" y="33" type="line" smooth="yes"/>
      <point x="442" y="33"/>
      <point x="510" y="119"/>
      <point x="510" y="179" type="qcurve" smooth="yes"/>
      <point x="510" y="224" type="line" smooth="yes"/>
      <point x="510" y="284"/>
      <point x="442" y="370"/>
      <point x="371" y="370" type="qcurve" smooth="yes"/>
      <point x="141" y="370" type="line"/>
      <point x="141" y="33" type="line"/>
    </contour>
    <contour>
      <point x="693" y="0" type="line"/>
      <point x="693" y="698" type="line"/>
      <point x="730" y="698" type="line"/>
      <point x="730" y="0" type="line"/>
    </contour>
    <contour>
      <point x="104" y="0" type="line"/>
      <point x="104" y="698" type="line"/>
      <point x="141" y="698" type="line"/>
      <point x="141" y="403" type="line"/>
      <point x="371" y="403" type="line" smooth="yes"/>
      <point x="459" y="403"/>
      <point x="549" y="295"/>
      <point x="549" y="201" type="qcurve" smooth="yes"/>
      <point x="549" y="108"/>
      <point x="459" y="0"/>
      <point x="371" y="0" type="qcurve" smooth="yes"/>
    </contour>
  </outline>
</glyph>
<glyph name="afii10046" format="2">
  <advance width="615"/>
  <unicode hex="042C"/>
  <outline>
    <contour>
      <point x="104" y="0" type="line"/>
      <point x="104" y="698" type="line"/>
      <point x="141" y="698" type="line"/>
      <point x="141" y="403" type="line"/>
      <point x="381" y="403" type="line" smooth="yes"/>
      <point x="469" y="403"/>
      <point x="559" y="295"/>
      <point x="559" y="201" type="qcurve" smooth="yes"/>
      <point x="559" y="108"/>
      <point x="469" y="0"/>
      <point x="381" y="0" type="qcurve" smooth="yes"/>
    </contour>
    <contour>
      <point x="381" y="33" type="line" smooth="yes"/>
      <point x="452" y="33"/>
      <point x="520" y="119"/>
      <point x="520" y="179" type="qcurve" smooth="yes"/>
      <point x="520" y="224" type="line" smooth="yes"/>
      <point x="520" y="284"/>
      <point x="452" y="370"/>
      <point x="381" y="370" type="qcurve" smooth="yes"/>
      <point x="141" y="370" type="line"/>
      <point x="141" y="33" type="line"/>
    </contour>
  </outline>
</glyph>
<glyph name="Ereversedcyr" format="2">
  <advance width="615"/>
  <unicode hex="042D"/>
  <outline>
    <contour>
      <point x="282" y="-12" type="qcurve" smooth="yes"/>
      <point x="199" y="-12"/>
      <point x="83" y="71"/>
      <point x="55" y="142" type="qcurve"/>
      <point x="85" y="158" type="line"/>
      <point x="110" y="94"/>
      <point x="208" y="21"/>
      <point x="282" y="21" type="qcurve" smooth="yes"/>
      <point x="389" y="21"/>
      <point x="508" y="173"/>
      <point x="508" y="322" type="qcurve" smooth="yes"/>
      <point x="508" y="337" type="line"/>
      <point x="174" y="337" type="line"/>
      <point x="174" y="370" type="line"/>
      <point x="508" y="370" type="line"/>
      <point x="508" y="378" type="line" smooth="yes"/>
      <point x="508" y="527"/>
      <point x="389" y="677"/>
      <point x="282" y="677" type="qcurve" smooth="yes"/>
      <point x="213" y="677"/>
      <point x="116" y="609"/>
      <point x="90" y="548" type="qcurve"/>
      <point x="60" y="565" type="line"/>
      <point x="89" y="632"/>
      <point x="202" y="710"/>
      <point x="282" y="710" type="qcurve" smooth="yes"/>
      <point x="410" y="710"/>
      <point x="548" y="530"/>
      <point x="548" y="350" type="qcurve" smooth="yes"/>
      <point x="548" y="170"/>
      <point x="410" y="-12"/>
    </contour>
  </outline>
</glyph>
<glyph name="afii10048" format="2">
  <advance width="918"/>
  <unicode hex="042E"/>
  <outline>
    <contour>
      <point x="580" y="-12" type="qcurve" smooth="yes"/>
      <point x="451" y="-12"/>
      <point x="312" y="164"/>
      <point x="309" y="338" type="qcurve"/>
      <point x="141" y="338" type="line"/>
      <point x="141" y="0" type="line"/>
      <point x="104" y="0" type="line"/>
      <point x="104" y="698" type="line"/>
      <point x="141" y="698" type="line"/>
      <point x="141" y="371" type="line"/>
      <point x="310" y="371" type="line"/>
      <point x="315" y="541"/>
      <point x="455" y="710"/>
      <point x="580" y="710" type="qcurve" smooth="yes"/>
      <point x="711" y="710"/>
      <point x="851" y="530"/>
      <point x="851" y="349" type="qcurve" smooth="yes"/>
      <point x="851" y="168"/>
      <point x="711" y="-12"/>
    </contour>
    <contour>
      <point x="580" y="21" type="qcurve" smooth="yes"/>
      <point x="688" y="21"/>
      <point x="811" y="172"/>
      <point x="811" y="319" type="qcurve" smooth="yes"/>
      <point x="811" y="379" type="line" smooth="yes"/>
      <point x="811" y="526"/>
      <point x="688" y="677"/>
      <point x="580" y="677" type="qcurve" smooth="yes"/>
      <point x="472" y="677"/>
      <point x="349" y="526"/>
      <point x="349" y="379" type="qcurve" smooth="yes"/>
      <point x="349" y="319" type="line" smooth="yes"/>
      <point x="349" y="172"/>
      <point x="472" y="21"/>
    </contour>
  </outline>
</glyph>
<glyph name="u042F" format="2">
  <advance width="632"/>
  <unicode hex="042F"/>
  <outline>
    <contour>
      <point x="491" y="665" type="line"/>
      <point x="258" y="665" type="line" smooth="yes"/>
      <point x="191" y="665"/>
      <point x="153" y="625" type="qcurve"/>
      <point x="118" y="583"/>
      <point x="118" y="529" type="qcurve" smooth="yes"/>
      <point x="118" y="485" type="line" smooth="yes"/>
      <point x="118" y="431"/>
      <point x="190" y="349"/>
      <point x="258" y="349" type="qcurve" smooth="yes"/>
      <point x="491" y="349" type="line"/>
    </contour>
    <contour>
      <point x="491" y="0" type="line"/>
      <point x="491" y="317" type="line"/>
      <point x="285" y="317" type="line"/>
      <point x="135" y="30" type="line"/>
      <point x="121" y="0"/>
      <point x="89" y="0" type="qcurve" smooth="yes"/>
      <point x="37" y="0" type="line"/>
      <point x="37" y="33" type="line"/>
      <point x="96" y="33" type="line"/>
      <point x="224" y="278" type="line"/>
      <point x="233" y="298"/>
      <point x="250" y="314"/>
      <point x="261" y="316" type="qcurve"/>
      <point x="261" y="320" type="line"/>
      <point x="168" y="320"/>
      <point x="79" y="423"/>
      <point x="79" y="508" type="qcurve" smooth="yes"/>
      <point x="79" y="596"/>
      <point x="170" y="698"/>
      <point x="258" y="698" type="qcurve" smooth="yes"/>
      <point x="528" y="698" type="line"/>
      <point x="528" y="0" type="line"/>
    </contour>
  </outline>
</glyph>
<glyph name="acyrillic" format="2">
  <advance width="514"/>
  <unicode hex="0430"/>
  <outline>
    <contour>
      <point x="222" y="-12" type="qcurve" smooth="yes"/>
      <point x="143" y="-12"/>
      <point x="57" y="64"/>
      <point x="57" y="133" type="qcurve" smooth="yes"/>
      <point x="57" y="203"/>
      <point x="101" y="240" type="qcurve"/>
      <point x="145" y="280"/>
      <point x="254" y="280" type="qcurve" smooth="yes"/>
      <point x="387" y="280" type="line"/>
      <point x="387" y="348" type="line" smooth="yes"/>
      <point x="387" y="489"/>
      <point x="254" y="489" type="qcurve" smooth="yes"/>
      <point x="248" y="489" type="line" smooth="yes"/>
      <point x="142" y="489"/>
      <point x="100" y="399" type="qcurve"/>
      <point x="75" y="416" type="line"/>
      <point x="118" y="520"/>
      <point x="249" y="520" type="qcurve" smooth="yes"/>
      <point x="419" y="520"/>
      <point x="422" y="352" type="qcurve"/>
      <point x="422" y="0" type="line"/>
      <point x="388" y="0" type="line"/>
      <point x="388" y="79" type="line"/>
      <point x="384" y="79" type="line"/>
      <point x="343" y="-12"/>
    </contour>
    <contour>
      <point x="225" y="19" type="qcurve" smooth="yes"/>
      <point x="291" y="19"/>
      <point x="387" y="86"/>
      <point x="387" y="148" type="qcurve" smooth="yes"/>
      <point x="387" y="252" type="line"/>
      <point x="254" y="252" type="line" smooth="yes"/>
      <point x="170" y="252"/>
      <point x="94" y="195"/>
      <point x="94" y="148" type="qcurve" smooth="yes"/>
      <point x="94" y="120" type="line" smooth="yes"/>
      <point x="94" y="70"/>
      <point x="167" y="19"/>
    </contour>
  </outline>
</glyph>
<glyph name="becyr" format="2">
  <advance width="549"/>
  <unicode hex="0431"/>
  <outline>
    <contour>
      <point x="277" y="19" type="qcurve" smooth="yes"/>
      <point x="358" y="19"/>
      <point x="454" y="126"/>
      <point x="454" y="222" type="qcurve" smooth="yes"/>
      <point x="454" y="272" type="line" smooth="yes"/>
      <point x="454" y="369"/>
      <point x="359" y="477"/>
      <point x="275" y="477" type="qcurve" smooth="yes"/>
      <point x="192" y="477"/>
      <point x="99" y="372"/>
      <point x="99" y="281" type="qcurve" smooth="yes"/>
      <point x="99" y="224" type="line" smooth="yes"/>
      <point x="99" y="127"/>
      <point x="195" y="19"/>
    </contour>
    <contour>
      <point x="276" y="-12" type="qcurve" smooth="yes"/>
      <point x="138" y="-12"/>
      <point x="84" y="116" type="qcurve" smooth="yes"/>
      <point x="70" y="149"/>
      <point x="61" y="228"/>
      <point x="61" y="279" type="qcurve" smooth="yes"/>
      <point x="61" y="405"/>
      <point x="85" y="576"/>
      <point x="115" y="627" type="qcurve" smooth="yes"/>
      <point x="171" y="726"/>
      <point x="314" y="734" type="qcurve"/>
      <point x="455" y="746" type="line"/>
      <point x="455" y="712" type="line"/>
      <point x="312" y="700" type="line" smooth="yes"/>
      <point x="190" y="691"/>
      <point x="108" y="544"/>
      <point x="99" y="387" type="qcurve"/>
      <point x="102" y="387" type="line"/>
      <point x="148" y="508"/>
      <point x="279" y="508" type="qcurve" smooth="yes"/>
      <point x="382" y="508"/>
      <point x="492" y="373"/>
      <point x="492" y="248" type="qcurve" smooth="yes"/>
      <point x="492" y="126"/>
      <point x="379" y="-12"/>
    </contour>
  </outline>
</glyph>
<glyph name="u0437" format="2">
  <advance width="496"/>
  <unicode hex="0437"/>
  <outline>
    <contour>
      <point x="232" y="-12" type="qcurve" smooth="yes"/>
      <point x="159" y="-12"/>
      <point x="72" y="41"/>
      <point x="47" y="86" type="qcurve"/>
      <point x="74" y="106" type="line"/>
      <point x="123" y="19"/>
      <point x="232" y="19" type="qcurve" smooth="yes"/>
      <point x="301" y="19"/>
      <point x="382" y="78"/>
      <point x="382" y="126" type="qcurve" smooth="yes"/>
      <point x="382" y="145" type="line" smooth="yes"/>
      <point x="382" y="194"/>
      <point x="311" y="247"/>
      <point x="250" y="247" type="qcurve" smooth="yes"/>
      <point x="147" y="247" type="line"/>
      <point x="147" y="277" type="line"/>
      <point x="247" y="277" type="line" smooth="yes"/>
      <point x="302" y="277"/>
      <point x="371" y="334"/>
      <point x="371" y="376" type="qcurve" smooth="yes"/>
      <point x="371" y="393" type="line"/>
      <point x="364" y="489"/>
      <point x="238" y="489" type="qcurve" smooth="yes"/>
      <point x="178" y="489"/>
      <point x="106" y="444"/>
      <point x="83" y="402" type="qcurve"/>
      <point x="57" y="420" type="line"/>
      <point x="107" y="520"/>
      <point x="239" y="520" type="qcurve" smooth="yes"/>
      <point x="320" y="520"/>
      <point x="407" y="450"/>
      <point x="407" y="388" type="qcurve" smooth="yes"/>
      <point x="407" y="337"/>
      <point x="352" y="275"/>
      <point x="304" y="266" type="qcurve"/>
      <point x="304" y="262" type="line"/>
      <point x="358" y="255"/>
      <point x="419" y="193"/>
      <point x="419" y="137" type="qcurve" smooth="yes"/>
      <point x="419" y="68"/>
      <point x="320" y="-12"/>
    </contour>
  </outline>
</glyph>
<glyph name="afii10075" format="2">
  <advance width="579"/>
  <unicode hex="0439"/>
  <outline>
    <contour>
      <point x="289" y="604" type="qcurve" smooth="yes"/>
      <point x="239" y="604"/>
      <point x="183" y="655"/>
      <point x="166" y="692" type="qcurve"/>
      <point x="152" y="720" type="line"/>
      <point x="182" y="733" type="line"/>
      <point x="217" y="663" type="line"/>
      <point x="246" y="631"/>
      <point x="289" y="631" type="qcurve" smooth="yes"/>
      <point x="333" y="631"/>
      <point x="361" y="663" type="qcurve"/>
      <point x="396" y="733" type="line"/>
      <point x="426" y="720" type="line"/>
      <point x="412" y="692" type="line"/>
      <point x="396" y="655"/>
      <point x="339" y="604"/>
    </contour>
    <contour>
      <point x="444" y="0" type="line"/>
      <point x="444" y="377" type="line"/>
      <point x="448" y="459" type="line"/>
      <point x="444" y="459" type="line"/>
      <point x="400" y="386" type="line"/>
      <point x="132" y="0" type="line"/>
      <point x="100" y="0" type="line"/>
      <point x="100" y="508" type="line"/>
      <point x="135" y="508" type="line"/>
      <point x="135" y="132" type="line"/>
      <point x="131" y="50" type="line"/>
      <point x="135" y="50" type="line"/>
      <point x="179" y="122" type="line"/>
      <point x="447" y="508" type="line"/>
      <point x="479" y="508" type="line"/>
      <point x="479" y="0" type="line"/>
    </contour>
  </outline>
</glyph>
<glyph name="u043D" format="2">
  <advance width="579"/>
  <unicode hex="043D"/>
  <outline>
    <contour>
      <point x="444" y="0" type="line"/>
      <point x="444" y="250" type="line"/>
      <point x="135" y="250" type="line"/>
      <point x="135" y="0" type="line"/>
      <point x="100" y="0" type="line"/>
      <point x="100" y="508" type="line"/>
      <point x="135" y="508" type="line"/>
      <point x="135" y="281" type="line"/>
      <point x="444" y="281" type="line"/>
      <point x="444" y="508" type="line"/>
      <point x="479" y="508" type="line"/>
      <point x="479" y="0" type="line"/>
    </contour>
  </outline>
</glyph>
<glyph name="u043F" format="2">
  <advance width="567"/>
  <unicode hex="043F"/>
  <outline>
    <contour>
      <point x="432" y="0" type="line"/>
      <point x="432" y="477" type="line"/>
      <point x="135" y="477" type="line"/>
      <point x="135" y="0" type="line"/>
      <point x="100" y="0" type="line"/>
      <point x="100" y="508" type="line"/>
      <point x="467" y="508" type="line"/>
      <point x="467" y="0" type="line"/>
    </contour>
  </outline>
</glyph>
<glyph name="escyr" format="2">
  <advance width="491"/>
  <unicode hex="0441"/>
  <outline>
    <contour>
      <point x="272" y="-12" type="qcurve" smooth="yes"/>
      <point x="170" y="-12"/>
      <point x="57" y="124"/>
      <point x="57" y="254" type="qcurve" smooth="yes"/>
      <point x="57" y="385"/>
      <point x="170" y="520"/>
      <point x="272" y="520" type="qcurve" smooth="yes"/>
      <point x="393" y="520"/>
      <point x="443" y="415" type="qcurve"/>
      <point x="414" y="400" type="line"/>
      <point x="393" y="443"/>
      <point x="325" y="489"/>
      <point x="272" y="489" type="qcurve" smooth="yes"/>
      <point x="186" y="489"/>
      <point x="95" y="377"/>
      <point x="95" y="283" type="qcurve" smooth="yes"/>
      <point x="95" y="225" type="line" smooth="yes"/>
      <point x="95" y="131"/>
      <point x="186" y="19"/>
      <point x="272" y="19" type="qcurve" smooth="yes"/>
      <point x="329" y="19"/>
      <point x="402" y="66"/>
      <point x="425" y="108" type="qcurve"/>
      <point x="451" y="90" type="line"/>
      <point x="398" y="-12"/>
    </contour>
  </outline>
</glyph>
<glyph name="u0447" format="2">
  <advance width="525"/>
  <unicode hex="0447"/>
  <outline>
    <contour>
      <point x="390" y="0" type="line"/>
      <point x="390" y="268" type="line"/>
      <point x="386" y="268" type="line"/>
      <point x="347" y="190"/>
      <point x="228" y="190" type="qcurve" smooth="yes"/>
      <point x="58" y="190"/>
      <point x="58" y="351" type="qcurve" smooth="yes"/>
      <point x="58" y="508" type="line"/>
      <point x="93" y="508" type="line"/>
      <point x="93" y="355" type="line" smooth="yes"/>
      <point x="93" y="283"/>
      <point x="167" y="222"/>
      <point x="236" y="222" type="qcurve" smooth="yes"/>
      <point x="305" y="222"/>
      <point x="390" y="283"/>
      <point x="390" y="337" type="qcurve" smooth="yes"/>
      <point x="390" y="508" type="line"/>
      <point x="425" y="508" type="line"/>
      <point x="425" y="0" type="line"/>
    </contour>
  </outline>
</glyph>
<glyph name="afii10090" format="2">
  <advance width="784"/>
  <unicode hex="0448"/>
  <outline>
    <contour>
      <point x="100" y="0" type="line"/>
      <point x="100" y="508" type="line"/>
      <point x="135" y="508" type="line"/>
      <point x="135" y="31" type="line"/>
      <point x="374" y="31" type="line"/>
      <point x="374" y="508" type="line"/>
      <point x="409" y="508" type="line"/>
      <point x="409" y="31" type="line"/>
      <point x="648" y="31" type="line"/>
      <point x="648" y="508" type="line"/>
      <point x="683" y="508" type="line"/>
      <point x="683" y="0" type="line"/>
    </contour>
  </outline>
</glyph>
<glyph name="u0449" format="2">
  <advance width="801"/>
  <unicode hex="0449"/>
  <outline>
    <contour>
      <point x="728" y="-140" type="line"/>
      <point x="728" y="0" type="line"/>
      <point x="100" y="0" type="line"/>
      <point x="100" y="508" type="line"/>
      <point x="135" y="508" type="line"/>
      <point x="135" y="31" type="line"/>
      <point x="374" y="31" type="line"/>
      <point x="374" y="508" type="line"/>
      <point x="409" y="508" type="line"/>
      <point x="409" y="31" type="line"/>
      <point x="648" y="31" type="line"/>
      <point x="648" y="508" type="line"/>
      <point x="683" y="508" type="line"/>
      <point x="683" y="31" type="line"/>
      <point x="761" y="31" type="line"/>
      <point x="761" y="-140" type="line"/>
    </contour>
  </outline>
</glyph>
<glyph name="afii10092" format="2">
  <advance width="588"/>
  <unicode hex="044A"/>
  <outline>
    <contour>
      <point x="177" y="0" type="line"/>
      <point x="177" y="477" type="line"/>
      <point x="31" y="477" type="line"/>
      <point x="31" y="508" type="line"/>
      <point x="212" y="508" type="line"/>
      <point x="212" y="301" type="line"/>
      <point x="376" y="301" type="line" smooth="yes"/>
      <point x="453" y="301"/>
      <point x="535" y="220"/>
      <point x="535" y="151" type="qcurve" smooth="yes"/>
      <point x="535" y="82"/>
      <point x="454" y="0"/>
      <point x="376" y="0" type="qcurve" smooth="yes"/>
    </contour>
    <contour>
      <point x="373" y="31" type="line" smooth="yes"/>
      <point x="436" y="31"/>
      <point x="497" y="91"/>
      <point x="497" y="136" type="qcurve" smooth="yes"/>
      <point x="497" y="166" type="line" smooth="yes"/>
      <point x="497" y="211"/>
      <point x="436" y="270"/>
      <point x="373" y="270" type="qcurve" smooth="yes"/>
      <point x="212" y="270" type="line"/>
      <point x="212" y="31" type="line"/>
    </contour>
  </outline>
</glyph>
<glyph name="u044D" format="2">
  <advance width="500"/>
  <unicode hex="044D"/>
  <outline>
    <contour>
      <point x="228" y="-12" type="qcurve" smooth="yes"/>
      <point x="102" y="-12"/>
      <point x="48" y="90" type="qcurve"/>
      <point x="76" y="106" type="line"/>
      <point x="121" y="19"/>
      <point x="228" y="19" type="qcurve" smooth="yes"/>
      <point x="315" y="19"/>
      <point x="405" y="131"/>
      <point x="405" y="225" type="qcurve" smooth="yes"/>
      <point x="405" y="241" type="line"/>
      <point x="149" y="241" type="line"/>
      <point x="149" y="272" type="line"/>
      <point x="405" y="272" type="line"/>
      <point x="405" y="283" type="line" smooth="yes"/>
      <point x="405" y="377"/>
      <point x="315" y="489"/>
      <point x="228" y="489" type="qcurve" smooth="yes"/>
      <point x="174" y="489"/>
      <point x="104" y="443"/>
      <point x="81" y="399" type="qcurve"/>
      <point x="54" y="415" type="line"/>
      <point x="104" y="520"/>
      <point x="228" y="520" type="qcurve" smooth="yes"/>
      <point x="331" y="520"/>
      <point x="443" y="385"/>
      <point x="443" y="254" type="qcurve" smooth="yes"/>
      <point x="443" y="124"/>
      <point x="331" y="-12"/>
    </contour>
  </outline>
</glyph>
<glyph name="u0453" format="2">
  <advance width="440"/>
  <unicode hex="0453"/>
  <outline>
    <contour>
      <point x="100" y="0" type="line"/>
      <point x="100" y="508" type="line"/>
      <point x="404" y="508" type="line"/>
      <point x="404" y="477" type="line"/>
      <point x="135" y="477" type="line"/>
      <point x="135" y="0" type="line"/>
    </contour>
    <contour>
      <point x="218" y="600" type="line"/>
      <point x="323" y="758" type="line"/>
      <point x="355" y="740" type="line"/>
      <point x="242" y="587" type="line"/>
    </contour>
  </outline>
</glyph>
<glyph name="u0454" format="2">
  <advance width="500"/>
  <unicode hex="0454"/>
  <outline>
    <contour>
      <point x="273" y="-12" type="qcurve" smooth="yes"/>
      <point x="170" y="-12"/>
      <point x="57" y="124"/>
      <point x="57" y="254" type="qcurve" smooth="yes"/>
      <point x="57" y="385"/>
      <point x="170" y="520"/>
      <point x="273" y="520" type="qcurve" smooth="yes"/>
      <point x="395" y="520"/>
      <point x="445" y="415" type="qcurve"/>
      <point x="416" y="400" type="line"/>
      <point x="395" y="443"/>
      <point x="326" y="489"/>
      <point x="273" y="489" type="qcurve" smooth="yes"/>
      <point x="185" y="489"/>
      <point x="95" y="377"/>
      <point x="95" y="283" type="qcurve" smooth="yes"/>
      <point x="95" y="272" type="line"/>
      <point x="351" y="272" type="line"/>
      <point x="351" y="241" type="line"/>
      <point x="95" y="241" type="line"/>
      <point x="95" y="225" type="line" smooth="yes"/>
      <point x="95" y="131"/>
      <point x="185" y="19"/>
      <point x="273" y="19" type="qcurve" smooth="yes"/>
      <point x="379" y="19"/>
      <point x="427" y="108" type="qcurve"/>
      <point x="453" y="90" type="line"/>
      <point x="400" y="-12"/>
    </contour>
  </outline>
</glyph>
<glyph name="u0457" format="2">
  <advance width="235"/>
  <unicode hex="0457"/>
  <outline>
    <contour>
      <point x="100" y="0" type="line"/>
      <point x="100" y="508" type="line"/>
      <point x="135" y="508" type="line"/>
      <point x="135" y="0" type="line"/>
    </contour>
    <contour>
      <point x="27" y="636" type="qcurve" smooth="yes"/>
      <point x="-3" y="636"/>
      <point x="-3" y="663" type="qcurve" smooth="yes"/>
      <point x="-3" y="671" type="line" smooth="yes"/>
      <point x="-3" y="698"/>
      <point x="27" y="698" type="qcurve" smooth="yes"/>
      <point x="56" y="698"/>
      <point x="56" y="671" type="qcurve" smooth="yes"/>
      <point x="56" y="663" type="line" smooth="yes"/>
      <point x="56" y="636"/>
    </contour>
    <contour>
      <point x="209" y="636" type="qcurve" smooth="yes"/>
      <point x="180" y="636"/>
      <point x="180" y="663" type="qcurve" smooth="yes"/>
      <point x="180" y="671" type="line" smooth="yes"/>
      <point x="180" y="698"/>
      <point x="209" y="698" type="qcurve" smooth="yes"/>
      <point x="239" y="698"/>
      <point x="239" y="671" type="qcurve" smooth="yes"/>
      <point x="239" y="663" type="line" smooth="yes"/>
      <point x="239" y="636"/>
    </contour>
  </outline>
</glyph>
<glyph name="afii10105" format="2">
  <advance width="235"/>
  <unicode hex="0458"/>
  <outline>
    <contour>
      <point x="118" y="665" type="qcurve" smooth="yes"/>
      <point x="88" y="665"/>
      <point x="88" y="691" type="qcurve" smooth="yes"/>
      <point x="88" y="700" type="line" smooth="yes"/>
      <point x="88" y="726"/>
      <point x="117" y="726" type="qcurve" smooth="yes"/>
      <point x="147" y="726"/>
      <point x="147" y="700" type="qcurve" smooth="yes"/>
      <point x="147" y="691" type="line" smooth="yes"/>
      <point x="147" y="665"/>
    </contour>
    <contour>
      <point x="15" y="-200" type="line"/>
      <point x="15" y="-169" type="line"/>
      <point x="100" y="-169" type="line"/>
      <point x="100" y="508" type="line"/>
      <point x="135" y="508" type="line"/>
      <point x="135" y="-149" type="line" smooth="yes"/>
      <point x="135" y="-200"/>
      <point x="87" y="-200" type="qcurve" smooth="yes"/>
    </contour>
  </outline>
</glyph>
<glyph name="afii10106" format="2">
  <advance width="776"/>
  <unicode hex="0459"/>
  <outline>
    <contour>
      <point x="380" y="0" type="line"/>
      <point x="380" y="477" type="line"/>
      <point x="177" y="477" type="line"/>
      <point x="177" y="358" type="line" smooth="yes"/>
      <point x="177" y="213"/>
      <point x="127" y="49"/>
      <point x="94" y="18" type="qcurve"/>
      <point x="83" y="7"/>
      <point x="61" y="0"/>
      <point x="45" y="0" type="qcurve" smooth="yes"/>
      <point x="5" y="0" type="line"/>
      <point x="5" y="31" type="line"/>
      <point x="65" y="31" type="line"/>
      <point x="143" y="110"/>
      <point x="143" y="358" type="qcurve" smooth="yes"/>
      <point x="143" y="508" type="line"/>
      <point x="415" y="508" type="line"/>
      <point x="415" y="301" type="line"/>
      <point x="563" y="301" type="line" smooth="yes"/>
      <point x="640" y="301"/>
      <point x="722" y="220"/>
      <point x="722" y="151" type="qcurve" smooth="yes"/>
      <point x="722" y="82"/>
      <point x="641" y="0"/>
      <point x="563" y="0" type="qcurve" smooth="yes"/>
    </contour>
    <contour>
      <point x="560" y="31" type="line" smooth="yes"/>
      <point x="623" y="31"/>
      <point x="684" y="91"/>
      <point x="684" y="136" type="qcurve" smooth="yes"/>
      <point x="684" y="166" type="line" smooth="yes"/>
      <point x="684" y="211"/>
      <point x="623" y="270"/>
      <point x="560" y="270" type="qcurve" smooth="yes"/>
      <point x="415" y="270" type="line"/>
      <point x="415" y="31" type="line"/>
    </contour>
  </outline>
</glyph>
<glyph name="afii10107" format="2">
  <advance width="812"/>
  <unicode hex="045A"/>
  <outline>
    <contour>
      <point x="417" y="0" type="line"/>
      <point x="417" y="264" type="line"/>
      <point x="135" y="264" type="line"/>
      <point x="135" y="0" type="line"/>
      <point x="100" y="0" type="line"/>
      <point x="100" y="508" type="line"/>
      <point x="135" y="508" type="line"/>
      <point x="135" y="295" type="line"/>
      <point x="417" y="295" type="line"/>
      <point x="417" y="508" type="line"/>
      <point x="452" y="508" type="line"/>
      <point x="452" y="295" type="line"/>
      <point x="600" y="295" type="line" smooth="yes"/>
      <point x="677" y="295"/>
      <point x="759" y="216"/>
      <point x="759" y="147" type="qcurve" smooth="yes"/>
      <point x="759" y="78"/>
      <point x="678" y="0"/>
      <point x="600" y="0" type="qcurve" smooth="yes"/>
    </contour>
    <contour>
      <point x="597" y="31" type="line" smooth="yes"/>
      <point x="660" y="31"/>
      <point x="721" y="87"/>
      <point x="721" y="132" type="qcurve" smooth="yes"/>
      <point x="721" y="163" type="line" smooth="yes"/>
      <point x="721" y="207"/>
      <point x="660" y="264"/>
      <point x="597" y="264" type="qcurve" smooth="yes"/>
      <point x="452" y="264" type="line"/>
      <point x="452" y="31" type="line"/>
    </contour>
  </outline>
</glyph>
<glyph name="afii10108" format="2">
  <advance width="562"/>
  <unicode hex="045B"/>
  <outline>
    <contour>
      <point x="435" y="0" type="line"/>
      <point x="435" y="320" type="line" smooth="yes"/>
      <point x="435" y="489"/>
      <point x="289" y="489" type="qcurve" smooth="yes"/>
      <point x="229" y="489"/>
      <point x="138" y="426"/>
      <point x="138" y="361" type="qcurve" smooth="yes"/>
      <point x="138" y="0" type="line"/>
      <point x="103" y="0" type="line"/>
      <point x="103" y="623" type="line"/>
      <point x="37" y="623" type="line"/>
      <point x="37" y="652" type="line"/>
      <point x="103" y="652" type="line"/>
      <point x="103" y="740" type="line"/>
      <point x="138" y="740" type="line"/>
      <point x="138" y="652" type="line"/>
      <point x="297" y="652" type="line"/>
      <point x="297" y="623" type="line"/>
      <point x="138" y="623" type="line"/>
      <point x="138" y="430" type="line"/>
      <point x="141" y="430" type="line"/>
      <point x="155" y="468"/>
      <point x="230" y="520"/>
      <point x="296" y="520" type="qcurve" smooth="yes"/>
      <point x="470" y="517"/>
      <point x="470" y="326" type="qcurve" smooth="yes"/>
      <point x="470" y="0" type="line"/>
    </contour>
  </outline>
</glyph>
<glyph name="u045C" format="2">
  <advance width="527"/>
  <unicode hex="045C"/>
  <outline>
    <contour>
      <point x="431" y="0" type="line" smooth="yes"/>
      <point x="417" y="0"/>
      <point x="399" y="11"/>
      <point x="390" y="26" type="qcurve" smooth="yes"/>
      <point x="253" y="250" type="line"/>
      <point x="135" y="250" type="line"/>
      <point x="135" y="0" type="line"/>
      <point x="100" y="0" type="line"/>
      <point x="100" y="508" type="line"/>
      <point x="135" y="508" type="line"/>
      <point x="135" y="281" type="line"/>
      <point x="253" y="281" type="line"/>
      <point x="386" y="481" type="line"/>
      <point x="397" y="496"/>
      <point x="415" y="508"/>
      <point x="429" y="508" type="qcurve" smooth="yes"/>
      <point x="477" y="508" type="line"/>
      <point x="477" y="477" type="line"/>
      <point x="420" y="477" type="line"/>
      <point x="305" y="304" type="line" smooth="yes"/>
      <point x="293" y="286"/>
      <point x="276" y="270"/>
      <point x="264" y="267" type="qcurve"/>
      <point x="264" y="264" type="line"/>
      <point x="278" y="262"/>
      <point x="296" y="246"/>
      <point x="309" y="224" type="qcurve" smooth="yes"/>
      <point x="427" y="31" type="line"/>
      <point x="484" y="31" type="line"/>
      <point x="484" y="0" type="line"/>
    </contour>
    <contour>
      <point x="236" y="600" type="line"/>
      <point x="341" y="758" type="line"/>
      <point x="373" y="740" type="line"/>
      <point x="260" y="587" type="line"/>
    </contour>
  </outline>
</glyph>
<glyph name="igravecyr" format="2">
  <advance width="579"/>
  <unicode hex="045D"/>
  <outline>
    <contour>
      <point x="444" y="0" type="line"/>
      <point x="444" y="377" type="line"/>
      <point x="448" y="459" type="line"/>
      <point x="444" y="459" type="line"/>
      <point x="400" y="386" type="line"/>
      <point x="132" y="0" type="line"/>
      <point x="100" y="0" type="line"/>
      <point x="100" y="508" type="line"/>
      <point x="135" y="508" type="line"/>
      <point x="135" y="132" type="line"/>
      <point x="131" y="50" type="line"/>
      <point x="135" y="50" type="line"/>
      <point x="179" y="122" type="line"/>
      <point x="447" y="508" type="line"/>
      <point x="479" y="508" type="line"/>
      <point x="479" y="0" type="line"/>
    </contour>
    <contour>
      <point x="187" y="740" type="line"/>
      <point x="219" y="758" type="line"/>
      <point x="324" y="600" type="line"/>
      <point x="300" y="587" type="line"/>
    </contour>
  </outline>
</glyph>
<glyph name="ushortcyr" format="2">
  <advance width="462"/>
  <unicode hex="045E"/>
  <outline>
    <contour>
      <point x="64" y="-200" type="line"/>
      <point x="64" y="-169" type="line"/>
      <point x="154" y="-169" type="line"/>
      <point x="214" y="-10" type="line"/>
      <point x="23" y="508" type="line"/>
      <point x="60" y="508" type="line"/>
      <point x="230" y="38" type="line"/>
      <point x="233" y="38" type="line"/>
      <point x="403" y="508" type="line"/>
      <point x="438" y="508" type="line"/>
      <point x="190" y="-167" type="line"/>
      <point x="182" y="-185"/>
      <point x="160" y="-200"/>
      <point x="138" y="-200" type="qcurve" smooth="yes"/>
    </contour>
    <contour>
      <point x="233" y="604" type="qcurve" smooth="yes"/>
      <point x="183" y="604"/>
      <point x="127" y="655"/>
      <point x="110" y="692" type="qcurve"/>
      <point x="96" y="720" type="line"/>
      <point x="126" y="733" type="line"/>
      <point x="161" y="663" type="line"/>
      <point x="190" y="631"/>
      <point x="233" y="631" type="qcurve" smooth="yes"/>
      <point x="277" y="631"/>
      <point x="305" y="663" type="qcurve"/>
      <point x="340" y="733" type="line"/>
      <point x="370" y="720" type="line"/>
      <point x="356" y="692" type="line"/>
      <point x="340" y="655"/>
      <point x="283" y="604"/>
    </contour>
  </outline>
</glyph>
<glyph name="u045F" format="2">
  <advance width="567"/>
  <unicode hex="045F"/>
  <outline>
    <contour>
      <point x="267" y="-140" type="line"/>
      <point x="267" y="0" type="line"/>
      <point x="100" y="0" type="line"/>
      <point x="100" y="508" type="line"/>
      <point x="135" y="508" type="line"/>
      <point x="135" y="31" type="line"/>
      <point x="432" y="31" type="line"/>
      <point x="432" y="508" type="line"/>
      <point x="467" y="508" type="line"/>
      <point x="467" y="0" type="line"/>
      <point x="300" y="0" type="line"/>
      <point x="300" y="-140" type="line"/>
    </contour>
  </outline>
</glyph>
<glyph name="afii10050" format="2">
  <advance width="504"/>
  <unicode hex="0490"/>
  <outline>
    <contour>
      <point x="104" y="0" type="line"/>
      <point x="104" y="698" type="line"/>
      <point x="430" y="698" type="line"/>
      <point x="430" y="848" type="line"/>
      <point x="465" y="848" type="line"/>
      <point x="465" y="665" type="line"/>
      <point x="141" y="665" type="line"/>
      <point x="141" y="0" type="line"/>
    </contour>
  </outline>
</glyph>
<glyph name="u0492" format="2">
  <advance width="524"/>
  <unicode hex="0492"/>
  <outline>
    <contour>
      <point x="124" y="0" type="line"/>
      <point x="124" y="358" type="line"/>
      <point x="23" y="358" type="line"/>
      <point x="23" y="388" type="line"/>
      <point x="124" y="388" type="line"/>
      <point x="124" y="698" type="line"/>
      <point x="485" y="698" type="line"/>
      <point x="485" y="665" type="line"/>
      <point x="161" y="665" type="line"/>
      <point x="161" y="388" type="line"/>
      <point x="376" y="388" type="line"/>
      <point x="376" y="358" type="line"/>
      <point x="161" y="358" type="line"/>
      <point x="161" y="0" type="line"/>
    </contour>
  </outline>
</glyph>
<glyph name="Ghemiddlehookcyrillic" format="2">
  <advance width="617"/>
  <unicode hex="0494"/>
  <outline>
    <contour>
      <point x="351" y="-164" type="line"/>
      <point x="351" y="-131" type="line"/>
      <point x="436" y="-131" type="line"/>
      <point x="514" y="-105"/>
      <point x="514" y="52" type="qcurve" smooth="yes"/>
      <point x="514" y="156" type="line" smooth="yes"/>
      <point x="514" y="261"/>
      <point x="409" y="355"/>
      <point x="304" y="355" type="qcurve" smooth="yes"/>
      <point x="259" y="355"/>
      <point x="169" y="342"/>
      <point x="141" y="331" type="qcurve"/>
      <point x="141" y="0" type="line"/>
      <point x="104" y="0" type="line"/>
      <point x="104" y="698" type="line"/>
      <point x="449" y="698" type="line"/>
      <point x="449" y="665" type="line"/>
      <point x="141" y="665" type="line"/>
      <point x="141" y="365" type="line"/>
      <point x="146" y="365" type="line"/>
      <point x="216" y="388"/>
      <point x="307" y="388" type="qcurve" smooth="yes"/>
      <point x="434" y="388"/>
      <point x="551" y="274"/>
      <point x="551" y="156" type="qcurve" smooth="yes"/>
      <point x="551" y="52" type="line" smooth="yes"/>
      <point x="551" y="-58"/>
      <point x="512" y="-114" type="qcurve" smooth="yes"/>
      <point x="476" y="-164"/>
      <point x="410" y="-164" type="qcurve" smooth="yes"/>
    </contour>
  </outline>
</glyph>
<glyph name="ghemiddlehookcyrillic" format="2">
  <advance width="529"/>
  <unicode hex="0495"/>
  <outline>
    <contour>
      <point x="307" y="-200" type="line"/>
      <point x="307" y="-169" type="line"/>
      <point x="392" y="-169" type="line"/>
      <point x="410" y="-151"/>
      <point x="432" y="-85"/>
      <point x="432" y="-24" type="qcurve" smooth="yes"/>
      <point x="432" y="110" type="line" smooth="yes"/>
      <point x="432" y="189"/>
      <point x="361" y="250"/>
      <point x="289" y="250" type="qcurve" smooth="yes"/>
      <point x="220" y="250"/>
      <point x="135" y="188"/>
      <point x="135" y="134" type="qcurve" smooth="yes"/>
      <point x="135" y="0" type="line"/>
      <point x="100" y="0" type="line"/>
      <point x="100" y="508" type="line"/>
      <point x="404" y="508" type="line"/>
      <point x="404" y="477" type="line"/>
      <point x="135" y="477" type="line"/>
      <point x="135" y="203" type="line"/>
      <point x="139" y="203" type="line"/>
      <point x="178" y="281"/>
      <point x="297" y="281" type="qcurve" smooth="yes"/>
      <point x="380" y="281"/>
      <point x="467" y="205"/>
      <point x="467" y="115" type="qcurve" smooth="yes"/>
      <point x="467" y="-30" type="line" smooth="yes"/>
      <point x="467" y="-120"/>
      <point x="412" y="-200"/>
      <point x="374" y="-200" type="qcurve" smooth="yes"/>
    </contour>
  </outline>
</glyph>
<glyph name="u0498" format="2">
  <advance width="579"/>
  <unicode hex="0498"/>
  <outline>
    <contour>
      <point x="266" y="-150" type="line"/>
      <point x="266" y="-12" type="line"/>
      <point x="123" y="-7"/>
      <point x="55" y="99" type="qcurve"/>
      <point x="83" y="119" type="line"/>
      <point x="145" y="21"/>
      <point x="283" y="21" type="qcurve" smooth="yes"/>
      <point x="369" y="21"/>
      <point x="475" y="104"/>
      <point x="475" y="174" type="qcurve" smooth="yes"/>
      <point x="475" y="199" type="line" smooth="yes"/>
      <point x="475" y="263"/>
      <point x="379" y="340"/>
      <point x="292" y="340" type="qcurve" smooth="yes"/>
      <point x="178" y="340" type="line"/>
      <point x="178" y="373" type="line"/>
      <point x="289" y="373" type="line" smooth="yes"/>
      <point x="367" y="373"/>
      <point x="460" y="453"/>
      <point x="460" y="520" type="qcurve" smooth="yes"/>
      <point x="460" y="542" type="line" smooth="yes"/>
      <point x="460" y="603"/>
      <point x="366" y="677"/>
      <point x="287" y="677" type="qcurve" smooth="yes"/>
      <point x="216" y="677"/>
      <point x="131" y="627"/>
      <point x="108" y="582" type="qcurve"/>
      <point x="79" y="599" type="line"/>
      <point x="132" y="710"/>
      <point x="287" y="710" type="qcurve" smooth="yes"/>
      <point x="387" y="710"/>
      <point x="500" y="615"/>
      <point x="500" y="534" type="qcurve" smooth="yes"/>
      <point x="500" y="456"/>
      <point x="424" y="371"/>
      <point x="361" y="359" type="qcurve"/>
      <point x="361" y="355" type="line"/>
      <point x="431" y="347"/>
      <point x="515" y="263"/>
      <point x="515" y="188" type="qcurve" smooth="yes"/>
      <point x="515" y="99"/>
      <point x="402" y="-6"/>
      <point x="301" y="-12" type="qcurve"/>
      <point x="301" y="-150" type="line"/>
    </contour>
  </outline>
</glyph>
<glyph name="zedescendercyrillic" format="2">
  <advance width="496"/>
  <unicode hex="0499"/>
  <outline>
    <contour>
      <point x="216" y="-140" type="line"/>
      <point x="216" y="-12" type="line"/>
      <point x="151" y="-8"/>
      <point x="71" y="44"/>
      <point x="47" y="86" type="qcurve"/>
      <point x="74" y="106" type="line"/>
      <point x="123" y="19"/>
      <point x="232" y="19" type="qcurve" smooth="yes"/>
      <point x="301" y="19"/>
      <point x="382" y="78"/>
      <point x="382" y="126" type="qcurve" smooth="yes"/>
      <point x="382" y="145" type="line" smooth="yes"/>
      <point x="382" y="194"/>
      <point x="311" y="247"/>
      <point x="250" y="247" type="qcurve" smooth="yes"/>
      <point x="147" y="247" type="line"/>
      <point x="147" y="277" type="line"/>
      <point x="247" y="277" type="line" smooth="yes"/>
      <point x="302" y="277"/>
      <point x="371" y="334"/>
      <point x="371" y="376" type="qcurve" smooth="yes"/>
      <point x="371" y="393" type="line"/>
      <point x="364" y="489"/>
      <point x="238" y="489" type="qcurve" smooth="yes"/>
      <point x="178" y="489"/>
      <point x="106" y="444"/>
      <point x="83" y="402" type="qcurve"/>
      <point x="57" y="420" type="line"/>
      <point x="107" y="520"/>
      <point x="239" y="520" type="qcurve" smooth="yes"/>
      <point x="320" y="520"/>
      <point x="407" y="450"/>
      <point x="407" y="388" type="qcurve" smooth="yes"/>
      <point x="407" y="337"/>
      <point x="352" y="275"/>
      <point x="304" y="266" type="qcurve"/>
      <point x="304" y="262" type="line"/>
      <point x="358" y="255"/>
      <point x="419" y="193"/>
      <point x="419" y="137" type="qcurve" smooth="yes"/>
      <point x="419" y="72"/>
      <point x="331" y="-6"/>
      <point x="250" y="-12" type="qcurve"/>
      <point x="250" y="-140" type="line"/>
    </contour>
  </outline>
</glyph>
<glyph name="u049A" format="2">
  <advance width="636"/>
  <unicode hex="049A"/>
  <outline>
    <contour>
      <point x="566" y="-150" type="line"/>
      <point x="566" y="0" type="line"/>
      <point x="530" y="0" type="line" smooth="yes"/>
      <point x="499" y="0"/>
      <point x="481" y="32" type="qcurve"/>
      <point x="296" y="339" type="line"/>
      <point x="141" y="339" type="line"/>
      <point x="141" y="0" type="line"/>
      <point x="104" y="0" type="line"/>
      <point x="104" y="698" type="line"/>
      <point x="141" y="698" type="line"/>
      <point x="141" y="371" type="line"/>
      <point x="296" y="371" type="line"/>
      <point x="470" y="663" type="line"/>
      <point x="481" y="683"/>
      <point x="504" y="698"/>
      <point x="521" y="698" type="qcurve" smooth="yes"/>
      <point x="569" y="698" type="line"/>
      <point x="569" y="665" type="line"/>
      <point x="509" y="665" type="line"/>
      <point x="345" y="390" type="line" smooth="yes"/>
      <point x="334" y="372"/>
      <point x="319" y="358"/>
      <point x="308" y="356" type="qcurve"/>
      <point x="308" y="353" type="line"/>
      <point x="333" y="349"/>
      <point x="353" y="315" type="qcurve" smooth="yes"/>
      <point x="523" y="33" type="line"/>
      <point x="601" y="33" type="line"/>
      <point x="601" y="-150" type="line"/>
    </contour>
  </outline>
</glyph>
<glyph name="u049C" format="2">
  <advance width="642"/>
  <unicode hex="049C"/>
  <outline>
    <contour>
      <point x="545" y="0" type="line" smooth="yes"/>
      <point x="514" y="0"/>
      <point x="496" y="32" type="qcurve"/>
      <point x="311" y="339" type="line"/>
      <point x="250" y="339" type="line"/>
      <point x="250" y="172" type="line"/>
      <point x="218" y="172" type="line"/>
      <point x="218" y="339" type="line"/>
      <point x="141" y="339" type="line"/>
      <point x="141" y="0" type="line"/>
      <point x="104" y="0" type="line"/>
      <point x="104" y="698" type="line"/>
      <point x="141" y="698" type="line"/>
      <point x="141" y="371" type="line"/>
      <point x="218" y="371" type="line"/>
      <point x="218" y="540" type="line"/>
      <point x="250" y="540" type="line"/>
      <point x="250" y="371" type="line"/>
      <point x="311" y="371" type="line"/>
      <point x="485" y="663" type="line"/>
      <point x="496" y="683"/>
      <point x="519" y="698"/>
      <point x="536" y="698" type="qcurve" smooth="yes"/>
      <point x="584" y="698" type="line"/>
      <point x="584" y="665" type="line"/>
      <point x="524" y="665" type="line"/>
      <point x="360" y="390" type="line" smooth="yes"/>
      <point x="349" y="372"/>
      <point x="334" y="358"/>
      <point x="323" y="356" type="qcurve"/>
      <point x="323" y="353" type="line"/>
      <point x="348" y="349"/>
      <point x="368" y="315" type="qcurve" smooth="yes"/>
      <point x="538" y="33" type="line"/>
      <point x="598" y="33" type="line"/>
      <point x="598" y="0" type="line"/>
    </contour>
  </outline>
</glyph>
<glyph name="kabashkircyrillic" format="2">
  <advance width="604"/>
  <unicode hex="04A1"/>
  <outline>
    <contour>
      <point x="508" y="0" type="line" smooth="yes"/>
      <point x="494" y="0"/>
      <point x="476" y="11"/>
      <point x="467" y="26" type="qcurve" smooth="yes"/>
      <point x="330" y="250" type="line"/>
      <point x="212" y="250" type="line"/>
      <point x="212" y="0" type="line"/>
      <point x="177" y="0" type="line"/>
      <point x="177" y="477" type="line"/>
      <point x="31" y="477" type="line"/>
      <point x="31" y="508" type="line"/>
      <point x="212" y="508" type="line"/>
      <point x="212" y="281" type="line"/>
      <point x="330" y="281" type="line"/>
      <point x="463" y="481" type="line"/>
      <point x="474" y="496"/>
      <point x="492" y="508"/>
      <point x="506" y="508" type="qcurve" smooth="yes"/>
      <point x="554" y="508" type="line"/>
      <point x="554" y="477" type="line"/>
      <point x="497" y="477" type="line"/>
      <point x="382" y="304" type="line" smooth="yes"/>
      <point x="370" y="286"/>
      <point x="353" y="270"/>
      <point x="341" y="267" type="qcurve"/>
      <point x="341" y="264" type="line"/>
      <point x="355" y="262"/>
      <point x="373" y="246"/>
      <point x="386" y="224" type="qcurve" smooth="yes"/>
      <point x="504" y="31" type="line"/>
      <point x="561" y="31" type="line"/>
      <point x="561" y="0" type="line"/>
    </contour>
  </outline>
</glyph>
<glyph name="Entailcyr" format="2">
  <advance width="727"/>
  <unicode hex="04A2"/>
  <outline>
    <contour>
      <point x="646" y="-150" type="line"/>
      <point x="646" y="0" type="line"/>
      <point x="554" y="0" type="line"/>
      <point x="554" y="337" type="line"/>
      <point x="141" y="337" type="line"/>
      <point x="141" y="0" type="line"/>
      <point x="104" y="0" type="line"/>
      <point x="104" y="698" type="line"/>
      <point x="141" y="698" type="line"/>
      <point x="141" y="370" type="line"/>
      <point x="554" y="370" type="line"/>
      <point x="554" y="698" type="line"/>
      <point x="591" y="698" type="line"/>
      <point x="591" y="33" type="line"/>
      <point x="681" y="33" type="line"/>
      <point x="681" y="-150" type="line"/>
    </contour>
  </outline>
</glyph>
<glyph name="entailcyr" format="2">
  <advance width="597"/>
  <unicode hex="04A3"/>
  <outline>
    <contour>
      <point x="523" y="-140" type="line"/>
      <point x="523" y="0" type="line"/>
      <point x="444" y="0" type="line"/>
      <point x="444" y="250" type="line"/>
      <point x="135" y="250" type="line"/>
      <point x="135" y="0" type="line"/>
      <point x="100" y="0" type="line"/>
      <point x="100" y="508" type="line"/>
      <point x="135" y="508" type="line"/>
      <point x="135" y="281" type="line"/>
      <point x="444" y="281" type="line"/>
      <point x="444" y="508" type="line"/>
      <point x="479" y="508" type="line"/>
      <point x="479" y="31" type="line"/>
      <point x="556" y="31" type="line"/>
      <point x="556" y="-140" type="line"/>
    </contour>
  </outline>
</glyph>
<glyph name="Enghecyrillic" format="2">
  <advance width="930"/>
  <unicode hex="04A4"/>
  <outline>
    <contour>
      <point x="531" y="0" type="line"/>
      <point x="531" y="337" type="line"/>
      <point x="141" y="337" type="line"/>
      <point x="141" y="0" type="line"/>
      <point x="104" y="0" type="line"/>
      <point x="104" y="698" type="line"/>
      <point x="141" y="698" type="line"/>
      <point x="141" y="370" type="line"/>
      <point x="531" y="370" type="line"/>
      <point x="531" y="698" type="line"/>
      <point x="891" y="698" type="line"/>
      <point x="891" y="665" type="line"/>
      <point x="567" y="665" type="line"/>
      <point x="567" y="0" type="line"/>
    </contour>
  </outline>
</glyph>
